<svg width="444" height="474" viewBox="0 0 444 474" fill="none" xmlns="http://www.w3.org/2000/svg">
<path d="M227.101 307.143C315.483 307.143 394.364 357.954 428.054 436.595C433.821 450.055 427.686 465.682 414.355 471.505C401.025 477.336 385.564 471.133 379.797 457.674C354.432 398.491 294.509 360.228 227.11 360.228C158.151 360.228 97.8598 398.456 73.5295 457.612C69.3313 467.815 59.5413 473.982 49.243 474C45.8774 474 42.468 473.345 39.1638 471.965C25.7541 466.328 19.3998 450.789 24.9653 437.259C57.4729 358.202 136.809 307.143 227.101 307.143ZM16.3673 77.9707C6.7088 77.3247 -0.600816 68.8916 0.0389944 59.1399C0.678805 49.3972 8.89116 41.9905 18.6636 42.6542C19.4261 42.7073 94.7309 47.061 123.049 7.62975C128.728 -0.29898 139.702 -2.03339 147.528 3.69193C155.364 9.4261 157.108 20.4962 151.429 28.4073C118.851 73.7585 51.5043 78.245 26.166 78.245C20.6006 78.245 17.0685 78.0238 16.3673 77.9707ZM153.068 141.648C153.068 153.285 149.457 164.063 143.339 172.947C133.461 159.24 117.492 150.285 99.4199 150.285C80.9443 150.285 64.6248 159.638 54.8085 173.876C48.2877 164.824 44.3875 153.709 44.3875 141.639C44.3875 111.34 68.7266 86.7666 98.7275 86.7666C128.728 86.7666 153.068 111.349 153.068 141.648ZM292.572 28.0799C286.893 20.1688 288.637 9.09869 296.473 3.36452C304.308 -2.35195 315.273 -0.617544 320.952 7.30233C349.261 46.7336 424.566 42.3799 425.337 42.3268C435.11 41.672 443.322 49.0786 443.962 58.8125C444.593 68.5641 437.283 76.9973 427.634 77.6432C426.933 77.6963 423.401 77.9087 417.826 77.9087C392.497 77.9176 325.15 73.4311 292.572 28.0799ZM345.273 86.4392C375.274 86.4392 399.614 111.013 399.614 141.312C399.614 153.373 395.713 164.488 389.201 173.549C379.385 159.311 363.074 149.957 344.581 149.957C326.509 149.957 310.54 158.913 300.662 172.62C294.544 163.735 290.933 152.957 290.933 141.321C290.925 111.022 315.273 86.4392 345.273 86.4392ZM43.9843 310.877C12.432 310.877 12.432 275.534 12.432 275.534C12.4408 245.129 52.3544 208.857 52.3544 208.857C56.1933 233.165 65.6765 247.297 65.6765 247.297C76.3517 263.375 76.3517 278.339 76.3517 278.339C76.3517 311.169 43.9843 310.877 43.9843 310.877Z" fill="#6C63FF"/>
</svg>
