<svg width="4217" height="2614" viewBox="0 0 4217 2614" fill="none" xmlns="http://www.w3.org/2000/svg">
<path d="M1118.28 853.994L3332.98 57.3962C3387.18 37.8994 3446.86 66.5466 3465.54 121.036L3945.76 1521.36C3964.58 1576.25 3934.47 1635.86 3879.12 1653.29L1261.28 2477.37C1195.01 2498.23 1127.47 2448.99 1127.07 2379.52L1118.28 853.994Z" fill="#1B264B"/>
<path d="M1361.98 896.492L3576.84 100.309C3631.04 80.8248 3690.7 109.473 3709.39 163.955L4182.67 1544.05C4201.49 1598.93 4171.39 1658.53 4116.06 1675.97L1499.06 2500.72C1432.63 2521.66 1364.95 2472.13 1364.82 2402.48L1361.98 896.492Z" fill="#1B264B"/>
<path d="M1338.83 2258.39C1357.32 2230.88 1340.4 2203.7 1312.1 2177.75L1341.45 2142.47L1317.97 2124.23L1289.4 2158.54C1283.23 2153.75 1276.83 2148.96 1270.45 2144.19L1299.2 2109.6L1275.77 2091.4L1246.42 2126.66C1241.26 2122.81 1236.19 2119.01 1231.32 2115.23L1231.38 2115.1L1199.04 2089.92L1179.92 2112.87C1179.92 2112.87 1197.51 2126.04 1196.98 2126.11C1206.49 2133.5 1205.39 2140.95 1202.67 2146.01L1169.25 2186.19C1170.08 2186.83 1170.86 2187.53 1171.6 2188.27C1170.82 2187.66 1169.98 2187 1169.09 2186.31L1122.25 2242.61C1119.56 2245.02 1114.17 2248.02 1107.51 2242.87C1107.61 2243.34 1090.44 2229.6 1090.44 2229.6L1064.53 2251.7L1095.05 2275.43C1100.73 2279.86 1106.26 2284.3 1111.73 2288.59L1082.08 2324.25L1105.53 2342.48L1134.9 2307.18C1141.24 2312.3 1147.43 2317.2 1153.52 2321.92L1124.28 2357.06L1147.76 2375.3L1177.38 2339.71C1218.59 2368.31 1253.78 2380.68 1285.42 2349.45C1310.9 2324.29 1306.99 2301.21 1288.68 2278.87C1307.52 2283.09 1325.34 2278.55 1338.83 2258.39ZM1242.52 2309.16C1220.36 2335.84 1172.95 2294.01 1157.05 2281.63L1196.38 2234.36C1212.28 2246.76 1265.69 2281.36 1242.52 2309.16ZM1287.08 2233.97C1266.89 2258.23 1227.61 2223.04 1214.36 2212.74L1250.04 2169.84C1263.28 2180.17 1308.12 2208.67 1287.08 2233.97V2233.97Z" fill="#F7931A" fill-opacity="0.1"/>
<path d="M2014.9 1334.41C2002.49 1312.07 1978.61 1313.39 1951.8 1322.74L1937.75 1290.34L1917.72 1299.29L1931.38 1330.81C1926.11 1333.17 1920.77 1335.68 1915.46 1338.18L1901.68 1306.43L1881.68 1315.36L1895.72 1347.76C1891.42 1349.78 1887.19 1351.76 1883.04 1353.62L1882.98 1353.53L1855.34 1365.84L1864.47 1386.93C1864.47 1386.93 1879.15 1380.05 1879.02 1380.43C1887.13 1376.8 1891.79 1380.26 1894.3 1383.91L1910.29 1420.81C1911 1420.49 1911.73 1420.22 1912.47 1420C1911.8 1420.3 1911.09 1420.61 1910.33 1420.96L1932.74 1472.66C1933.48 1475.33 1933.72 1480.01 1928.05 1482.56C1928.4 1482.67 1913.48 1489.06 1913.48 1489.06L1919.8 1514.36L1945.85 1502.73C1950.7 1500.57 1955.51 1498.52 1960.21 1496.45L1974.41 1529.19L1994.43 1520.25L1980.37 1487.83C1985.92 1485.49 1991.25 1483.15 1996.44 1480.83L2010.43 1513.1L2030.47 1504.15L2016.3 1471.46C2049.15 1454.5 2069.11 1435.62 2058.54 1403.17C2050.03 1377.05 2033.2 1371.21 2012.12 1375.24C2021.18 1364.25 2024.01 1350.74 2014.9 1334.41ZM2017.25 1416.99C2027.89 1441.47 1984.08 1457.72 1970.49 1463.77L1951.67 1420.36C1965.27 1414.31 2006.2 1391.43 2017.25 1416.99ZM1981.37 1359.9C1991.03 1382.18 1954.37 1395.45 1943.07 1400.51L1925.98 1361.12C1937.31 1356.08 1971.3 1336.67 1981.37 1359.9V1359.9Z" fill="#F7931A" fill-opacity="0.1"/>
<path d="M3181.2 1646.99C3168.79 1624.66 3144.91 1625.98 3118.1 1635.32L3104.05 1602.92L3084.02 1611.88L3097.68 1643.4C3092.41 1645.75 3087.07 1648.26 3081.76 1650.76L3067.98 1619.02L3047.98 1627.95L3062.02 1660.34C3057.72 1662.37 3053.49 1664.35 3049.34 1666.2L3049.28 1666.12L3021.64 1678.43L3030.77 1699.52C3030.77 1699.52 3045.45 1692.63 3045.32 1693.01C3053.43 1689.39 3058.09 1692.84 3060.59 1696.5L3076.59 1733.39C3077.3 1733.08 3078.03 1732.81 3078.77 1732.59C3078.1 1732.89 3077.38 1733.2 3076.63 1733.54L3099.04 1785.25C3099.78 1787.92 3100.01 1792.6 3094.35 1795.14C3094.7 1795.25 3079.78 1801.65 3079.78 1801.65L3086.09 1826.94L3112.15 1815.32C3117 1813.16 3121.81 1811.1 3126.51 1809.04L3140.71 1841.77L3160.73 1832.83L3146.67 1800.41C3152.21 1798.07 3157.55 1795.74 3162.74 1793.42L3176.73 1825.69L3196.77 1816.74L3182.59 1784.04C3215.45 1767.09 3235.4 1748.2 3224.84 1715.76C3216.33 1689.63 3199.5 1683.8 3178.42 1687.82C3187.48 1676.84 3190.31 1663.32 3181.2 1646.99ZM3183.55 1729.57C3194.18 1754.05 3150.38 1770.3 3136.79 1776.36L3117.97 1732.94C3131.57 1726.9 3172.5 1704.02 3183.55 1729.57ZM3147.67 1672.49C3157.33 1694.77 3120.67 1708.04 3109.36 1713.09L3092.28 1673.7C3103.6 1668.67 3137.59 1649.26 3147.67 1672.49V1672.49Z" fill="#F7931A" fill-opacity="0.1"/>
<path d="M3012.84 2069.99C2960.95 2078.81 2947.18 2126.11 2946.98 2184.6L2874.42 2189.72L2878.11 2234.78L2948.7 2229.81C2949.67 2241.66 2950.89 2253.74 2952.11 2265.78L2881 2270.83L2884.68 2315.79L2957.22 2310.68C2958.21 2320.42 2959.17 2330 2959.93 2339.33L2959.73 2339.4L2964.74 2401.51L3011.96 2398.2C3011.96 2398.2 3008.62 2364.98 3009.27 2365.48C3007.78 2347.24 3017.68 2340.57 3026.5 2338.2L3109.13 2332.37C3109 2330.77 3108.97 2329.17 3109.05 2327.58C3109.17 2329.08 3109.3 2330.69 3109.44 2332.4L3225.24 2324.23C3230.93 2324.62 3240.19 2327.36 3241.25 2340.12C3241.71 2339.51 3243.92 2372.87 3243.92 2372.87L3297.4 2377.92L3292.64 2319.34C3291.76 2308.43 3291.06 2297.68 3290.26 2287.14L3363.58 2281.95L3359.91 2236.94L3287.31 2242.06C3286.55 2229.69 3285.67 2217.72 3284.7 2206.05L3356.98 2200.95L3353.3 2155.9L3280.08 2161.06C3269.62 2085.62 3246.58 2033.93 3176.31 2032.26C3119.72 2030.91 3096.87 2059.62 3090.26 2103.33C3075.12 2078.21 3050.8 2063.46 3012.84 2069.99ZM3174.9 2121.93C3229.74 2118.02 3231.34 2214.25 3233.8 2244.79L3136.57 2251.65C3134.14 2221.1 3117.68 2125.92 3174.9 2121.93ZM3039.43 2152.58C3089.33 2149.07 3090.03 2229.37 3092.12 2254.79L3003.89 2261.04C3001.85 2235.58 2987.4 2156.26 3039.43 2152.58Z" fill="#F7931A" fill-opacity="0.04"/>
<path d="M1326.44 122.869L100.152 517.346C45.1522 535.039 15.386 594.43 34.1276 649.081L364.31 1611.9C383.229 1667.07 444.063 1695.61 498.584 1674.91L1862.6 1156.91C1924.54 1133.39 1948.59 1058.44 1911.9 1003.27L1326.44 122.869Z" fill="white" fill-opacity="0.04"/>
<path d="M1704.56 520.183L479.891 921.006C425.177 938.914 395.69 998.122 414.365 1052.58L639.244 1708.33C658.048 1763.17 718.314 1791.76 772.683 1771.65L2129.02 1269.92C2194.98 1245.52 2217.75 1163.75 2173.91 1108.77L1704.56 520.183Z" fill="white" fill-opacity="0.04"/>
<path opacity="0.1" d="M2387.44 1660.54C2430.25 1635.44 2497.45 1630.32 2558.61 1632.33C2750.73 1638.6 2924.16 1699.62 3074.16 1768.65C3128.47 1793.64 3181.93 1820.58 3217.18 1854.99C3288.94 1925.04 3267.65 2022.08 3167.88 2079.79C3133.92 2099.43 3092.77 2114.54 3050.52 2127.81C2975.37 2151.55 2894.35 2170.58 2809.08 2176.07C2748.28 2179.92 2686.72 2176.78 2626.28 2171.38C2457.4 2156.26 2291.64 2123.04 2152.7 2065.93C2091.75 2040.94 2034.32 2009.85 2009.23 1969.38C1984.14 1928.92 2000.18 1877.68 2062.41 1853.73C2088.16 1843.84 2118.92 1839.36 2149.04 1835.17C2193.38 1828.99 2238.43 1822.88 2278.45 1810.32C2319.78 1797.34 2368.72 1772.23 2360.54 1743.5C2351.72 1712.67 2344.69 1685.61 2387.44 1660.54Z" fill="#6C63FF"/>
<path opacity="0.1" d="M2148.58 1845.87C2172.09 1845.87 2191.15 1841.67 2191.15 1836.49C2191.15 1831.3 2172.09 1827.1 2148.58 1827.1C2125.06 1827.1 2106 1831.3 2106 1836.49C2106 1841.67 2125.06 1845.87 2148.58 1845.87Z" fill="#6C63FF"/>
<path opacity="0.1" d="M3050.64 2039.99C3074.15 2039.99 3093.21 2035.79 3093.21 2030.61C3093.21 2025.42 3074.15 2021.22 3050.64 2021.22C3027.13 2021.22 3008.06 2025.42 3008.06 2030.61C3008.06 2035.79 3027.13 2039.99 3050.64 2039.99Z" fill="#6C63FF"/>
<path opacity="0.1" d="M2567.45 1819.46C2583.02 1819.46 2595.64 1817.36 2595.64 1814.76C2595.64 1812.17 2583.02 1810.06 2567.45 1810.06C2551.88 1810.06 2539.26 1812.17 2539.26 1814.76C2539.26 1817.36 2551.88 1819.46 2567.45 1819.46Z" fill="#6C63FF"/>
<path opacity="0.1" d="M2751.37 1934.66C2766.94 1934.66 2779.56 1932.56 2779.56 1929.96C2779.56 1927.37 2766.94 1925.26 2751.37 1925.26C2735.8 1925.26 2723.18 1927.37 2723.18 1929.96C2723.18 1932.56 2735.8 1934.66 2751.37 1934.66Z" fill="#6C63FF"/>
<path opacity="0.1" d="M2508.04 1903.65C2523.61 1903.65 2536.23 1901.54 2536.23 1898.95C2536.23 1896.35 2523.61 1894.25 2508.04 1894.25C2492.47 1894.25 2479.85 1896.35 2479.85 1898.95C2479.85 1901.54 2492.47 1903.65 2508.04 1903.65Z" fill="#6C63FF"/>
<path opacity="0.1" d="M2280.01 1891.45C2295.57 1891.45 2308.2 1889.35 2308.2 1886.75C2308.2 1884.16 2295.57 1882.05 2280.01 1882.05C2264.44 1882.05 2251.81 1884.16 2251.81 1886.75C2251.81 1889.35 2264.44 1891.45 2280.01 1891.45Z" fill="#6C63FF"/>
<path opacity="0.1" d="M2220.58 1975.64C2236.15 1975.64 2248.77 1973.53 2248.77 1970.94C2248.77 1968.34 2236.15 1966.24 2220.58 1966.24C2205.01 1966.24 2192.39 1968.34 2192.39 1970.94C2192.39 1973.53 2205.01 1975.64 2220.58 1975.64Z" fill="#6C63FF"/>
<path opacity="0.1" d="M2864.12 1826.08C2902.72 1826.08 2934.01 1817.68 2934.01 1807.32C2934.01 1796.96 2902.72 1788.56 2864.12 1788.56C2825.52 1788.56 2794.22 1796.96 2794.22 1807.32C2794.22 1817.68 2825.52 1826.08 2864.12 1826.08Z" fill="#6C63FF"/>
<path d="M2122.27 1810.1C2122.27 1810.1 2135.42 1809.5 2139.37 1805.29C2143.32 1801.09 2159.57 1796.06 2160.56 1802.8C2161.54 1809.55 2180.3 1836.34 2165.46 1836.52C2150.62 1836.71 2131 1833.07 2127.04 1829.48C2123.08 1825.9 2122.27 1810.1 2122.27 1810.1Z" fill="#A8A8A8"/>
<path opacity="0.2" d="M2165.73 1834.13C2150.91 1834.31 2131.27 1830.69 2127.33 1827.11C2124.32 1824.36 2123.12 1814.56 2122.71 1810.03H2122.27C2122.27 1810.03 2123.11 1825.83 2127.06 1829.41C2131 1832.99 2150.64 1836.61 2165.47 1836.45C2169.75 1836.45 2171.22 1834.13 2171.15 1830.76C2170.55 1832.87 2168.92 1834.13 2165.73 1834.13Z" fill="black"/>
<path d="M3056.13 1944.74C3056.13 1944.74 3061.04 1954.32 3053.86 1968.78C3046.69 1983.25 3040.77 1995.44 3043.16 2004.46C3043.16 2004.46 3053.99 1977.61 3062.78 1977.23C3071.57 1976.85 3065.82 1960.9 3056.13 1944.74Z" fill="#FC6681"/>
<path opacity="0.1" d="M3056.13 1944.74C3056.56 1945.67 3056.89 1946.68 3057.12 1947.75C3065.71 1962.82 3070.32 1976.88 3062.03 1977.23C3054.33 1977.56 3045.09 1998.09 3042.88 2003.29C3042.95 2003.68 3043.04 2004.08 3043.14 2004.46C3043.14 2004.46 3053.97 1977.61 3062.76 1977.23C3071.56 1976.85 3065.82 1960.9 3056.13 1944.74Z" fill="black"/>
<path d="M3065.25 1956.95C3065.25 1960.32 3065 1963.06 3064.69 1963.06C3064.38 1963.06 3064.12 1960.32 3064.12 1956.95C3064.12 1953.59 3064.44 1955.12 3064.75 1955.12C3065.06 1955.12 3065.25 1953.57 3065.25 1956.95Z" fill="#FFD037"/>
<path d="M3068.4 1960.97C3066.41 1962.58 3064.72 1963.55 3064.52 1963.15C3064.32 1962.75 3065.87 1961.1 3067.84 1959.49C3069.82 1957.88 3069.07 1959.05 3069.2 1959.49C3069.34 1959.93 3070.38 1959.36 3068.4 1960.97Z" fill="#FFD037"/>
<path d="M3030.19 1944.74C3030.19 1944.74 3025.28 1954.32 3032.46 1968.78C3039.63 1983.25 3045.55 1995.44 3043.16 2004.46C3043.16 2004.46 3032.32 1977.61 3023.54 1977.23C3014.76 1976.85 3020.49 1960.9 3030.19 1944.74Z" fill="#FC6681"/>
<path opacity="0.1" d="M3030.19 1944.74C3029.76 1945.67 3029.42 1946.68 3029.18 1947.75C3020.6 1962.82 3016 1976.88 3024.28 1977.23C3031.98 1977.56 3041.22 1998.09 3043.43 2003.29C3043.36 2003.67 3043.27 2004.07 3043.17 2004.46C3043.17 2004.46 3032.33 1977.61 3023.55 1977.23C3014.77 1976.85 3020.49 1960.9 3030.19 1944.74Z" fill="black"/>
<path d="M3021.05 1956.95C3021.05 1960.32 3021.31 1963.06 3021.63 1963.06C3021.94 1963.06 3022.19 1960.32 3022.19 1956.95C3022.19 1953.59 3021.87 1955.12 3021.55 1955.12C3021.23 1955.12 3021.05 1953.57 3021.05 1956.95Z" fill="#FFD037"/>
<path d="M3017.92 1960.97C3019.91 1962.58 3021.6 1963.55 3021.79 1963.15C3021.97 1962.75 3020.45 1961.1 3018.46 1959.49C3016.48 1957.88 3017.24 1959.05 3017.12 1959.49C3016.99 1959.93 3015.94 1959.36 3017.92 1960.97Z" fill="#FFD037"/>
<path d="M3022.62 2003.21C3022.62 2003.21 3036.35 2002.57 3040.48 1998.18C3044.62 1993.8 3061.61 1988.55 3062.64 1995.59C3063.67 2002.63 3083.27 2030.64 3067.77 2030.82C3052.27 2031.01 3031.74 2027.17 3027.62 2023.51C3023.5 2019.85 3022.62 2003.21 3022.62 2003.21Z" fill="#A8A8A8"/>
<path opacity="0.2" d="M3068.05 2028.37C3052.54 2028.56 3032.02 2024.72 3027.89 2021.06C3024.75 2018.21 3023.49 2007.95 3023.07 2003.21H3022.62C3022.62 2003.21 3023.49 2019.67 3027.62 2023.47C3031.75 2027.28 3052.27 2031.01 3067.77 2030.79C3072.24 2030.79 3073.79 2028.36 3073.7 2024.84C3073.09 2027 3071.37 2028.34 3068.05 2028.37Z" fill="black"/>
<path opacity="0.1" d="M3162.86 1662.02C3125.26 1709.87 3139.83 1779.82 3163.76 1835.81C3171.73 1854.56 3180.84 1874.39 3177.43 1894.5C3173.29 1919.08 3151.35 1937.07 3128.31 1946.59C3086.3 1963.97 3036.03 1959.82 2997.46 1935.82C2964.1 1915.07 2940.23 1881.33 2906.32 1861.53C2849.56 1828.39 2777.31 1840.9 2715.67 1863.73C2672.06 1879.88 2624.39 1900.88 2581.05 1884.01C2550.56 1872.12 2529.48 1843.22 2518 1812.58C2512.45 1797.77 2508.43 1781.82 2497.85 1770.04C2491.55 1763.07 2483.33 1758.13 2474.93 1753.95C2398.09 1715.86 2301.04 1736.25 2226.4 1694C2175.99 1665.46 2143.73 1611.63 2129.43 1555.5C2115.14 1499.37 2116.81 1440.51 2120.43 1382.7C2123.01 1341.62 2127.63 1297.76 2153.89 1266.04C2181.67 1232.51 2229.32 1220.03 2272.37 1226.4C2315.42 1232.77 2354.48 1255.52 2388.87 1282.27C2431.81 1315.71 2471.61 1357.36 2524.32 1370.92C2560.22 1380.14 2597.98 1375.1 2634.99 1373.34C2696.88 1370.42 2758.8 1376.92 2820.35 1384.04C2879.27 1390.88 2938.62 1398.35 2994.76 1417.52C3034.48 1431.09 3066.33 1455.71 3103.84 1472.91C3128.28 1484.12 3154.95 1487.22 3178.1 1501.5C3206.58 1519.09 3232.78 1549.69 3225.46 1585.51C3218.51 1619.54 3182.84 1636.62 3162.86 1662.02Z" fill="#6C63FF"/>
<path d="M2988.89 1831.66C2984.41 1826.4 2979.34 1821.68 2973.76 1817.6C2974.92 1816.76 2976.06 1815.91 2977.18 1815.06C2991.56 1804.38 3003.87 1793.42 3006.51 1785.55C3013.58 1764.67 3086 1726.39 3086 1726.39C3086 1726.39 3011.81 1740.31 2972.95 1717.69C2949.77 1704.19 2914.01 1701.84 2888.94 1702.15L2889.12 1701.71L2889.46 1700.96C2889.66 1700.54 2889.85 1700.13 2890.06 1699.71C2890.26 1699.29 2890.39 1699.03 2890.57 1698.68L2890.72 1698.41C2890.98 1697.91 2891.25 1697.41 2891.54 1696.91C2892.23 1695.68 2892.97 1694.45 2893.76 1693.22V1693.15C2895.78 1690.03 2897.97 1687.04 2900.33 1684.17L2900.42 1684.06C2902.3 1681.78 2904.26 1679.5 2906.23 1677.41L2906.35 1677.29L2907.74 1675.82L2907.96 1675.59C2909.84 1673.62 2911.72 1671.75 2913.55 1670.01L2913.97 1669.61L2915.11 1668.57L2915.63 1668.08L2916.64 1667.14L2917.18 1666.65L2918.69 1665.28L2919.51 1664.55L2920.13 1664.02L2921.03 1663.23L2921.49 1662.84L2922.62 1661.84L2922.73 1661.75C2926.41 1658.61 2928.83 1656.77 2928.83 1656.77H2928.78C2927.61 1657.61 2926.39 1658.37 2925.12 1659.05L2924.95 1659.13L2923.81 1659.7L2923.49 1659.85L2922.48 1660.3L2921.91 1660.53L2921.11 1660.86L2920.33 1661.15L2919.71 1661.38L2918.73 1661.71L2918.27 1661.85L2917.02 1662.23L2916.81 1662.29L2915.33 1662.69C2889.57 1669.33 2852.94 1659.51 2849.58 1658.57L2849.36 1658.52C2849.36 1658.52 2834.65 1655.47 2815.58 1652.74C2824.42 1634.65 2833.27 1617.63 2841.47 1602.48C2848.54 1617.97 2860.57 1630.67 2875.64 1638.59C2876.21 1637.95 2876.78 1637.29 2877.26 1636.63C2878.97 1637.61 2879.99 1638.08 2879.99 1638.08C2884.77 1632.61 2888.1 1626.02 2889.67 1618.92C2894.57 1623.57 2900.12 1627.5 2906.13 1630.58C2906.62 1630.03 2907.1 1629.46 2907.55 1628.89C2908.25 1629.25 2908.62 1629.43 2908.62 1629.43C2918.16 1618.69 2920.69 1604.81 2919.62 1590.7C2937.34 1597.45 2956.91 1597.53 2974.7 1590.94C2974.7 1590.87 2974.7 1590.79 2974.7 1590.72C2976.34 1590.16 2977.24 1589.78 2977.24 1589.78C2975.8 1579.22 2970.4 1570.41 2963.07 1563.1C2997.1 1563.8 3015.47 1542.71 3015.47 1542.71L3015.27 1542.44C3016.68 1541.13 3017.38 1540.33 3017.38 1540.33C3012.88 1533.99 3007.21 1528.57 3000.66 1524.38C3016.2 1515.18 3022.93 1503.28 3022.93 1503.28C3022.54 1502.91 3022.13 1502.56 3021.79 1502.21C3022.65 1500.98 3023.07 1500.24 3023.07 1500.24C3022.21 1499.43 3021.32 1498.67 3020.44 1497.96C3021.02 1497.08 3021.3 1496.58 3021.3 1496.58C3007.63 1483.72 2989.49 1479.08 2971.51 1478.55C2982.38 1466.47 2989.07 1451.21 2990.59 1435.03C2976.92 1430.58 2962.95 1433.65 2950.24 1440.05C2951.28 1428.24 2949.57 1416.34 2945.25 1405.29C2948.74 1407.97 2952.49 1410.29 2956.45 1412.21C2956.93 1411.65 2957.4 1411.08 2957.85 1410.49C2958.54 1410.85 2958.99 1411.02 2958.99 1411.02C2968.35 1400.13 2970.65 1386.22 2969.37 1372.17C2987.19 1378.64 3006.77 1378.42 3024.45 1371.55V1371.34C3026.07 1370.76 3026.96 1370.36 3026.96 1370.36C3025.36 1359.82 3019.87 1351.1 3012.37 1343.9C3046.41 1344.08 3064.44 1322.7 3064.44 1322.7L3064.24 1322.43C3065.62 1321.1 3066.31 1320.28 3066.31 1320.28C3061.71 1314.03 3055.94 1308.73 3049.34 1304.65C3064.73 1295.22 3071.27 1283.21 3071.27 1283.21C3070.87 1282.85 3070.46 1282.5 3070.06 1282.15C3070.89 1280.9 3071.3 1280.16 3071.3 1280.16C3070.43 1279.36 3069.53 1278.61 3068.63 1277.88C3069.2 1276.99 3069.49 1276.49 3069.49 1276.49C3055.62 1263.84 3037.41 1259.48 3019.36 1259.23C3030.04 1246.98 3036.48 1231.63 3037.74 1215.43C3023.96 1211.18 3010.09 1214.48 2997.48 1221.13C2998.46 1208.26 2996.1 1195.37 2990.65 1183.68C2989.71 1183.87 2988.8 1184.1 2987.9 1184.34C2987.68 1183.89 2987.56 1183.66 2987.56 1183.66C2987.19 1182.86 2986.97 1182.43 2986.97 1182.43C2971.33 1185.58 2960.1 1196.85 2952.13 1210.38C2951.54 1211.39 2950.99 1212.4 2950.41 1213.42C2944.48 1198.79 2934.17 1186.35 2920.9 1177.79C2909.25 1188.78 2905.89 1204.41 2906.53 1220.23C2906.53 1221.3 2906.64 1222.37 2906.71 1223.44C2893.37 1213.02 2877.02 1207.21 2860.09 1206.87C2857.69 1216.26 2858.83 1225.5 2862.13 1234.21C2850.73 1232.46 2839.07 1233.27 2828.02 1236.6C2828.02 1236.74 2828.02 1236.89 2828.02 1237.04C2826.39 1237.47 2825.49 1237.79 2825.49 1237.79C2826.38 1251.03 2833.46 1261.98 2843.22 1270.83C2828.22 1273.05 2814.19 1279.61 2802.86 1289.7C2803.24 1290.37 2803.62 1291.02 2804 1291.65C2803.2 1292.35 2802.79 1292.79 2802.79 1292.79C2809.75 1305.08 2821.93 1312.08 2835.52 1315.87C2821.69 1324.13 2810.82 1336.55 2804.46 1351.36C2804.79 1351.59 2805.12 1351.8 2805.45 1352.03C2804.75 1353.53 2804.43 1354.41 2804.43 1354.41C2816.04 1362.68 2830.12 1363.95 2844.1 1361.7C2841.84 1369.74 2840.9 1378.09 2841.3 1386.43C2832.72 1398.47 2824.02 1411.07 2815.43 1423.82C2813.88 1423.73 2813.01 1423.74 2813.01 1423.74C2812.55 1425.47 2812.19 1427.22 2811.95 1428.99C2807.21 1436.06 2802.52 1443.14 2797.91 1450.17C2792.02 1450.37 2786.18 1451.32 2780.53 1452.98C2780.53 1453.13 2780.53 1453.28 2780.53 1453.43C2778.91 1453.84 2777.99 1454.13 2777.99 1454.13C2777.99 1454.32 2777.99 1454.5 2777.99 1454.68C2770.36 1444.37 2759.68 1436.66 2748.16 1430.91C2763.2 1424.53 2775.83 1413.54 2784.2 1399.51C2773.71 1389.74 2759.78 1386.69 2745.47 1387.17C2752.08 1376.09 2755.72 1363.49 2756.04 1350.58C2755.12 1350.34 2754.2 1350.16 2753.27 1349.99C2753.27 1349.49 2753.27 1349.23 2753.27 1349.23C2753.27 1348.35 2753.27 1347.87 2753.27 1347.87C2737.81 1343.93 2722.72 1349.2 2709.51 1357.91C2708.53 1358.56 2707.56 1359.22 2706.6 1359.9C2707.81 1344.23 2704.1 1328.58 2695.98 1315.12C2680.6 1319.96 2670.63 1332.54 2664.15 1347.02C2663.71 1348 2663.3 1348.99 2662.89 1349.99C2655.54 1334.85 2643.42 1322.53 2628.4 1314.94C2622.05 1322.33 2618.96 1331.13 2618.03 1340.4C2608.53 1333.88 2597.7 1329.56 2586.31 1327.78L2586.15 1328.2C2584.5 1327.88 2583.55 1327.78 2583.55 1327.78C2578.44 1340.06 2579.97 1352.97 2584.69 1365.15C2570.2 1360.7 2554.74 1360.52 2540.17 1364.65C2540.17 1365.41 2540.27 1366.17 2540.36 1366.93C2539.33 1367.21 2538.79 1367.4 2538.79 1367.4C2539.56 1381.45 2547.38 1393.01 2557.9 1402.29C2541.79 1403.74 2526.52 1410.18 2514.23 1420.7C2514.42 1421.05 2514.63 1421.38 2514.82 1421.72C2513.53 1422.77 2512.85 1423.42 2512.85 1423.42C2519.59 1435.87 2531.68 1443.11 2545.22 1447.14C2537.37 1455.75 2531.62 1466.07 2528.44 1477.28C2529.47 1477.83 2530.49 1478.32 2531.54 1478.79C2531.31 1479.57 2531.21 1480.02 2531.21 1480.02C2545.74 1487.87 2562.36 1486.01 2577.8 1480.31C2573.12 1512.75 2592.41 1535.63 2592.41 1535.63C2593.2 1535.29 2593.97 1534.93 2594.69 1534.49C2595.83 1536.09 2596.52 1536.94 2596.52 1536.94C2603.23 1534 2609.11 1529.43 2613.61 1523.65C2616.04 1529.91 2619.37 1535.79 2623.49 1541.1C2624.18 1540.8 2624.85 1540.49 2625.51 1540.15C2625.98 1540.77 2626.25 1541.1 2626.25 1541.1C2632.96 1538.18 2638.83 1533.63 2643.34 1527.86C2644.86 1561.08 2646.16 1615.88 2642.4 1672.39C2640.12 1706.89 2635.94 1742.03 2628.73 1773.31C2615.66 1719.26 2598.81 1653.78 2581.76 1599.31C2563.17 1539.93 2527.35 1483.22 2494.12 1430.39C2470.41 1392.72 2440.38 1346.5 2412.22 1307.56C2438.36 1316.24 2458.93 1307.12 2458.93 1307.12C2458.93 1307.12 2458.93 1306.91 2458.86 1306.8C2460.7 1306.21 2461.69 1305.77 2461.69 1305.77C2460.34 1298.17 2457.53 1290.9 2453.41 1284.37C2471.44 1282.56 2482.67 1274.6 2482.67 1274.6C2482.48 1274.1 2482.26 1273.62 2482.06 1273.13C2483.37 1272.37 2484.06 1271.88 2484.06 1271.88C2483.63 1270.74 2483.16 1269.72 2482.67 1268.68C2483.58 1268.13 2484.06 1267.79 2484.06 1267.79C2477.23 1250.43 2462.82 1238.62 2446.76 1230.61C2461.81 1224.24 2474.43 1213.25 2482.81 1199.22C2472.32 1189.44 2458.38 1186.4 2444.08 1186.88C2450.71 1175.82 2454.37 1163.23 2454.73 1150.34C2453.8 1150.1 2452.88 1149.92 2451.96 1149.74C2451.96 1149.24 2451.96 1148.98 2451.96 1148.98C2451.96 1148.1 2451.96 1147.63 2451.96 1147.63C2436.5 1143.68 2421.41 1148.96 2408.19 1157.66C2407.21 1158.31 2406.24 1158.97 2405.29 1159.66C2406.5 1143.99 2402.79 1128.33 2394.67 1114.87C2379.29 1119.72 2369.31 1132.29 2362.84 1146.77C2362.4 1147.75 2361.99 1148.74 2361.58 1149.74C2354.22 1134.6 2342.11 1122.29 2327.08 1114.69C2320.74 1122.08 2317.65 1130.88 2316.71 1140.15C2307.21 1133.63 2296.37 1129.32 2284.99 1127.53L2284.83 1127.95C2283.18 1127.63 2282.22 1127.53 2282.22 1127.53C2277.12 1139.81 2278.64 1152.73 2283.36 1164.91C2268.83 1160.42 2253.31 1160.25 2238.68 1164.41C2238.68 1165.17 2238.78 1165.92 2238.87 1166.68C2237.85 1166.97 2237.3 1167.15 2237.3 1167.15C2238.08 1181.21 2245.89 1192.76 2256.42 1202.04C2240.3 1203.51 2225.05 1209.96 2212.76 1220.49C2212.96 1220.84 2213.16 1221.17 2213.36 1221.51C2212.07 1222.56 2211.39 1223.21 2211.39 1223.21C2218.13 1235.66 2230.22 1242.9 2243.76 1246.93C2235.91 1255.54 2230.16 1265.86 2226.98 1277.07C2228.01 1277.62 2229.03 1278.11 2230.08 1278.57C2229.85 1279.36 2229.75 1279.8 2229.75 1279.8C2244.27 1287.65 2260.89 1285.8 2276.34 1280.1C2271.66 1312.53 2290.95 1335.42 2290.95 1335.42C2291.73 1335.08 2292.51 1334.71 2293.22 1334.28C2294.36 1335.88 2295.06 1336.73 2295.06 1336.73C2301.77 1333.79 2307.64 1329.22 2312.15 1323.44C2314.59 1329.73 2317.94 1335.63 2322.08 1340.96C2322.77 1340.66 2323.45 1340.35 2324.11 1340.01C2324.58 1340.63 2324.85 1340.96 2324.85 1340.96C2338.11 1335.26 2346.38 1323.73 2351.49 1310.55C2370.1 1330.07 2393.76 1333.24 2399.8 1333.75C2434.43 1382.66 2476.47 1446.23 2503.19 1501.11C2503.19 1501.11 2558.15 1607.32 2593.18 1718.64C2575.38 1699.85 2551.03 1672.57 2545.58 1658.6C2536.75 1635.97 2427.24 1658.6 2427.24 1658.6L2427.02 1658.65C2423.6 1659.59 2387.04 1669.41 2361.27 1662.77L2359.81 1662.37L2359.61 1662.31L2358.35 1661.93L2357.9 1661.79L2356.92 1661.45L2356.29 1661.23L2355.52 1660.94L2354.72 1660.61L2354.15 1660.38L2353.13 1659.93L2352.82 1659.78L2351.68 1659.21L2351.51 1659.13C2350.24 1658.45 2349.02 1657.69 2347.85 1656.85V1656.85H2347.79C2357.73 1664.63 2366.88 1673.36 2375.13 1682.91L2375.39 1683.22L2376.83 1684.98L2377.21 1685.45C2377.68 1686.04 2378.14 1686.63 2378.6 1687.22L2378.87 1687.58C2379.39 1688.28 2379.91 1688.98 2380.42 1689.68L2380.79 1690.23C2381.15 1690.73 2381.5 1691.24 2381.84 1691.75L2382.43 1692.63L2383.2 1693.77L2383.82 1694.78L2384.46 1695.92C2384.67 1696.27 2384.88 1696.62 2385.08 1696.97L2385.16 1697.12C2385.49 1697.73 2385.82 1698.32 2386.13 1698.92L2386.44 1699.57C2386.71 1700.1 2386.96 1700.63 2387.2 1701.16L2387.46 1701.74L2387.66 1702.23C2362.6 1701.92 2326.83 1704.27 2303.65 1717.76C2264.79 1740.39 2190.61 1726.47 2190.61 1726.47C2190.61 1726.47 2263.02 1764.74 2270.09 1785.63C2272.91 1793.97 2286.69 1805.89 2302.25 1817.23L2305.6 1819.64C2301.03 1823.25 2296.83 1827.3 2293.07 1831.74C2257.75 1873.5 2172.96 1915.27 2172.96 1915.27H2173.21L2173.94 1915.33L2175.19 1915.45L2177.47 1915.66H2177.86C2196 1917.37 2259.88 1923.95 2296.33 1934.91C2297.64 1935.3 2298.92 1935.7 2300.15 1936.1C2310.75 1939.58 2370.78 1934.36 2411.43 1922.18C2412.57 1921.84 2413.71 1921.53 2414.84 1921.23L2415.86 1920.98C2416.71 1920.78 2417.56 1920.59 2418.42 1920.4L2419.44 1920.19C2420.57 1919.96 2421.71 1919.74 2422.85 1919.56H2422.83C2423.97 1919.37 2425.11 1919.21 2426.25 1919.06L2427.28 1918.93L2429.78 1918.66L2430.86 1918.56C2431.89 1918.47 2432.92 1918.39 2433.95 1918.34H2434.28C2435.42 1918.28 2436.48 1918.24 2437.58 1918.22H2438.72H2442.14H2444.49L2446.08 1918.27L2448.36 1918.39L2449.99 1918.5L2451.4 1918.61L2453.21 1918.77L2454.07 1918.87L2456.01 1919.07L2457.4 1919.24L2458.45 1919.38L2459.99 1919.59L2460.84 1919.72C2460.84 1919.96 2460.75 1920.22 2460.71 1920.47C2460.71 1920.47 2462.18 1928.66 2471.81 1936.67C2455.49 1941.36 2441.95 1946.76 2431.83 1952.62C2431.23 1952.95 2430.69 1953.3 2430.1 1953.64C2430.51 1953.64 2430.91 1953.55 2431.34 1953.52C2431.77 1953.49 2432.1 1953.52 2432.48 1953.52H2847.86C2848.25 1953.52 2848.62 1953.52 2849 1953.52C2849.38 1953.52 2849.81 1953.59 2850.22 1953.64C2850.55 1953.68 2850.89 1953.73 2851.22 1953.8C2851.58 1953.85 2851.93 1953.93 2852.28 1954.03C2851.52 1953.55 2850.76 1953.08 2850 1952.62C2837.36 1945.24 2819.36 1938.69 2797.31 1933.25C2803.93 1929.84 2807.62 1925.96 2809.16 1921.86C2810.46 1921.57 2811.78 1921.28 2813.16 1921.01C2818.55 1919.91 2824 1919.11 2829.47 1918.6L2831.75 1918.42L2832.89 1918.33C2845.55 1917.36 2858.28 1918.64 2870.48 1922.11C2911.11 1934.29 2971.15 1939.51 2981.76 1936.03C2982.99 1935.62 2984.27 1935.22 2985.58 1934.84C3021.95 1923.89 3085.82 1917.3 3104.05 1915.6H3104.44L3106.72 1915.38L3107.97 1915.27L3108.7 1915.2H3108.95C3108.95 1915.2 3024.22 1873.42 2988.89 1831.66ZM2940.19 1401.28L2939.61 1401.4C2939.61 1401.22 2939.69 1401.04 2939.72 1400.85L2940.19 1401.28ZM2768.3 1496.23C2765.8 1497.57 2763.61 1498.92 2761.76 1500.16C2760.18 1494.7 2757.85 1489.49 2754.83 1484.68C2763.81 1483.81 2772.54 1481.21 2780.53 1477.03C2776.31 1483.59 2772.23 1490.01 2768.3 1496.23ZM2775.98 1528.25C2779.48 1529.9 2783.1 1531.27 2786.81 1532.35C2778.08 1537.4 2770.43 1544.12 2764.3 1552.14C2767.89 1544.24 2771.81 1536.27 2775.98 1528.25ZM2663.43 1672.46C2666.64 1619.38 2668.6 1561.96 2665.86 1521.53C2676.88 1528.75 2689.54 1533.06 2702.67 1534.06L2702.73 1533.84C2704.45 1534.03 2705.43 1534.06 2705.43 1534.06C2708.67 1523.9 2707.64 1513.69 2704.11 1503.97C2719.78 1511.81 2737.76 1513.71 2754.73 1509.32C2755.55 1510.77 2756.46 1512.18 2757.44 1513.52C2735.4 1548.84 2720.4 1574.18 2720.4 1574.18C2705.12 1597.16 2679.94 1677.51 2657.06 1758.21C2659.18 1734.12 2661.52 1704.05 2663.43 1672.46ZM2731.01 1658.54C2726.8 1669.34 2711.32 1688.05 2696.28 1704.69C2716.01 1655.01 2735.79 1612.93 2746.83 1590.29C2749.96 1583.88 2752.97 1577.41 2755.94 1570.92C2767.27 1578.9 2781 1580.28 2794.67 1578.31C2791.28 1589.42 2790.53 1601.17 2792.48 1612.62C2793.62 1612.69 2794.76 1612.7 2795.9 1612.68C2796.04 1613.48 2796.13 1613.92 2796.13 1613.92C2801.34 1614.24 2806.56 1613.62 2811.55 1612.08C2805.47 1624.41 2799.38 1637.14 2793.4 1650.05C2764.94 1647.23 2735.43 1647.24 2731.03 1658.53L2731.01 1658.54ZM2941.16 1403.18C2940.95 1402.72 2940.83 1402.48 2940.83 1402.48C2940.6 1401.97 2940.43 1401.61 2940.34 1401.41C2940.94 1401.94 2941.54 1402.45 2942.13 1402.94L2941.16 1403.18ZM2862.42 1394.9C2872.12 1391.57 2880.73 1385.11 2888.15 1377.39C2893.24 1392.4 2902.92 1405.43 2915.82 1414.64C2911.67 1418.87 2908.04 1423.58 2904.99 1428.67C2904.39 1429.66 2903.85 1430.68 2903.22 1431.69C2897.52 1416.98 2887.42 1404.39 2874.29 1395.64C2862.45 1406.45 2858.85 1422.02 2859.24 1437.79C2859.24 1438.86 2859.32 1439.93 2859.38 1441.01C2852.92 1435.74 2845.63 1431.57 2837.81 1428.67C2846.23 1416.76 2854.58 1405.41 2862.45 1394.9H2862.42Z" fill="url(#paint0_linear)"/>
<path d="M2613.5 1742.01C2613.5 1742.01 2556.88 1685.39 2548.3 1663.1C2539.72 1640.8 2433.36 1663.1 2433.36 1663.1C2433.36 1663.1 2380.18 1678.53 2356.15 1661.38C2356.15 1661.38 2393.9 1690.54 2397.32 1714.55C2400.75 1738.57 2534.57 1800.33 2534.57 1800.33L2613.5 1874.1L2640.95 1858.66L2613.5 1742.01Z" fill="#6C63FF"/>
<path opacity="0.05" d="M2640.95 1858.67L2613.5 1874.1L2591.43 1853.52L2534.58 1800.34C2534.58 1800.34 2400.78 1738.53 2397.34 1714.61C2396.51 1709.79 2394.83 1705.16 2392.36 1700.94C2381.54 1681.3 2357.48 1662.42 2356.21 1661.43C2380.25 1678.52 2433.36 1663.12 2433.36 1663.12C2433.36 1663.12 2539.72 1640.81 2548.3 1663.12C2556.88 1685.42 2613.5 1742.03 2613.5 1742.03L2640.95 1858.67Z" fill="black"/>
<path opacity="0.1" d="M2604.92 1853.52H2591.43L2534.59 1800.34C2534.59 1800.34 2400.78 1738.53 2397.34 1714.61C2396.52 1709.79 2394.83 1705.16 2392.36 1700.94C2403.19 1700.9 2414.01 1701.44 2424.78 1702.57C2462.52 1740.31 2515.7 1759.19 2515.7 1759.19C2568.9 1724.86 2604.92 1853.52 2604.92 1853.52Z" fill="black"/>
<path d="M2603.21 1858.67H2538.01L2361.31 1851.84C2361.31 1851.84 2334.67 1836.34 2311.92 1819.52C2296.8 1808.35 2283.44 1796.59 2280.68 1788.36C2273.85 1767.78 2203.48 1730.03 2203.48 1730.03C2203.48 1730.03 2275.53 1743.7 2313.28 1721.46C2351.02 1699.21 2423.07 1707.79 2423.07 1707.79C2460.81 1745.53 2513.99 1764.4 2513.99 1764.4C2543.48 1745.38 2567.69 1776.47 2583.42 1807.93C2591.42 1824.26 2598.04 1841.23 2603.21 1858.67V1858.67Z" fill="#6C63FF"/>
<path d="M2663.2 1742.01C2663.2 1742.01 2719.82 1685.39 2728.39 1663.1C2736.97 1640.8 2843.34 1663.1 2843.34 1663.1C2843.34 1663.1 2896.52 1678.53 2920.54 1661.38C2920.54 1661.38 2882.8 1690.54 2879.37 1714.55C2875.94 1738.57 2742.12 1800.33 2742.12 1800.33L2663.2 1874.1L2635.74 1858.66L2663.2 1742.01Z" fill="#6C63FF"/>
<path opacity="0.05" d="M2920.53 1661.42C2919.26 1662.41 2895.21 1681.3 2884.38 1700.95C2881.91 1705.17 2880.22 1709.8 2879.4 1714.62C2875.99 1738.63 2742.16 1800.4 2742.16 1800.4L2685.26 1853.58L2663.2 1874.1L2635.74 1858.66L2663.2 1742.01C2663.2 1742.01 2719.82 1685.39 2728.39 1663.1C2736.97 1640.8 2843.34 1663.1 2843.34 1663.1C2843.34 1663.1 2896.49 1678.52 2920.53 1661.42Z" fill="black"/>
<path opacity="0.1" d="M2607.25 1837.64C2604.86 1839.86 2600.84 1841.71 2601.56 1844.9C2601.87 1845.97 2602.52 1846.91 2603.4 1847.59C2607.87 1851.55 2615.1 1854.64 2614.5 1860.58C2614.16 1864 2611.17 1866.43 2609.71 1869.5C2606.67 1875.93 2611.47 1884.12 2618.22 1886.33C2624.98 1888.54 2632.54 1885.94 2638.11 1881.51C2639.31 1880.55 2640.59 1879.47 2642.11 1879.47C2643.28 1879.63 2644.41 1879.98 2645.46 1880.51C2650.02 1882.08 2655.16 1878.6 2657.1 1874.14C2659.05 1869.69 2658.7 1864.61 2658.3 1859.76C2660.89 1861.96 2665.14 1860.77 2667.33 1858.16C2669.53 1855.55 2670.17 1852.03 2670.75 1848.68L2674.82 1825.2C2678.08 1824.26 2679.37 1819.86 2677.88 1816.82C2676.39 1813.78 2672.92 1812.11 2669.54 1811.79C2666.17 1811.47 2662.8 1812.24 2659.47 1812.88C2650.77 1814.55 2641.92 1815.31 2633.06 1815.15C2625.71 1815.01 2616.28 1805.94 2612.22 1814.01C2608.52 1821.24 2613.97 1831.41 2607.25 1837.64Z" fill="black"/>
<path opacity="0.1" d="M2884.38 1700.94C2881.91 1705.16 2880.22 1709.79 2879.4 1714.61C2875.99 1738.62 2742.16 1800.39 2742.16 1800.39L2685.26 1853.57H2670.11C2670.11 1853.57 2706.13 1724.86 2759.32 1759.16C2759.32 1759.16 2812.5 1740.29 2850.24 1702.55C2861.58 1701.37 2872.98 1700.84 2884.38 1700.94Z" fill="black"/>
<path d="M3073.31 1730C3073.31 1730 3002.97 1767.74 2996.1 1788.33C2993.53 1796.05 2981.57 1806.88 2967.62 1817.42C2944.33 1835.02 2915.48 1851.8 2915.48 1851.8L2738.78 1858.64H2673.54C2678.12 1843.14 2683.83 1828 2690.63 1813.34C2706.23 1780.2 2731.55 1744.23 2762.75 1764.31C2762.75 1764.31 2815.93 1745.44 2853.67 1707.69C2853.67 1707.69 2925.72 1699.12 2963.47 1721.36C3001.21 1743.61 3073.31 1730 3073.31 1730Z" fill="#6C63FF"/>
<path d="M2910.29 1334.57C2910.29 1334.57 2803.8 1458.28 2758.4 1563.54C2753.73 1574.38 2748.91 1585.19 2743.81 1595.77C2716.58 1652.43 2634.66 1832.72 2637.52 1945.5L2606.64 1952.07C2606.64 1952.07 2685.55 1629.55 2718.15 1579.8C2718.15 1579.8 2862.26 1332.75 2910.3 1308.74L2910.29 1334.57Z" fill="#635151"/>
<path d="M2662.79 1676.82C2660.92 1707.99 2658.64 1737.66 2656.62 1761.32C2656.23 1766.19 2655.82 1770.81 2655.49 1775.15C2653.35 1798.91 2651.81 1814.01 2651.81 1814.01V1814.11C2651.41 1821.53 2649.09 1832.82 2645.36 1846.87C2644.13 1851.52 2642.71 1856.47 2641.19 1861.68C2640.89 1862.62 2640.62 1863.58 2640.33 1864.54C2639.03 1868.93 2637.63 1873.48 2636.13 1878.21C2635.52 1880.13 2634.9 1882.08 2634.26 1884.06C2630.84 1894.75 2627.02 1906.14 2622.87 1918.01C2619.17 1928.73 2615.24 1939.84 2611.17 1951.15L2610.5 1952.98C2610.4 1953.26 2610.29 1953.55 2610.19 1953.84H2588.74C2588.83 1953.54 2588.91 1953.26 2588.98 1952.98C2592.26 1941.36 2595.28 1929.98 2598.09 1918.93C2600.91 1907.88 2603.58 1896.94 2605.96 1886.66C2606.94 1882.46 2607.89 1878.36 2608.79 1874.35C2609.09 1873.05 2609.37 1871.76 2609.64 1870.48C2609.78 1869.91 2609.91 1869.35 2610.02 1868.8C2610.64 1866.08 2611.22 1863.4 2611.77 1860.82C2612 1859.87 2612.21 1858.9 2612.41 1857.96L2612.93 1855.56C2614.21 1849.56 2615.4 1843.86 2616.48 1838.54C2617.37 1834.18 2618.18 1830.09 2618.93 1826.24C2619.99 1820.77 2620.93 1815.84 2621.72 1811.57C2624 1799.39 2625.14 1792.37 2625.14 1792.37C2625.19 1792.21 2625.23 1792.05 2625.26 1791.89C2626.65 1786.83 2627.94 1781.64 2629.12 1776.33C2636.08 1745.48 2640.15 1710.83 2642.37 1676.81C2648.23 1587.5 2641.45 1502.52 2641.45 1502.52L2656.64 1481.74C2669.5 1506.81 2667.55 1596.81 2662.79 1676.82Z" fill="#635151"/>
<path d="M2873.03 1542.1C2873.03 1542.1 2841.66 1592.78 2810.56 1657.4C2807.53 1663.75 2804.49 1670.2 2801.45 1676.77C2789.63 1702.26 2779.09 1728.33 2769.87 1754.88C2769 1757.43 2768.14 1759.99 2767.32 1762.53C2765.77 1767.29 2764.3 1772.02 2762.92 1776.71C2762.38 1778.54 2761.84 1780.37 2761.34 1782.2C2760.36 1785.66 2759.43 1789.1 2758.56 1792.51C2757.3 1797.5 2756.15 1802.44 2755.14 1807.32C2755.14 1807.32 2748.7 1827.15 2739.96 1858.58C2739.41 1860.61 2738.82 1862.66 2738.26 1864.78C2737.86 1866.23 2737.45 1867.73 2737.04 1869.24C2733.92 1880.86 2730.56 1893.73 2727.17 1907.56C2726.03 1912.3 2724.89 1917.13 2723.68 1922.1C2721.33 1932.03 2718.97 1942.38 2716.7 1953C2716.7 1953.29 2716.57 1953.56 2716.53 1953.85H2695.01C2695.01 1953.55 2695.1 1953.27 2695.13 1953C2696.61 1941.67 2698.1 1930.61 2699.69 1919.96C2700.77 1912.33 2701.89 1904.88 2703 1897.72C2704.96 1885.13 2706.97 1873.37 2708.96 1862.76C2709.23 1861.37 2709.5 1860 2709.75 1858.66C2709.75 1858.66 2709.75 1858.56 2709.75 1858.5C2711.96 1846.37 2714.85 1834.37 2718.39 1822.56C2719.28 1819.77 2720.31 1817.03 2721.48 1814.36C2721.48 1814.36 2724.39 1806.91 2729.45 1794.37L2732.03 1787.94C2735.45 1779.62 2739.46 1769.65 2744.07 1758.5C2744.71 1756.94 2745.37 1755.35 2746.04 1753.73C2755.43 1731.14 2766.85 1704.25 2779.08 1676.8C2782.36 1669.44 2785.69 1661.99 2789.06 1654.69C2817.98 1591.55 2849.51 1530.62 2869.05 1516.68L2873.03 1542.1Z" fill="#635151"/>
<path d="M2349.31 1264.23C2349.31 1264.23 2456.53 1402.34 2507.13 1507.84C2507.13 1507.84 2625.5 1740 2622.07 1875.25L2652.95 1881.83C2652.95 1881.83 2618.63 1718.79 2583.46 1604.77C2565.4 1546.22 2530.61 1490.32 2498.34 1438.23C2451.88 1363.27 2380.42 1254.07 2349.29 1238.51L2349.31 1264.23Z" fill="#635151"/>
<path d="M2846.23 1954.41C2845.9 1954.31 2845.55 1954.23 2845.21 1954.18C2844.88 1954.11 2844.55 1954.06 2844.23 1954.02C2843.83 1954.02 2843.44 1953.92 2843.09 1953.9C2842.73 1953.87 2842.35 1953.9 2841.95 1953.9H2438.55C2438.17 1953.9 2437.8 1953.9 2437.41 1953.9C2437.02 1953.9 2436.6 1953.96 2436.21 1954.02C2436.76 1953.68 2437.35 1953.34 2437.9 1953.01C2447.73 1947.19 2460.89 1941.88 2476.74 1937.24C2508.28 1928.01 2550.49 1921.44 2598.08 1918.96C2603.68 1918.65 2609.35 1918.42 2615.08 1918.24L2622.88 1918.03C2627.97 1917.93 2633.13 1917.86 2638.32 1917.86C2639.19 1917.86 2640.05 1917.86 2640.93 1917.86C2661.24 1917.86 2680.91 1918.6 2699.62 1919.97C2707.82 1920.57 2715.81 1921.29 2723.6 1922.13C2746.9 1924.49 2770.01 1928.43 2792.77 1933.94C2814.17 1939.29 2831.66 1945.76 2843.94 1953.03C2844.73 1953.47 2845.49 1953.93 2846.23 1954.41Z" fill="#635151"/>
<path opacity="0.1" d="M2603.21 1858.67H2538.01L2361.31 1851.84C2361.31 1851.84 2334.67 1836.34 2311.92 1819.52C2348.03 1787.55 2407.17 1788.19 2421.35 1796.08C2436.8 1804.61 2465.96 1801.19 2465.96 1801.19C2487.39 1752.72 2545.86 1782.04 2583.46 1807.84C2591.45 1824.2 2598.06 1841.2 2603.21 1858.67Z" fill="black"/>
<path d="M2616.92 1838.94C2616.92 1838.94 2498.55 1732.57 2465.96 1806.35C2465.96 1806.35 2436.8 1809.77 2421.36 1801.2C2405.92 1792.63 2337.3 1792.62 2302.99 1833.79C2268.67 1874.96 2186.33 1916.14 2186.33 1916.14C2186.33 1916.14 2269.56 1923.3 2309.86 1936.73C2320.11 1940.15 2378.48 1935.01 2417.93 1923.06C2457.38 1911.11 2500.29 1929.92 2500.29 1929.92L2622.07 1880.11L2616.92 1838.94Z" fill="#6C63FF"/>
<path opacity="0.05" d="M2622.07 1880.11L2500.29 1929.92C2487.85 1924.87 2474.78 1921.53 2461.44 1919.97C2448.09 1918.39 2432.77 1918.55 2417.94 1923.06C2378.48 1935.06 2320.15 1940.21 2309.87 1936.73C2269.57 1923.3 2186.35 1916.14 2186.35 1916.14C2186.35 1916.14 2268.7 1874.97 2303 1833.79C2337.3 1792.61 2405.91 1792.62 2421.36 1801.19C2436.81 1809.75 2465.96 1806.34 2465.96 1806.34C2498.55 1732.56 2616.92 1838.93 2616.92 1838.93L2619.4 1858.76L2622.07 1880.11Z" fill="black"/>
<path opacity="0.1" d="M2967.57 1817.43C2944.27 1835.03 2915.43 1851.81 2915.43 1851.81L2738.73 1858.65H2673.54C2678.12 1843.15 2683.83 1828.01 2690.63 1813.35C2727.35 1786.67 2792.94 1749.17 2815.94 1801.18C2815.94 1801.18 2845.1 1804.59 2860.54 1796.03C2874.42 1788.33 2931.31 1787.52 2967.57 1817.43Z" fill="black"/>
<path d="M2664.96 1838.94C2664.96 1838.94 2783.34 1732.57 2815.93 1806.35C2815.93 1806.35 2845.09 1809.77 2860.53 1801.2C2875.96 1792.63 2944.59 1792.62 2978.9 1833.79C3013.21 1874.96 3095.55 1916.14 3095.55 1916.14C3095.55 1916.14 3012.35 1923.3 2972.04 1936.75C2961.79 1940.17 2903.42 1935.03 2863.97 1923.08C2824.52 1911.13 2781.67 1929.92 2781.67 1929.92L2659.78 1880.11L2664.96 1838.94Z" fill="#6C63FF"/>
<path opacity="0.05" d="M3095.56 1916.14C3095.56 1916.14 3012.35 1923.3 2972.04 1936.75C2961.79 1940.17 2903.42 1935.03 2863.97 1923.08C2844.3 1917.09 2823.81 1918.77 2808.15 1921.94C2799.09 1923.74 2790.22 1926.41 2781.67 1929.92L2659.78 1880.11L2662.89 1855.29L2664.93 1838.94C2664.93 1838.94 2783.3 1732.57 2815.89 1806.35C2815.89 1806.35 2845.06 1809.77 2860.49 1801.2C2875.93 1792.63 2944.55 1792.62 2978.87 1833.79C3013.18 1874.96 3095.56 1916.14 3095.56 1916.14Z" fill="black"/>
<path opacity="0.1" d="M2808.18 1921.94C2799.11 1923.74 2790.23 1926.41 2781.67 1929.92L2659.78 1880.11L2662.89 1855.29C2700.84 1850.5 2773.01 1874.96 2773.01 1874.96C2773.01 1874.96 2820.84 1901.64 2808.18 1921.94Z" fill="black"/>
<path opacity="0.1" d="M2622.07 1880.11L2500.3 1929.92C2487.85 1924.87 2474.78 1921.53 2461.44 1919.97C2461.18 1919.3 2460.98 1918.61 2460.83 1917.91C2473.22 1847.75 2578.3 1853.72 2619.42 1858.83L2622.07 1880.11Z" fill="black"/>
<path d="M2804.3 1922.73C2802.81 1926.73 2799.22 1930.53 2792.79 1933.91C2789.22 1935.77 2785.48 1937.29 2781.63 1938.47C2766.94 1943.08 2756.99 1948.11 2750.32 1953.05C2749.92 1953.35 2749.57 1953.62 2749.18 1953.91H2527.04C2526.87 1953.56 2526.7 1953.29 2526.58 1953.05C2526.25 1952.48 2526.04 1952.2 2526.04 1952.2C2500.03 1951.39 2485.19 1944.41 2476.78 1937.29C2467.42 1929.39 2465.99 1921.34 2465.99 1921.34C2465.99 1921.1 2466.09 1920.84 2466.13 1920.6C2476.85 1863.26 2550.05 1857.38 2598.28 1859.94C2603.06 1860.2 2607.59 1860.52 2611.8 1860.89L2614.41 1861.13L2619.77 1861.7L2622.05 1861.96C2624.73 1862.27 2627.17 1862.6 2629.34 1862.91C2630.56 1863.07 2631.62 1863.24 2632.76 1863.38C2636.6 1863.96 2639.24 1864.42 2640.38 1864.63L2641.02 1864.75C2641.81 1864.13 2642.65 1863.56 2643.52 1863.06C2644.62 1862.42 2645.76 1861.87 2646.94 1861.4C2647.44 1861.2 2647.96 1861.03 2648.47 1860.86C2653.05 1859.4 2657.8 1858.57 2662.61 1858.37C2664.17 1858.27 2665.76 1858.22 2667.41 1858.2C2669.45 1858.2 2671.56 1858.2 2673.72 1858.29C2675.89 1858.39 2677.83 1858.5 2679.93 1858.67C2680.31 1858.67 2680.69 1858.67 2681.07 1858.76C2690.44 1859.63 2699.75 1861 2708.97 1862.86C2718.85 1864.8 2728.51 1867.11 2737.05 1869.37C2754.95 1874.08 2767.97 1878.48 2767.97 1878.48C2767.97 1878.48 2811.75 1902.86 2804.3 1922.73Z" fill="#6C63FF"/>
<path d="M2649.28 1466.14C2674.97 1459.62 2692.39 1440.93 2688.19 1424.4C2683.99 1407.87 2659.76 1399.75 2634.07 1406.28C2608.38 1412.8 2590.96 1431.49 2595.16 1448.03C2599.36 1464.56 2623.59 1472.67 2649.28 1466.14Z" fill="#6C63FF"/>
<path d="M2678.1 1415.47C2678.1 1415.47 2746.86 1376.27 2780.13 1407.72C2780.13 1407.72 2750.09 1465.69 2675.95 1436.09L2678.1 1415.47Z" fill="#6C63FF"/>
<path opacity="0.05" d="M2667.26 1415.62C2667.26 1415.62 2708.48 1348.04 2752.81 1359.48C2752.81 1359.48 2754.55 1424.73 2675.34 1434.67L2667.26 1415.62Z" fill="black"/>
<path d="M2664.58 1414.27C2664.58 1414.27 2705.81 1346.65 2750.12 1358.14C2750.12 1358.14 2751.86 1423.39 2672.65 1433.32L2664.58 1414.27Z" fill="#6C63FF"/>
<path opacity="0.05" d="M2672.67 1432.02L2671.53 1429.33L2664.58 1412.94C2664.58 1412.94 2682.57 1383.4 2707.63 1366.7C2720.46 1358.12 2735.12 1352.92 2750.13 1356.8C2750.12 1356.8 2751.87 1422.06 2672.67 1432.02Z" fill="black"/>
<path opacity="0.05" d="M2707.63 1366.7C2706.65 1385.21 2698.22 1407.66 2671.66 1429.43L2671.54 1429.35L2664.59 1412.95C2664.59 1412.95 2682.57 1383.4 2707.63 1366.7Z" fill="black"/>
<path d="M2668.96 1429.41L2665.14 1426.74L2651.96 1417.57C2651.96 1417.57 2651.49 1383.39 2663.56 1355.96C2669.85 1341.69 2679.51 1329.27 2694.48 1324.51C2694.48 1324.51 2730.71 1378.81 2668.96 1429.41Z" fill="#6C63FF"/>
<path opacity="0.05" d="M2665.65 1426.77H2665.14L2651.96 1417.6C2651.96 1417.6 2651.49 1383.43 2663.56 1355.99C2672.05 1372.12 2676.25 1395.18 2665.65 1426.77Z" fill="black"/>
<path d="M2642.25 1425.77C2642.25 1425.77 2599.28 1359.3 2628.83 1324.38C2628.83 1324.38 2688.37 1351.15 2663 1426.82L2642.25 1425.77Z" fill="#6C63FF"/>
<path opacity="0.05" d="M2632 1429.36C2632 1429.36 2570.62 1379.37 2588.01 1337C2588.01 1337 2652.95 1344.11 2652.05 1423.93L2632 1429.36Z" fill="black"/>
<path d="M2629.31 1429.36C2629.31 1429.36 2567.94 1379.36 2585.28 1337C2585.28 1337 2650.21 1344.11 2649.31 1423.93L2629.31 1429.36Z" fill="#6C63FF"/>
<path opacity="0.05" d="M2622.4 1437.96C2622.4 1437.96 2545.52 1419.07 2543.05 1373.37C2543.05 1373.37 2604.74 1352 2638.15 1424.49L2622.4 1437.96Z" fill="black"/>
<path d="M2621.05 1440.64C2621.05 1440.64 2544.18 1421.75 2541.71 1376.04C2541.71 1376.04 2603.39 1354.67 2636.8 1427.17L2621.05 1440.64Z" fill="#6C63FF"/>
<path opacity="0.05" d="M2617.06 1453.74C2617.06 1453.74 2539.4 1469.06 2517.86 1428.67C2517.86 1428.67 2564.76 1383.27 2625.65 1434.87L2617.06 1453.74Z" fill="black"/>
<path d="M2615.72 1456.38C2615.72 1456.38 2538.06 1471.7 2516.52 1431.32C2516.52 1431.32 2563.42 1385.91 2624.31 1437.51L2615.72 1456.38Z" fill="#6C63FF"/>
<path opacity="0.05" d="M2628.41 1451.08C2628.41 1451.08 2571.81 1506.42 2531.67 1484.41C2531.67 1484.41 2546.06 1420.73 2625.26 1430.59L2628.41 1451.08Z" fill="black"/>
<path d="M2631.1 1453.74C2631.1 1453.74 2574.5 1509.08 2534.36 1487.07C2534.36 1487.07 2548.74 1423.39 2627.95 1433.24L2631.1 1453.74Z" fill="#6C63FF"/>
<path opacity="0.05" d="M2626.38 1444.94C2626.38 1444.94 2635.72 1523.55 2593.8 1541.93C2593.8 1541.93 2552.11 1491.69 2608.23 1434.93L2626.38 1444.94Z" fill="black"/>
<path d="M2630.4 1446.27C2630.4 1446.27 2639.74 1524.88 2597.82 1543.26C2597.82 1543.26 2556.13 1493.03 2612.25 1436.26L2630.4 1446.27Z" fill="#6C63FF"/>
<path opacity="0.05" d="M2656.59 1450.39C2656.59 1450.39 2665.93 1528.99 2624.01 1547.38C2624.01 1547.38 2582.32 1497.14 2638.44 1440.37L2656.59 1450.39Z" fill="black"/>
<path d="M2659.28 1450.39C2659.28 1450.39 2668.62 1528.99 2626.7 1547.38C2626.7 1547.38 2585.01 1497.14 2641.13 1440.37L2659.28 1450.39Z" fill="#6C63FF"/>
<path opacity="0.05" d="M2649.36 1451.97C2649.36 1451.97 2714.67 1496.68 2700.91 1540.31C2700.91 1540.31 2635.64 1538.62 2629.87 1459L2649.36 1451.97Z" fill="black"/>
<path d="M2652.03 1451.97C2652.03 1451.97 2717.36 1496.68 2703.59 1540.31C2703.59 1540.31 2638.33 1538.62 2632.55 1459L2652.03 1451.97Z" fill="#6C63FF"/>
<path opacity="0.05" d="M2667.18 1441.57C2667.18 1441.57 2747.9 1461.05 2756.93 1514.11C2756.93 1514.11 2697.37 1540.94 2653.12 1457.73L2667.18 1441.57Z" fill="black"/>
<path d="M2669.88 1440.23C2669.88 1440.23 2750.59 1459.71 2759.62 1512.77C2759.62 1512.77 2700.06 1539.6 2655.81 1456.39L2669.88 1440.23Z" fill="#6C63FF"/>
<path d="M2642.25 1425.77C2642.25 1425.77 2599.28 1359.3 2628.83 1324.38C2628.83 1324.38 2688.37 1351.15 2663 1426.82L2642.25 1425.77Z" fill="#6C63FF"/>
<path opacity="0.05" d="M2642.25 1425.77C2642.25 1425.77 2599.28 1359.3 2628.83 1324.38C2628.83 1324.38 2688.37 1351.15 2663 1426.82L2642.25 1425.77Z" fill="black"/>
<path d="M2621.05 1440.64C2621.05 1440.64 2544.18 1421.75 2541.71 1376.04C2541.71 1376.04 2603.39 1354.67 2636.8 1427.17L2621.05 1440.64Z" fill="#6C63FF"/>
<path opacity="0.05" d="M2621.05 1440.64C2621.05 1440.64 2544.18 1421.75 2541.71 1376.04C2541.71 1376.04 2603.39 1354.67 2636.8 1427.17L2621.05 1440.64Z" fill="black"/>
<path d="M2631.1 1453.74C2631.1 1453.74 2574.5 1509.08 2534.36 1487.07C2534.36 1487.07 2548.74 1423.39 2627.95 1433.24L2631.1 1453.74Z" fill="#6C63FF"/>
<path opacity="0.05" d="M2631.1 1453.74C2631.1 1453.74 2574.5 1509.08 2534.36 1487.07C2534.36 1487.07 2548.74 1423.39 2627.95 1433.24L2631.1 1453.74Z" fill="black"/>
<path d="M2659.28 1450.39C2659.28 1450.39 2668.62 1528.99 2626.7 1547.38C2626.7 1547.38 2585.01 1497.14 2641.13 1440.37L2659.28 1450.39Z" fill="#6C63FF"/>
<path opacity="0.05" d="M2659.28 1450.39C2659.28 1450.39 2668.62 1528.99 2626.7 1547.38C2626.7 1547.38 2585.01 1497.14 2641.13 1440.37L2659.28 1450.39Z" fill="black"/>
<path d="M2669.88 1440.23C2669.88 1440.23 2750.59 1459.71 2759.62 1512.77C2759.62 1512.77 2700.06 1539.6 2655.81 1456.39L2669.88 1440.23Z" fill="#6C63FF"/>
<path opacity="0.05" d="M2669.88 1440.23C2669.88 1440.23 2750.59 1459.71 2759.62 1512.77C2759.62 1512.77 2700.06 1539.6 2655.81 1456.39L2669.88 1440.23Z" fill="black"/>
<path opacity="0.05" d="M2677.61 1428.81C2677.61 1428.81 2760.58 1431.84 2780 1482.04C2780 1482.04 2726.98 1520.2 2667.05 1447.46L2677.61 1428.81Z" fill="black"/>
<path opacity="0.05" d="M2678.95 1422.1C2678.95 1422.1 2761.92 1425.13 2781.34 1475.33C2781.34 1475.33 2728.33 1513.49 2668.39 1440.75L2678.95 1422.1Z" fill="black"/>
<path d="M2678.95 1426.13C2678.95 1426.13 2761.92 1429.16 2781.34 1479.37C2781.34 1479.37 2728.33 1517.52 2668.39 1444.78L2678.95 1426.13Z" fill="#6C63FF"/>
<path d="M2699.49 1447.57C2697.15 1456.94 2692.08 1465.4 2684.93 1471.89C2677.78 1478.38 2668.86 1482.61 2659.31 1484.03C2649.76 1485.45 2640 1484.01 2631.27 1479.89C2622.53 1475.77 2615.22 1469.15 2610.25 1460.87C2605.28 1452.59 2602.87 1443.02 2603.33 1433.38C2603.8 1423.73 2607.11 1414.44 2612.86 1406.68C2618.6 1398.91 2626.52 1393.03 2635.6 1389.76C2644.69 1386.5 2654.54 1386 2663.92 1388.34C2670.14 1389.89 2676 1392.65 2681.16 1396.47C2686.32 1400.29 2690.67 1405.08 2693.98 1410.58C2697.28 1416.08 2699.47 1422.18 2700.41 1428.53C2701.36 1434.88 2701.05 1441.35 2699.49 1447.57V1447.57Z" fill="#F7931A"/>
<path d="M2673.65 1428.79C2674.61 1422.28 2669.67 1418.8 2662.9 1416.46L2665.1 1407.66L2659.78 1406.32L2657.64 1414.9C2656.23 1414.55 2654.78 1414.22 2653.35 1413.89L2655.5 1405.25L2650.14 1403.92L2647.9 1412.73C2646.76 1412.46 2645.62 1412.2 2644.48 1411.92L2637.09 1410.07L2635.67 1415.77C2635.67 1415.77 2639.64 1416.68 2639.56 1416.74C2640.3 1416.82 2640.98 1417.2 2641.45 1417.78C2641.92 1418.37 2642.13 1419.11 2642.06 1419.86L2639.55 1429.89C2639.74 1429.94 2639.93 1430 2640.11 1430.08L2639.54 1429.94L2636.03 1444C2635.95 1444.24 2635.83 1444.47 2635.66 1444.67C2635.5 1444.87 2635.3 1445.03 2635.07 1445.15C2634.84 1445.27 2634.59 1445.34 2634.33 1445.36C2634.07 1445.38 2633.81 1445.35 2633.57 1445.27C2633.57 1445.35 2629.67 1444.3 2629.67 1444.3L2627.01 1450.44L2633.98 1452.19L2637.8 1453.18L2635.57 1462.09L2640.93 1463.42L2643.13 1454.6C2644.59 1455 2646.01 1455.36 2647.4 1455.74L2645.21 1464.51L2650.58 1465.85L2652.8 1456.96C2661.91 1458.69 2668.82 1458 2671.71 1449.73C2673.99 1443.07 2671.6 1439.23 2666.79 1436.73C2670.3 1435.85 2672.94 1433.55 2673.65 1428.79ZM2661.4 1445.97C2659.75 1452.62 2648.54 1449.02 2644.9 1448.12L2647.84 1436.32C2651.47 1437.23 2663.12 1439.03 2661.39 1445.97H2661.4ZM2663.05 1428.67C2661.54 1434.73 2652.21 1431.65 2649.19 1430.95L2651.85 1420.24C2654.88 1420.97 2664.62 1422.39 2663.05 1428.67Z" fill="white"/>
<path d="M2356.51 1268.7C2382.2 1262.17 2399.62 1243.48 2395.42 1226.95C2391.22 1210.42 2366.99 1202.31 2341.3 1208.83C2315.61 1215.36 2298.19 1234.05 2302.39 1250.58C2306.59 1267.11 2330.82 1275.22 2356.51 1268.7Z" fill="#6C63FF"/>
<path d="M2385.32 1218.05C2385.32 1218.05 2454.08 1178.85 2487.34 1210.3C2487.34 1210.3 2457.3 1268.26 2383.16 1238.67L2385.32 1218.05Z" fill="#6C63FF"/>
<path opacity="0.05" d="M2374.48 1218.19C2374.48 1218.19 2415.7 1150.61 2460.03 1162.05C2460.03 1162.05 2461.77 1227.3 2382.56 1237.23L2374.48 1218.19Z" fill="black"/>
<path d="M2371.79 1216.84C2371.79 1216.84 2413.01 1149.27 2457.33 1160.7C2457.33 1160.7 2459.08 1225.96 2379.87 1235.89L2371.79 1216.84Z" fill="#6C63FF"/>
<path opacity="0.05" d="M2379.88 1234.59L2378.74 1231.9L2371.79 1215.51C2371.79 1215.51 2389.79 1186.03 2414.85 1169.27C2427.68 1160.69 2442.34 1155.49 2457.36 1159.37C2457.33 1159.37 2459.09 1224.63 2379.88 1234.59Z" fill="black"/>
<path opacity="0.05" d="M2414.85 1169.27C2413.88 1187.78 2405.45 1210.22 2378.89 1231.99L2378.77 1231.91L2371.82 1215.52C2371.82 1215.52 2389.79 1186.03 2414.85 1169.27Z" fill="black"/>
<path d="M2376.13 1231.99L2372.35 1229.32L2359.17 1220.15C2359.17 1220.15 2358.71 1185.97 2370.78 1158.54C2377.07 1144.26 2386.73 1131.85 2401.7 1127.09C2401.7 1127.09 2437.93 1181.38 2376.13 1231.99Z" fill="#6C63FF"/>
<path opacity="0.05" d="M2372.87 1229.32H2372.35L2359.17 1220.15C2359.17 1220.15 2358.71 1185.97 2370.78 1158.54C2379.27 1174.69 2383.47 1197.76 2372.87 1229.32Z" fill="black"/>
<path d="M2349.47 1228.34C2349.47 1228.34 2306.5 1161.87 2336.05 1126.95C2336.05 1126.95 2395.59 1153.72 2370.22 1229.38L2349.47 1228.34Z" fill="#6C63FF"/>
<path opacity="0.05" d="M2339.21 1231.94C2339.21 1231.94 2277.85 1181.94 2295.18 1139.58C2295.18 1139.58 2360.12 1146.69 2359.22 1226.51L2339.21 1231.94Z" fill="black"/>
<path d="M2336.53 1231.94C2336.53 1231.94 2275.16 1181.94 2292.5 1139.58C2292.5 1139.58 2357.43 1146.69 2356.53 1226.51L2336.53 1231.94Z" fill="#6C63FF"/>
<path opacity="0.05" d="M2329.61 1240.53C2329.61 1240.53 2252.74 1221.64 2250.27 1175.93C2250.27 1175.93 2311.95 1154.56 2345.36 1227.06L2329.61 1240.53Z" fill="black"/>
<path d="M2328.28 1243.21C2328.28 1243.21 2251.41 1224.33 2248.93 1178.62C2248.93 1178.62 2310.62 1157.25 2344.03 1229.75L2328.28 1243.21Z" fill="#6C63FF"/>
<path opacity="0.05" d="M2324.28 1256.26C2324.28 1256.26 2246.62 1271.58 2225.08 1231.2C2225.08 1231.2 2271.98 1185.79 2332.87 1237.39L2324.28 1256.26Z" fill="black"/>
<path d="M2322.93 1258.94C2322.93 1258.94 2245.28 1274.26 2223.73 1233.87C2223.73 1233.87 2270.63 1188.47 2331.52 1240.07L2322.93 1258.94Z" fill="#6C63FF"/>
<path opacity="0.05" d="M2335.62 1253.65C2335.62 1253.65 2279.03 1308.99 2238.88 1286.98C2238.88 1286.98 2253.27 1223.3 2332.48 1233.16L2335.62 1253.65Z" fill="black"/>
<path d="M2338.31 1256.34C2338.31 1256.34 2281.72 1311.68 2241.57 1289.69C2241.57 1289.69 2255.96 1226.01 2335.17 1235.87L2338.31 1256.34Z" fill="#6C63FF"/>
<path opacity="0.05" d="M2333.6 1247.54C2333.6 1247.54 2342.94 1326.15 2301.02 1344.53C2301.02 1344.53 2259.32 1294.3 2315.45 1237.53L2333.6 1247.54Z" fill="black"/>
<path d="M2337.62 1248.85C2337.62 1248.85 2346.96 1327.46 2305.04 1345.84C2305.04 1345.84 2263.34 1295.61 2319.47 1238.84L2337.62 1248.85Z" fill="#6C63FF"/>
<path opacity="0.05" d="M2363.81 1252.95C2363.81 1252.95 2373.15 1331.56 2331.23 1349.94C2331.23 1349.94 2289.53 1299.71 2345.66 1242.94L2363.81 1252.95Z" fill="black"/>
<path d="M2366.5 1252.95C2366.5 1252.95 2375.84 1331.56 2333.92 1349.94C2333.92 1349.94 2292.22 1299.71 2348.35 1242.94L2366.5 1252.95Z" fill="#6C63FF"/>
<path opacity="0.05" d="M2356.58 1254.54C2356.58 1254.54 2421.88 1299.26 2408.12 1342.92C2408.12 1342.92 2342.86 1341.22 2337.08 1261.6L2356.58 1254.54Z" fill="black"/>
<path d="M2359.25 1254.54C2359.25 1254.54 2424.56 1299.26 2410.8 1342.92C2410.8 1342.92 2345.54 1341.22 2339.76 1261.6L2359.25 1254.54Z" fill="#6C63FF"/>
<path opacity="0.05" d="M2374.4 1244.13C2374.4 1244.13 2455.12 1263.61 2464.15 1316.67C2464.15 1316.67 2404.59 1343.5 2360.34 1260.29L2374.4 1244.13Z" fill="black"/>
<path d="M2377.09 1242.8C2377.09 1242.8 2457.8 1262.28 2466.84 1315.35C2466.84 1315.35 2407.28 1342.18 2363.02 1258.97L2377.09 1242.8Z" fill="#6C63FF"/>
<path d="M2349.47 1228.34C2349.47 1228.34 2306.5 1161.87 2336.05 1126.95C2336.05 1126.95 2395.59 1153.72 2370.22 1229.38L2349.47 1228.34Z" fill="#6C63FF"/>
<path opacity="0.05" d="M2349.47 1228.34C2349.47 1228.34 2306.5 1161.87 2336.05 1126.95C2336.05 1126.95 2395.59 1153.72 2370.22 1229.38L2349.47 1228.34Z" fill="black"/>
<path d="M2328.28 1243.21C2328.28 1243.21 2251.41 1224.33 2248.93 1178.62C2248.93 1178.62 2310.62 1157.25 2344.03 1229.75L2328.28 1243.21Z" fill="#6C63FF"/>
<path opacity="0.05" d="M2328.28 1243.21C2328.28 1243.21 2251.41 1224.33 2248.93 1178.62C2248.93 1178.62 2310.62 1157.25 2344.03 1229.75L2328.28 1243.21Z" fill="black"/>
<path d="M2338.31 1256.34C2338.31 1256.34 2281.72 1311.68 2241.57 1289.69C2241.57 1289.69 2255.96 1226.01 2335.17 1235.87L2338.31 1256.34Z" fill="#6C63FF"/>
<path opacity="0.05" d="M2338.31 1256.34C2338.31 1256.34 2281.72 1311.68 2241.57 1289.69C2241.57 1289.69 2255.96 1226.01 2335.17 1235.87L2338.31 1256.34Z" fill="black"/>
<path d="M2366.5 1252.95C2366.5 1252.95 2375.84 1331.56 2333.92 1349.94C2333.92 1349.94 2292.22 1299.71 2348.35 1242.94L2366.5 1252.95Z" fill="#6C63FF"/>
<path opacity="0.05" d="M2366.5 1252.95C2366.5 1252.95 2375.84 1331.56 2333.92 1349.94C2333.92 1349.94 2292.22 1299.71 2348.35 1242.94L2366.5 1252.95Z" fill="black"/>
<path d="M2377.09 1242.8C2377.09 1242.8 2457.8 1262.28 2466.84 1315.35C2466.84 1315.35 2407.28 1342.18 2363.02 1258.97L2377.09 1242.8Z" fill="#6C63FF"/>
<path opacity="0.05" d="M2377.09 1242.8C2377.09 1242.8 2457.8 1262.28 2466.84 1315.35C2466.84 1315.35 2407.28 1342.18 2363.02 1258.97L2377.09 1242.8Z" fill="black"/>
<path opacity="0.05" d="M2384.83 1231.39C2384.83 1231.39 2467.79 1234.42 2487.22 1284.62C2487.22 1284.62 2434.2 1322.78 2374.27 1250.04L2384.83 1231.39Z" fill="black"/>
<path opacity="0.05" d="M2386.17 1224.67C2386.17 1224.67 2469.14 1227.7 2488.56 1277.9C2488.56 1277.9 2435.55 1316.05 2375.61 1243.32L2386.17 1224.67Z" fill="black"/>
<path d="M2386.17 1228.7C2386.17 1228.7 2469.14 1231.73 2488.56 1281.94C2488.56 1281.94 2435.55 1320.09 2375.61 1247.35L2386.17 1228.7Z" fill="#6C63FF"/>
<path d="M2406.71 1250.14C2404.37 1259.51 2399.3 1267.97 2392.15 1274.46C2385 1280.95 2376.08 1285.17 2366.53 1286.6C2356.98 1288.02 2347.22 1286.58 2338.49 1282.46C2329.76 1278.33 2322.44 1271.72 2317.47 1263.44C2312.5 1255.16 2310.09 1245.59 2310.55 1235.95C2311.02 1226.3 2314.33 1217.01 2320.08 1209.24C2325.82 1201.48 2333.74 1195.6 2342.82 1192.33C2351.91 1189.07 2361.77 1188.57 2371.14 1190.9C2377.36 1192.45 2383.22 1195.22 2388.38 1199.04C2393.54 1202.85 2397.89 1207.65 2401.2 1213.15C2404.5 1218.65 2406.69 1224.75 2407.64 1231.1C2408.58 1237.44 2408.27 1243.91 2406.71 1250.14Z" fill="#F7931A"/>
<path d="M2380.86 1231.37C2381.83 1224.86 2376.89 1221.38 2370.12 1219.04L2372.32 1210.23L2366.95 1208.9L2364.81 1217.48C2363.4 1217.13 2361.95 1216.8 2360.52 1216.47L2362.67 1207.83L2357.32 1206.5L2355.12 1215.3C2353.98 1215.04 2352.84 1214.78 2351.7 1214.5L2344.31 1212.65L2342.88 1218.35C2342.88 1218.35 2346.86 1219.26 2346.78 1219.31C2347.52 1219.4 2348.2 1219.78 2348.67 1220.36C2349.13 1220.95 2349.35 1221.69 2349.27 1222.44L2346.77 1232.47C2346.96 1232.52 2347.14 1232.58 2347.33 1232.65L2346.76 1232.52L2343.25 1246.57C2343.17 1246.82 2343.05 1247.05 2342.88 1247.25C2342.72 1247.45 2342.51 1247.61 2342.28 1247.73C2342.05 1247.85 2341.8 1247.92 2341.55 1247.94C2341.29 1247.96 2341.03 1247.93 2340.79 1247.85C2340.79 1247.93 2336.89 1246.88 2336.89 1246.88L2334.22 1253.02L2341.2 1254.77L2345.01 1255.76L2342.81 1264.63L2348.17 1265.96L2350.37 1257.15C2351.83 1257.55 2353.25 1257.91 2354.64 1258.29L2352.45 1267.06L2357.82 1268.39L2360.04 1259.5C2369.15 1261.24 2376.06 1260.54 2378.95 1252.27C2381.23 1245.62 2378.84 1241.78 2374.03 1239.27C2377.51 1238.43 2380.16 1236.15 2380.86 1231.37ZM2368.61 1248.55C2366.95 1255.2 2355.74 1251.6 2352.11 1250.7L2355.05 1238.9C2358.68 1239.81 2370.34 1241.6 2368.61 1248.55ZM2370.27 1231.28C2368.75 1237.34 2359.42 1234.25 2356.4 1233.55L2359.07 1222.85C2362.1 1223.54 2371.84 1224.95 2370.27 1231.26V1231.28Z" fill="white"/>
<path d="M2934.3 1336.12C2954.51 1318.98 2961.95 1294.53 2950.92 1281.52C2939.89 1268.52 2914.55 1271.88 2894.34 1289.02C2874.13 1306.17 2866.69 1330.62 2877.72 1343.62C2888.76 1356.63 2914.09 1353.27 2934.3 1336.12Z" fill="#6C63FF"/>
<path d="M2937.97 1278.05C2937.97 1278.05 2982.53 1212.63 3026.22 1226.29C3026.22 1226.29 3024.68 1291.55 2945.09 1297.52L2937.97 1278.05Z" fill="#6C63FF"/>
<path opacity="0.05" d="M2928.31 1282.94C2928.31 1282.94 2935.66 1204.12 2980.51 1194.94C2980.51 1194.94 3010.73 1252.79 2943.96 1296.53L2928.31 1282.94Z" fill="black"/>
<path d="M2925.3 1282.86C2925.3 1282.86 2932.65 1204.04 2977.5 1194.86C2977.5 1194.86 3007.72 1252.72 2940.96 1296.45L2925.3 1282.86Z" fill="#6C63FF"/>
<path opacity="0.05" d="M2940.38 1295.31L2938.17 1293.4L2924.72 1281.72C2924.72 1281.72 2927.95 1247.27 2943.07 1221.27C2950.83 1207.93 2961.72 1196.82 2976.92 1193.72C2976.92 1193.71 3007.14 1251.56 2940.38 1295.31Z" fill="black"/>
<path opacity="0.05" d="M2943.07 1221.27C2950.32 1238.36 2952.6 1262.19 2938.31 1293.42H2938.17L2924.72 1281.72C2924.72 1281.72 2927.95 1247.26 2943.07 1221.27Z" fill="black"/>
<path d="M2935.9 1294.59L2931.34 1293.87L2915.47 1291.42C2915.47 1291.42 2900.02 1260.88 2898.84 1230.98C2898.21 1215.4 2901.48 1199.98 2912.81 1189.15C2912.75 1189.14 2969.14 1222.01 2935.9 1294.59Z" fill="#6C63FF"/>
<path opacity="0.05" d="M2931.75 1293.67L2931.28 1293.87L2915.42 1291.42C2915.42 1291.42 2899.97 1260.88 2898.78 1230.98C2913.5 1241.77 2927.41 1260.63 2931.75 1293.67Z" fill="black"/>
<path d="M2910.3 1303.04C2910.3 1303.04 2842.5 1262.19 2853.69 1217.81C2853.69 1217.81 2918.95 1215.7 2929.34 1294.85L2910.3 1303.04Z" fill="#6C63FF"/>
<path opacity="0.05" d="M2902.66 1310.78C2902.66 1310.78 2825.57 1292.83 2822.54 1247.14C2822.54 1247.14 2883.96 1225.03 2918.23 1297.12L2902.66 1310.78Z" fill="black"/>
<path d="M2900.24 1311.95C2900.24 1311.95 2823.15 1294 2820.12 1248.32C2820.12 1248.32 2881.55 1226.21 2915.81 1298.29L2900.24 1311.95Z" fill="#6C63FF"/>
<path opacity="0.05" d="M2897.8 1322.73C2897.8 1322.73 2820.45 1339.52 2798.15 1299.55C2798.15 1299.55 2844.18 1253.26 2906.04 1303.71L2897.8 1322.73Z" fill="black"/>
<path d="M2897.78 1325.71C2897.78 1325.71 2820.43 1342.51 2798.12 1302.53C2798.12 1302.53 2844.16 1256.25 2906.02 1306.69L2897.78 1325.71Z" fill="#6C63FF"/>
<path opacity="0.05" d="M2899.92 1339.19C2899.92 1339.19 2836.89 1387.04 2799.8 1360.24C2799.8 1360.24 2821.99 1298.85 2899.36 1318.47L2899.92 1339.19Z" fill="black"/>
<path d="M2899.9 1342.2C2899.9 1342.2 2836.87 1390.04 2799.78 1363.25C2799.78 1363.25 2821.97 1301.86 2899.34 1321.48L2899.9 1342.2Z" fill="#6C63FF"/>
<path opacity="0.05" d="M2908.98 1331.84C2908.98 1331.84 2882.44 1406.41 2836.71 1404.27C2836.71 1404.27 2821.67 1340.75 2897.17 1314.81L2908.98 1331.84Z" fill="black"/>
<path d="M2912.57 1333.1C2912.57 1333.1 2886.02 1407.67 2840.3 1405.53C2840.3 1405.53 2825.26 1342 2900.75 1316.07L2912.57 1333.1Z" fill="#6C63FF"/>
<path opacity="0.05" d="M2904.45 1327.29C2904.45 1327.29 2947.37 1393.8 2917.78 1428.67C2917.78 1428.67 2858.26 1401.86 2883.76 1326.2L2904.45 1327.29Z" fill="black"/>
<path d="M2908.66 1326.67C2908.66 1326.67 2951.57 1393.19 2921.99 1428.06C2921.99 1428.06 2862.47 1401.24 2887.96 1325.59L2908.66 1326.67Z" fill="#6C63FF"/>
<path opacity="0.05" d="M2934 1318.86C2934 1318.86 2976.91 1385.37 2947.32 1420.24C2947.32 1420.24 2887.8 1393.43 2913.3 1317.77L2934 1318.86Z" fill="black"/>
<path d="M2936.4 1317.68C2936.4 1317.68 2979.31 1384.2 2949.73 1419.07C2949.73 1419.07 2890.2 1392.25 2915.7 1316.6L2936.4 1317.68Z" fill="#6C63FF"/>
<path opacity="0.05" d="M2928.18 1323.46C2928.18 1323.46 3006.5 1334.95 3013.32 1380.21C3013.32 1380.21 2953.94 1407.35 2913.79 1338.36L2928.18 1323.46Z" fill="black"/>
<path d="M2930.59 1322.29C2930.59 1322.29 3008.91 1333.78 3015.72 1379.04C3015.72 1379.04 2956.35 1406.17 2916.19 1337.19L2930.59 1322.29Z" fill="#6C63FF"/>
<path opacity="0.05" d="M2939.63 1306.29C2939.63 1306.29 3020.7 1288.35 3052.12 1332.05C3052.12 1332.05 3010.4 1382.31 2934.1 1326.99L2939.63 1306.29Z" fill="black"/>
<path d="M2941.46 1303.91C2941.46 1303.91 3022.52 1285.97 3053.94 1329.67C3053.94 1329.67 3012.22 1379.93 2935.92 1324.61L2941.46 1303.91Z" fill="#6C63FF"/>
<path d="M2910.3 1303.04C2910.3 1303.04 2842.5 1262.19 2853.69 1217.81C2853.69 1217.81 2918.95 1215.7 2929.34 1294.85L2910.3 1303.04Z" fill="#6C63FF"/>
<path opacity="0.05" d="M2910.3 1303.04C2910.3 1303.04 2842.5 1262.19 2853.69 1217.81C2853.69 1217.81 2918.95 1215.7 2929.34 1294.85L2910.3 1303.04Z" fill="black"/>
<path d="M2897.78 1325.71C2897.78 1325.71 2820.43 1342.51 2798.12 1302.53C2798.12 1302.53 2844.16 1256.25 2906.02 1306.69L2897.78 1325.71Z" fill="#6C63FF"/>
<path opacity="0.05" d="M2897.78 1325.71C2897.78 1325.71 2820.43 1342.51 2798.12 1302.53C2798.12 1302.53 2844.16 1256.25 2906.02 1306.69L2897.78 1325.71Z" fill="black"/>
<path d="M2912.57 1333.1C2912.57 1333.1 2886.02 1407.67 2840.3 1405.53C2840.3 1405.53 2825.26 1342 2900.75 1316.07L2912.57 1333.1Z" fill="#6C63FF"/>
<path opacity="0.05" d="M2912.57 1333.1C2912.57 1333.1 2886.02 1407.67 2840.3 1405.53C2840.3 1405.53 2825.26 1342 2900.75 1316.07L2912.57 1333.1Z" fill="black"/>
<path d="M2936.4 1317.68C2936.4 1317.68 2979.31 1384.2 2949.73 1419.07C2949.73 1419.07 2890.2 1392.25 2915.7 1316.6L2936.4 1317.68Z" fill="#6C63FF"/>
<path opacity="0.05" d="M2936.4 1317.68C2936.4 1317.68 2979.31 1384.2 2949.73 1419.07C2949.73 1419.07 2890.2 1392.25 2915.7 1316.6L2936.4 1317.68Z" fill="black"/>
<path d="M2941.46 1303.91C2941.46 1303.91 3022.52 1285.97 3053.94 1329.67C3053.94 1329.67 3012.22 1379.93 2935.92 1324.61L2941.46 1303.91Z" fill="#6C63FF"/>
<path opacity="0.05" d="M2941.46 1303.91C2941.46 1303.91 3022.52 1285.97 3053.94 1329.67C3053.94 1329.67 3012.22 1379.93 2935.92 1324.61L2941.46 1303.91Z" fill="black"/>
<path opacity="0.05" d="M2943.44 1290.25C2943.44 1290.25 3019.31 1256.53 3058.8 1293.11C3058.8 1293.11 3027.92 1350.66 2942.14 1311.65L2943.44 1290.25Z" fill="black"/>
<path opacity="0.05" d="M2941.65 1283.63C2941.65 1283.63 3017.52 1249.91 3057.02 1286.49C3057.02 1286.49 3026.13 1344.04 2940.35 1305.03L2941.65 1283.63Z" fill="black"/>
<path d="M2943.44 1287.26C2943.44 1287.26 3019.31 1253.54 3058.8 1290.11C3058.8 1290.11 3027.92 1347.67 2942.14 1308.65L2943.44 1287.26Z" fill="#6C63FF"/>
<path d="M2971.29 1297.5C2973.3 1306.94 2972.47 1316.77 2968.89 1325.74C2965.32 1334.71 2959.16 1342.42 2951.2 1347.9C2943.25 1353.37 2933.85 1356.36 2924.19 1356.49C2914.53 1356.63 2905.06 1353.89 2896.95 1348.64C2888.85 1343.38 2882.49 1335.85 2878.67 1326.97C2874.85 1318.1 2873.75 1308.3 2875.5 1298.8C2877.25 1289.31 2881.78 1280.54 2888.51 1273.62C2895.24 1266.69 2903.87 1261.92 2913.32 1259.9C2919.59 1258.56 2926.07 1258.47 2932.38 1259.64C2938.69 1260.8 2944.71 1263.2 2950.09 1266.69C2955.48 1270.18 2960.12 1274.7 2963.76 1279.98C2967.39 1285.27 2969.95 1291.22 2971.29 1297.5V1297.5Z" fill="#F7931A"/>
<path d="M2939.83 1291.97C2937.85 1285.71 2931.85 1284.74 2924.76 1285.61L2922.87 1276.74L2917.47 1277.88L2919.31 1286.53C2917.89 1286.83 2916.44 1287.16 2915 1287.51L2913.15 1278.8L2907.75 1279.94L2909.64 1288.82C2908.5 1289.09 2907.36 1289.35 2906.22 1289.6L2898.77 1291.19L2900 1296.96C2900 1296.96 2903.98 1296.04 2903.92 1296.12C2904.63 1295.87 2905.4 1295.91 2906.08 1296.23C2906.75 1296.55 2907.27 1297.13 2907.53 1297.83L2909.7 1307.94C2909.89 1307.9 2910.08 1307.88 2910.28 1307.86L2909.71 1307.99L2912.68 1322.14C2912.73 1322.4 2912.72 1322.66 2912.66 1322.92C2912.61 1323.17 2912.5 1323.42 2912.34 1323.63C2912.19 1323.84 2911.99 1324.02 2911.77 1324.16C2911.54 1324.29 2911.29 1324.38 2911.03 1324.42C2911.11 1324.42 2907.1 1325.26 2907.1 1325.26L2907.41 1331.95L2914.44 1330.44L2918.38 1329.56L2920.29 1338.54L2925.69 1337.4L2923.8 1328.52C2925.29 1328.23 2926.73 1327.94 2928.13 1327.64L2930.02 1336.48L2935.42 1335.34L2933.51 1326.38C2942.48 1323.91 2948.31 1320.27 2947.31 1311.57C2946.48 1304.56 2942.6 1302.19 2937.17 1302.05C2939.92 1299.79 2941.29 1296.53 2939.83 1291.97ZM2936.41 1312.78C2937.85 1319.49 2926.16 1321.18 2922.53 1321.97L2919.99 1310.07C2923.61 1309.3 2934.87 1305.79 2936.36 1312.78H2936.41ZM2930.27 1296.53C2931.57 1302.63 2921.84 1303.97 2918.79 1304.62L2916.51 1293.83C2919.52 1293.19 2928.9 1290.17 2930.27 1296.53Z" fill="white"/>
<path d="M2886.87 1551.3C2907.35 1534.48 2915.18 1510.15 2904.36 1496.97C2893.53 1483.79 2868.15 1486.75 2847.67 1503.57C2827.18 1520.4 2819.36 1544.72 2830.18 1557.9C2841.01 1571.08 2866.39 1568.12 2886.87 1551.3Z" fill="#6C63FF"/>
<path d="M2891.42 1493.16C2891.42 1493.16 2936.99 1428.45 2980.48 1442.79C2980.48 1442.79 2977.92 1508.02 2898.23 1512.73L2891.42 1493.16Z" fill="#6C63FF"/>
<path opacity="0.05" d="M2881.68 1497.9C2881.68 1497.9 2890.27 1419.21 2935.23 1410.73C2935.23 1410.73 2964.54 1469.06 2897.09 1511.74L2881.68 1497.9Z" fill="black"/>
<path d="M2878.68 1497.82C2878.68 1497.82 2887.27 1419.13 2932.22 1410.65C2932.22 1410.65 2961.53 1468.98 2894.08 1511.66L2878.68 1497.82Z" fill="#6C63FF"/>
<path opacity="0.05" d="M2893.54 1510.46L2891.37 1508.51L2878.11 1496.61C2878.11 1496.61 2881.87 1462.22 2897.41 1436.47C2905.38 1423.25 2916.43 1412.3 2931.67 1409.44C2931.68 1409.44 2960.99 1467.77 2893.54 1510.46Z" fill="black"/>
<path opacity="0.05" d="M2897.42 1436.47C2904.4 1453.63 2906.3 1477.53 2891.52 1508.53H2891.37L2878.11 1496.64C2878.11 1496.64 2881.92 1462.22 2897.42 1436.47Z" fill="black"/>
<path d="M2889.08 1509.67L2884.52 1508.87L2868.65 1506.14C2868.65 1506.14 2853.68 1475.38 2852.98 1445.44C2852.6 1429.85 2856.1 1414.49 2867.59 1403.83C2867.59 1403.86 2923.46 1437.63 2889.08 1509.67Z" fill="#6C63FF"/>
<path opacity="0.05" d="M2884.95 1508.69L2884.47 1508.88L2868.65 1506.14C2868.65 1506.14 2853.68 1475.38 2852.97 1445.44C2867.52 1456.49 2881.14 1475.59 2884.95 1508.69Z" fill="black"/>
<path d="M2863.35 1517.72C2863.35 1517.72 2796.2 1475.81 2808.09 1431.61C2808.09 1431.61 2873.37 1430.54 2882.51 1509.83L2863.35 1517.72Z" fill="#6C63FF"/>
<path opacity="0.05" d="M2855.6 1525.33C2855.6 1525.33 2778.79 1506.16 2776.49 1460.4C2776.49 1460.4 2838.26 1439.26 2871.4 1511.88L2855.6 1525.33Z" fill="black"/>
<path d="M2853.16 1526.47C2853.16 1526.47 2776.35 1507.3 2774.05 1461.54C2774.05 1461.54 2835.82 1440.4 2868.96 1513.02L2853.16 1526.47Z" fill="#6C63FF"/>
<path opacity="0.05" d="M2850.55 1537.19C2850.55 1537.19 2772.93 1552.77 2751.27 1512.44C2751.27 1512.44 2797.97 1466.87 2859.08 1518.3L2850.55 1537.19Z" fill="black"/>
<path d="M2850.47 1540.19C2850.47 1540.19 2772.86 1555.76 2751.19 1515.43C2751.19 1515.43 2797.9 1469.87 2859 1521.3L2850.47 1540.19Z" fill="#6C63FF"/>
<path opacity="0.05" d="M2852.42 1553.7C2852.42 1553.7 2788.62 1600.58 2751.98 1573.17C2751.98 1573.17 2775.12 1512.13 2852.22 1532.97L2852.42 1553.7Z" fill="black"/>
<path d="M2852.3 1556.71C2852.3 1556.71 2788.51 1603.58 2751.86 1576.18C2751.86 1576.18 2775.01 1515.14 2852.11 1535.97L2852.3 1556.71Z" fill="#6C63FF"/>
<path opacity="0.05" d="M2861.58 1546.51C2861.58 1546.51 2833.86 1620.66 2788.18 1617.78C2788.18 1617.78 2774.14 1553.98 2850.04 1529.28L2861.58 1546.51Z" fill="black"/>
<path d="M2865.14 1547.8C2865.14 1547.8 2837.43 1621.95 2791.75 1619.08C2791.75 1619.08 2777.71 1555.28 2853.6 1530.57L2865.14 1547.8Z" fill="#6C63FF"/>
<path opacity="0.05" d="M2857.12 1541.82C2857.12 1541.82 2898.99 1609.03 2868.86 1643.46C2868.86 1643.46 2809.77 1615.71 2836.45 1540.46L2857.12 1541.82Z" fill="black"/>
<path d="M2861.35 1541.32C2861.35 1541.32 2903.21 1608.53 2873.08 1642.95C2873.08 1642.95 2813.99 1615.2 2840.67 1539.96L2861.35 1541.32Z" fill="#6C63FF"/>
<path opacity="0.05" d="M2886.8 1533.9C2886.8 1533.9 2928.66 1601.11 2898.53 1635.54C2898.53 1635.54 2839.44 1607.79 2866.12 1532.54L2886.8 1533.9Z" fill="black"/>
<path d="M2889.23 1532.76C2889.23 1532.76 2931.09 1599.97 2900.96 1634.4C2900.96 1634.4 2841.87 1606.65 2868.55 1531.41L2889.23 1532.76Z" fill="#6C63FF"/>
<path opacity="0.05" d="M2880.91 1538.41C2880.91 1538.41 2959.03 1551.14 2965.13 1596.51C2965.13 1596.51 2905.33 1622.71 2866.27 1553.1L2880.91 1538.41Z" fill="black"/>
<path d="M2883.35 1537.27C2883.35 1537.27 2961.47 1550 2967.57 1595.37C2967.57 1595.37 2907.77 1621.57 2868.71 1551.96L2883.35 1537.27Z" fill="#6C63FF"/>
<path opacity="0.05" d="M2892.63 1521.43C2892.63 1521.43 2973.97 1504.76 3004.7 1548.95C3004.7 1548.95 2962.2 1598.55 2886.78 1542.03L2892.63 1521.43Z" fill="black"/>
<path d="M2894.45 1519.07C2894.45 1519.07 2975.79 1502.4 3006.53 1546.59C3006.53 1546.59 2964.02 1596.19 2888.6 1539.68L2894.45 1519.07Z" fill="#6C63FF"/>
<path d="M2863.35 1517.72C2863.35 1517.72 2796.2 1475.81 2808.09 1431.61C2808.09 1431.61 2873.37 1430.54 2882.51 1509.83L2863.35 1517.72Z" fill="#6C63FF"/>
<path opacity="0.05" d="M2863.35 1517.72C2863.35 1517.72 2796.2 1475.81 2808.09 1431.61C2808.09 1431.61 2873.37 1430.54 2882.51 1509.83L2863.35 1517.72Z" fill="black"/>
<path d="M2850.47 1540.19C2850.47 1540.19 2772.86 1555.76 2751.19 1515.43C2751.19 1515.43 2797.9 1469.87 2859 1521.3L2850.47 1540.19Z" fill="#6C63FF"/>
<path opacity="0.05" d="M2850.47 1540.19C2850.47 1540.19 2772.86 1555.76 2751.19 1515.43C2751.19 1515.43 2797.9 1469.87 2859 1521.3L2850.47 1540.19Z" fill="black"/>
<path d="M2865.14 1547.8C2865.14 1547.8 2837.43 1621.95 2791.75 1619.08C2791.75 1619.08 2777.71 1555.28 2853.6 1530.57L2865.14 1547.8Z" fill="#6C63FF"/>
<path opacity="0.05" d="M2865.14 1547.8C2865.14 1547.8 2837.43 1621.95 2791.75 1619.08C2791.75 1619.08 2777.71 1555.28 2853.6 1530.57L2865.14 1547.8Z" fill="black"/>
<path d="M2889.23 1532.76C2889.23 1532.76 2931.09 1599.97 2900.96 1634.4C2900.96 1634.4 2841.87 1606.65 2868.55 1531.41L2889.23 1532.76Z" fill="#6C63FF"/>
<path opacity="0.05" d="M2889.23 1532.76C2889.23 1532.76 2931.09 1599.97 2900.96 1634.4C2900.96 1634.4 2841.87 1606.65 2868.55 1531.41L2889.23 1532.76Z" fill="black"/>
<path d="M2894.45 1519.07C2894.45 1519.07 2975.79 1502.4 3006.53 1546.59C3006.53 1546.59 2964.02 1596.19 2888.6 1539.68L2894.45 1519.07Z" fill="#6C63FF"/>
<path opacity="0.05" d="M2894.45 1519.07C2894.45 1519.07 2975.79 1502.4 3006.53 1546.59C3006.53 1546.59 2964.02 1596.19 2888.6 1539.68L2894.45 1519.07Z" fill="black"/>
<path opacity="0.05" d="M2896.65 1505.45C2896.65 1505.45 2973.06 1472.93 3011.95 1510.13C3011.95 1510.13 2980.17 1567.19 2895.01 1526.81L2896.65 1505.45Z" fill="black"/>
<path opacity="0.05" d="M2895.01 1498.8C2895.01 1498.8 2971.41 1466.27 3010.31 1503.47C3010.31 1503.47 2978.53 1560.53 2893.37 1520.16L2895.01 1498.8Z" fill="black"/>
<path d="M2896.73 1502.45C2896.73 1502.45 2973.13 1469.94 3012.04 1507.13C3012.04 1507.13 2980.26 1564.19 2895.1 1523.82L2896.73 1502.45Z" fill="#6C63FF"/>
<path d="M2924.42 1513.13C2926.29 1522.61 2925.3 1532.43 2921.59 1541.34C2917.88 1550.26 2911.6 1557.87 2903.56 1563.22C2895.52 1568.57 2886.07 1571.42 2876.42 1571.4C2866.76 1571.38 2857.32 1568.5 2849.3 1563.12C2841.28 1557.74 2835.04 1550.1 2831.36 1541.18C2827.67 1532.25 2826.72 1522.43 2828.62 1512.96C2830.52 1503.49 2835.19 1494.79 2842.03 1487.98C2848.87 1481.16 2857.58 1476.52 2867.05 1474.65C2879.77 1472.15 2892.95 1474.79 2903.71 1482.01C2914.47 1489.23 2921.92 1500.42 2924.42 1513.13V1513.13Z" fill="#F7931A"/>
<path d="M2893.05 1507.12C2891.17 1500.82 2885.2 1499.76 2878.08 1500.52L2876.33 1491.61L2870.91 1492.68L2872.61 1501.35C2871.19 1501.64 2869.74 1501.95 2868.3 1502.27L2866.58 1493.54L2861.15 1494.61L2862.91 1503.52C2861.77 1503.77 2860.63 1504.02 2859.49 1504.25L2852.02 1505.72L2853.16 1511.5C2853.16 1511.5 2857.14 1510.64 2857.09 1510.73C2857.8 1510.49 2858.57 1510.55 2859.24 1510.88C2859.91 1511.21 2860.43 1511.79 2860.68 1512.5L2862.68 1522.65C2862.87 1522.61 2863.07 1522.58 2863.26 1522.57L2862.69 1522.68L2865.46 1536.9C2865.5 1537.15 2865.48 1537.41 2865.41 1537.66C2865.35 1537.91 2865.23 1538.14 2865.08 1538.35C2864.92 1538.55 2864.72 1538.72 2864.5 1538.85C2864.28 1538.98 2864.03 1539.06 2863.77 1539.1C2863.85 1539.1 2859.83 1539.87 2859.83 1539.87L2860.03 1546.56L2867.08 1545.17L2870.95 1544.44L2872.73 1553.45L2878.14 1552.38L2876.38 1543.47C2877.88 1543.21 2879.32 1542.93 2880.73 1542.66L2882.47 1551.53L2887.89 1550.46L2886.14 1541.45C2895.15 1539.17 2901.07 1535.59 2900.18 1526.87C2899.46 1519.85 2895.63 1517.42 2890.2 1517.2C2893.03 1514.93 2894.45 1511.72 2893.05 1507.12ZM2889.27 1527.87C2890.6 1534.61 2878.93 1536.11 2875.25 1536.84L2872.9 1524.9C2876.57 1524.17 2887.88 1520.85 2889.26 1527.87H2889.27ZM2883.42 1511.54C2884.63 1517.67 2874.88 1518.84 2871.82 1519.44L2869.69 1508.62C2872.74 1508.01 2882.16 1505.15 2883.42 1511.53V1511.54Z" fill="white"/>
<path opacity="0.05" d="M2279.83 1760.18L2281.99 1792.43C2305.06 1794.45 2310.3 1787.51 2310.3 1787.51C2306.69 1777.41 2303.86 1756.01 2302.1 1739.45C2301.85 1737.07 2301.62 1734.8 2301.4 1732.62L2279.83 1760.18Z" fill="black"/>
<path opacity="0.1" d="M2293.45 1666.76C2291.27 1667.72 2288.89 1668.14 2286.51 1667.98C2284.13 1667.83 2281.82 1667.1 2279.78 1665.86" fill="black"/>
<path d="M2358.4 1487.91C2362.32 1502.12 2375.91 1510.75 2375.91 1510.75C2375.91 1510.75 2383.16 1496.36 2379.24 1482.16C2375.33 1467.95 2361.74 1459.32 2361.74 1459.32C2361.74 1459.32 2354.48 1473.75 2358.4 1487.91Z" fill="#6C63FF"/>
<path d="M2431.66 1567.05C2427.44 1581.17 2434.39 1595.7 2434.39 1595.7C2434.39 1595.7 2448.17 1587.35 2452.38 1573.24C2456.6 1559.12 2449.65 1544.59 2449.65 1544.59C2449.65 1544.59 2435.87 1552.94 2431.66 1567.05Z" fill="#6C63FF"/>
<path d="M2960.08 1657.86C2949.74 1668.35 2949.06 1684.44 2949.06 1684.44C2949.06 1684.44 2965.15 1683.53 2975.49 1673.05C2985.84 1662.57 2986.51 1646.46 2986.51 1646.46C2986.51 1646.46 2970.42 1647.4 2960.08 1657.86Z" fill="#6C63FF"/>
<defs>
<linearGradient id="paint0_linear" x1="2640.95" y1="1954.01" x2="2640.95" y2="1114.69" gradientUnits="userSpaceOnUse">
<stop stop-color="#808080" stop-opacity="0.25"/>
<stop offset="0.54" stop-color="#808080" stop-opacity="0.12"/>
<stop offset="1" stop-color="#808080" stop-opacity="0.1"/>
</linearGradient>
</defs>
</svg>
