<svg width="100" height="100" viewBox="0 0 100 100" fill="none" xmlns="http://www.w3.org/2000/svg">
<circle cx="50" cy="50" r="49.5" fill="white" stroke="#6C63FF"/>
<path d="M38.7917 47.4792C41.7917 53.375 46.625 58.1875 52.5208 61.2083L57.1042 56.625C57.6667 56.0625 58.5 55.875 59.2292 56.125C61.5625 56.8958 64.0833 57.3125 66.6667 57.3125C67.8125 57.3125 68.75 58.25 68.75 59.3958V66.6667C68.75 67.8125 67.8125 68.75 66.6667 68.75C47.1042 68.75 31.25 52.8958 31.25 33.3333C31.25 32.1875 32.1875 31.25 33.3333 31.25H40.625C41.7708 31.25 42.7083 32.1875 42.7083 33.3333C42.7083 35.9375 43.125 38.4375 43.8958 40.7708C44.125 41.5 43.9583 42.3125 43.375 42.8958L38.7917 47.4792Z" fill="#6C63FF"/>
</svg>
