<svg width="1440" height="1441" viewBox="0 0 1440 1441" fill="none" xmlns="http://www.w3.org/2000/svg">
<rect width="1440" height="1440" transform="translate(0 0.312988)" fill="#1B264B"/>
<rect x="23.6064" y="413.719" width="1416.39" height="519.551" fill="#1B264B"/>
<path d="M204.894 108.931C61.7103 78.709 269.803 681.369 140.793 627.959C11.7836 574.55 21.3221 213.314 30.3892 36.6867C39.4562 -139.94 2.38631 381.264 131.396 434.674C175.753 453.038 596.472 852.954 687.144 814.575C827.427 755.196 925.546 631.778 679.514 456.304C1109.09 1727.2 304.188 152.398 204.894 108.931Z" fill="white" fill-opacity="0.05"/>
<path d="M1143.53 354.147C1289.05 297.21 1098.55 1030.5 1228.68 948.719C1358.8 866.937 1335.47 447.796 1319.55 243.525C1303.63 39.2539 1361.17 640.466 1231.04 722.248C1186.3 750.367 770.423 1279.9 676.116 1248.99C530.21 1201.16 425.083 1072.37 670.478 830.691C278.233 2375.65 1043.47 419.839 1143.53 354.147Z" fill="white" fill-opacity="0.05"/>
</svg>
