<svg width="1464" height="509" viewBox="0 0 1464 509" fill="none" xmlns="http://www.w3.org/2000/svg">
<rect width="1464" height="508.522" fill="#1B264B"/>
<rect x="24" y="145.99" width="1440" height="183.474" fill="#1B264B"/>
<path d="M208.308 38.3574C62.7385 27.6848 274.3 240.508 143.14 221.647C11.9797 202.786 21.6772 75.2192 30.8954 12.845C40.1136 -49.5291 2.4258 134.529 133.586 153.39C178.682 159.875 606.413 301.102 698.597 287.549C841.217 266.58 940.971 222.996 690.839 161.029C1127.58 609.832 309.258 53.7073 208.308 38.3574Z" fill="white" fill-opacity="0.05"/>
<path d="M1162.59 124.953C1310.53 104.846 1116.86 363.801 1249.15 334.921C1381.45 306.04 1357.72 158.024 1341.54 85.888C1325.36 13.7516 1383.85 226.064 1251.56 254.944C1206.07 264.874 783.263 451.874 687.385 440.958C539.047 424.068 432.168 378.587 681.653 293.24C282.87 838.829 1060.86 148.152 1162.59 124.953Z" fill="white" fill-opacity="0.05"/>
</svg>
