<svg width="1440" height="1191" viewBox="0 0 1440 1191" fill="none" xmlns="http://www.w3.org/2000/svg">
<path d="M-20.564 -2.80905L1481.48 -543.073C1518.24 -556.296 1558.71 -536.867 1571.38 -499.912L1897.07 449.806C1909.84 487.034 1889.42 527.466 1851.88 539.283L76.4158 1098.19C31.4728 1112.34 -14.3303 1078.94 -14.6018 1031.82L-20.564 -2.80905Z" fill="#1B264B"/>
<path d="M144.717 26.0139L1646.87 -513.969C1683.63 -527.183 1724.09 -507.754 1736.76 -470.803L2057.75 465.199C2070.51 502.419 2050.1 542.842 2012.57 554.669L237.685 1114.02C192.629 1128.22 146.733 1094.63 146.644 1047.39L144.717 26.0139Z" fill="#1B264B"/>
<path d="M129.015 949.673C141.551 931.013 130.079 912.582 110.886 894.983L130.79 871.057L114.864 858.683L95.4925 881.955C91.3038 878.702 86.9625 875.455 82.6382 872.22L102.135 848.764L86.2431 836.415L66.338 860.33C62.8368 857.718 59.4002 855.141 56.1013 852.579L56.1402 852.495L34.2043 835.413L21.2404 850.977C21.2404 850.977 33.1703 859.908 32.8119 859.958C39.2593 864.969 38.5101 870.026 36.6664 873.458L13.9986 900.703C14.5614 901.141 15.0953 901.612 15.5969 902.114C15.0645 901.701 14.5002 901.258 13.895 900.79L-17.8728 938.972C-19.6973 940.608 -23.3539 942.643 -27.87 939.148C-27.8043 939.469 -39.4448 930.149 -39.4448 930.149L-57.0175 945.138L-36.3206 961.233C-32.4668 964.234 -28.7214 967.244 -25.012 970.157L-45.1212 994.339L-29.214 1006.7L-9.29661 982.763C-4.99712 986.239 -0.797605 989.556 3.33254 992.76L-16.4989 1016.59L-0.572603 1028.96L19.5181 1004.82C47.463 1024.22 71.3331 1032.61 92.7933 1011.43C110.072 994.371 107.422 978.712 95.001 963.565C107.777 966.428 119.867 963.345 129.015 949.673ZM63.6958 984.105C48.6624 1002.2 16.5129 973.832 5.72503 965.434L32.4007 933.375C43.1825 941.787 79.4087 965.252 63.6958 984.105ZM93.9167 933.11C80.2254 949.561 53.5844 925.698 44.5943 918.716L68.7932 889.618C77.7778 896.625 108.189 915.952 93.9167 933.11Z" fill="#F7931A" fill-opacity="0.1"/>
<path d="M587.534 323.015C579.117 307.865 562.924 308.763 544.74 315.099L535.213 293.127L521.625 299.198L530.888 320.577C527.315 322.175 523.696 323.876 520.091 325.57L510.745 304.04L497.185 310.099L506.705 332.067C503.79 333.442 500.921 334.786 498.107 336.044L498.063 335.987L479.322 344.336L485.514 358.639C485.514 358.639 495.465 353.968 495.38 354.224C500.882 351.767 504.038 354.112 505.738 356.591L516.587 381.613C517.067 381.398 517.561 381.215 518.064 381.065C517.611 381.268 517.126 381.482 516.611 381.713L531.814 416.78C532.312 418.59 532.474 421.765 528.63 423.491C528.868 423.565 518.751 427.902 518.751 427.902L523.033 445.06L540.701 437.175C543.994 435.709 547.257 434.317 550.443 432.914L560.074 455.116L573.651 449.054L564.117 427.068C567.877 425.478 571.496 423.897 575.017 422.32L584.503 444.209L598.092 438.138L588.481 415.963C610.765 404.464 624.297 391.656 617.13 369.651C611.358 351.933 599.945 347.977 585.648 350.705C591.794 343.255 593.714 334.09 587.534 323.015ZM589.13 379.022C596.342 395.625 566.632 406.645 557.417 410.751L544.653 381.307C553.875 377.209 581.633 361.689 589.13 379.022ZM564.794 340.305C571.343 355.416 546.483 364.417 538.815 367.846L527.226 341.129C534.909 337.714 557.961 324.55 564.794 340.305Z" fill="#F7931A" fill-opacity="0.1"/>
<path d="M1378.53 535.015C1370.12 519.865 1353.92 520.763 1335.74 527.099L1326.21 505.127L1312.62 511.198L1321.89 532.577C1318.32 534.175 1314.7 535.876 1311.09 537.57L1301.74 516.04L1288.19 522.099L1297.7 544.067C1294.79 545.442 1291.92 546.786 1289.11 548.044L1289.06 547.987L1270.32 556.336L1276.51 570.639C1276.51 570.639 1286.46 565.968 1286.38 566.224C1291.88 563.767 1295.04 566.112 1296.74 568.591L1307.59 593.613C1308.07 593.398 1308.56 593.215 1309.06 593.065C1308.61 593.268 1308.13 593.482 1307.61 593.713L1322.81 628.78C1323.31 630.59 1323.47 633.765 1319.63 635.491C1319.87 635.565 1309.75 639.902 1309.75 639.902L1314.03 657.06L1331.7 649.175C1334.99 647.709 1338.26 646.317 1341.44 644.914L1351.07 667.116L1364.65 661.054L1355.12 639.068C1358.88 637.478 1362.5 635.897 1366.02 634.32L1375.5 656.209L1389.09 650.138L1379.48 627.963C1401.77 616.464 1415.3 603.656 1408.13 581.651C1402.36 563.933 1390.94 559.977 1376.65 562.705C1382.79 555.255 1384.71 546.09 1378.53 535.015ZM1380.13 591.022C1387.34 607.625 1357.63 618.645 1348.42 622.751L1335.65 593.307C1344.88 589.209 1372.63 573.689 1380.13 591.022ZM1355.79 552.305C1362.34 567.416 1337.48 576.417 1329.82 579.846L1318.23 553.129C1325.91 549.714 1348.96 536.55 1355.79 552.305Z" fill="#F7931A" fill-opacity="0.1"/>
<path d="M1264.35 821.896C1229.16 827.882 1219.82 859.96 1219.69 899.626L1170.48 903.102L1172.97 933.659L1220.85 930.29C1221.51 938.325 1222.34 946.521 1223.16 954.685L1174.94 958.111L1177.43 988.603L1226.63 985.14C1227.3 991.743 1227.95 998.238 1228.47 1004.57L1228.33 1004.61L1231.73 1046.74L1263.75 1044.5C1263.75 1044.5 1261.49 1021.97 1261.93 1022.31C1260.92 1009.93 1267.63 1005.41 1273.61 1003.8L1329.66 999.844C1329.57 998.764 1329.55 997.68 1329.6 996.599C1329.69 997.619 1329.77 998.707 1329.87 999.866L1408.4 994.324C1412.26 994.594 1418.54 996.453 1419.27 1005.1C1419.57 1004.69 1421.08 1027.32 1421.08 1027.32L1457.34 1030.74L1454.11 991.012C1453.52 983.611 1453.05 976.319 1452.5 969.17L1502.23 965.649L1499.74 935.122L1450.5 938.599C1449.98 930.207 1449.39 922.093 1448.73 914.174L1497.75 910.72L1495.26 880.163L1445.6 883.662C1438.5 832.495 1422.88 797.438 1375.22 796.305C1336.84 795.396 1321.34 814.865 1316.86 844.51C1306.59 827.469 1290.1 817.469 1264.35 821.896ZM1374.26 857.121C1411.46 854.472 1412.54 919.737 1414.21 940.452L1348.27 945.103C1346.62 924.38 1335.46 859.827 1374.26 857.121ZM1282.38 877.911C1316.23 875.528 1316.7 929.989 1318.12 947.234L1258.28 951.469C1256.9 934.204 1247.1 880.405 1282.38 877.911Z" fill="#F7931A" fill-opacity="0.04"/>
<path d="M120.611 -498.669L-711.075 -231.128C-748.377 -219.129 -768.565 -178.849 -755.854 -141.784L-531.919 511.215C-519.088 548.63 -477.83 567.99 -440.853 553.948L484.244 202.633C526.25 186.681 542.562 135.846 517.681 98.4311L120.611 -498.669Z" fill="white" fill-opacity="0.04"/>
<path d="M377.055 -229.204L-453.53 42.6398C-490.638 54.7849 -510.637 94.9409 -497.971 131.874L-345.455 576.615C-332.701 613.804 -291.829 633.2 -254.954 619.56L664.934 279.28C709.665 262.733 725.113 207.275 695.378 169.985L377.055 -229.204Z" fill="white" fill-opacity="0.04"/>
<path opacity="0.1" d="M840.199 544.204C869.231 527.177 914.805 523.705 956.287 525.069C1086.59 529.323 1204.2 570.706 1305.94 617.522C1342.77 634.475 1379.03 652.742 1402.94 676.082C1451.61 723.592 1437.17 789.407 1369.5 828.546C1346.47 841.865 1318.56 852.109 1289.9 861.112C1238.94 877.209 1183.99 890.119 1126.16 893.84C1084.92 896.456 1043.18 894.323 1002.18 890.665C887.644 880.409 775.223 857.875 680.991 819.145C639.659 802.193 600.705 781.11 583.69 753.666C566.675 726.221 577.552 691.472 619.758 675.226C637.222 668.517 658.079 665.479 678.513 662.639C708.585 658.447 739.139 654.305 766.275 645.785C794.309 636.98 827.5 619.953 821.953 600.47C815.973 579.561 811.2 561.207 840.199 544.204Z" fill="#6C63FF"/>
<path opacity="0.1" d="M678.197 669.893C694.143 669.893 707.071 667.045 707.071 663.531C707.071 660.018 694.143 657.169 678.197 657.169C662.25 657.169 649.322 660.018 649.322 663.531C649.322 667.045 662.25 669.893 678.197 669.893Z" fill="#6C63FF"/>
<path opacity="0.1" d="M1289.99 801.548C1305.93 801.548 1318.86 798.7 1318.86 795.186C1318.86 791.672 1305.93 788.824 1289.99 788.824C1274.04 788.824 1261.11 791.672 1261.11 795.186C1261.11 798.7 1274.04 801.548 1289.99 801.548Z" fill="#6C63FF"/>
<path opacity="0.1" d="M962.282 651.986C972.842 651.986 981.402 650.559 981.402 648.799C981.402 647.038 972.842 645.611 962.282 645.611C951.723 645.611 943.163 647.038 943.163 648.799C943.163 650.559 951.723 651.986 962.282 651.986Z" fill="#6C63FF"/>
<path opacity="0.1" d="M1087.02 730.115C1097.58 730.115 1106.14 728.688 1106.14 726.928C1106.14 725.167 1097.58 723.74 1087.02 723.74C1076.46 723.74 1067.9 725.167 1067.9 726.928C1067.9 728.688 1076.46 730.115 1087.02 730.115Z" fill="#6C63FF"/>
<path opacity="0.1" d="M921.989 709.082C932.549 709.082 941.109 707.655 941.109 705.894C941.109 704.134 932.549 702.707 921.989 702.707C911.43 702.707 902.87 704.134 902.87 705.894C902.87 707.655 911.43 709.082 921.989 709.082Z" fill="#6C63FF"/>
<path opacity="0.1" d="M767.331 700.81C777.89 700.81 786.45 699.384 786.45 697.623C786.45 695.863 777.89 694.436 767.331 694.436C756.772 694.436 748.212 695.863 748.212 697.623C748.212 699.384 756.772 700.81 767.331 700.81Z" fill="#6C63FF"/>
<path opacity="0.1" d="M727.03 757.907C737.59 757.907 746.15 756.48 746.15 754.72C746.15 752.96 737.59 751.533 727.03 751.533C716.471 751.533 707.911 752.96 707.911 754.72C707.911 756.48 716.471 757.907 727.03 757.907Z" fill="#6C63FF"/>
<path opacity="0.1" d="M1163.49 656.475C1189.67 656.475 1210.89 650.778 1210.89 643.751C1210.89 636.724 1189.67 631.027 1163.49 631.027C1137.31 631.027 1116.08 636.724 1116.08 643.751C1116.08 650.778 1137.31 656.475 1163.49 656.475Z" fill="#6C63FF"/>
<path d="M660.358 645.636C660.358 645.636 669.274 645.227 671.951 642.375C674.629 639.522 685.657 636.112 686.322 640.688C686.987 645.264 699.711 663.432 689.649 663.556C679.586 663.681 666.28 661.213 663.593 658.782C660.907 656.351 660.358 645.636 660.358 645.636Z" fill="#A8A8A8"/>
<path opacity="0.2" d="M689.831 661.932C679.777 662.056 666.463 659.6 663.785 657.169C661.747 655.309 660.932 648.662 660.658 645.586H660.358C660.358 645.586 660.924 656.301 663.602 658.732C666.28 661.163 679.594 663.618 689.657 663.507C692.559 663.507 693.557 661.932 693.507 659.65C693.1 661.076 691.994 661.932 689.831 661.932Z" fill="black"/>
<path d="M1293.71 736.948C1293.71 736.948 1297.04 743.447 1292.17 753.256C1287.31 763.066 1283.29 771.338 1284.91 777.452C1284.91 777.452 1292.26 759.246 1298.22 758.986C1304.18 758.725 1300.28 747.911 1293.71 736.948Z" fill="#FC6681"/>
<path opacity="0.1" d="M1293.71 736.948C1294 737.579 1294.23 738.268 1294.39 738.995C1300.21 749.213 1303.33 758.75 1297.71 758.986C1292.49 759.209 1286.23 773.136 1284.72 776.658C1284.77 776.928 1284.83 777.193 1284.91 777.452C1284.91 777.452 1292.25 759.246 1298.21 758.986C1304.17 758.725 1300.28 747.911 1293.71 736.948Z" fill="black"/>
<path d="M1299.9 745.233C1299.9 747.514 1299.73 749.375 1299.52 749.375C1299.31 749.375 1299.14 747.514 1299.14 745.233C1299.14 742.951 1299.35 743.992 1299.56 743.992C1299.77 743.992 1299.9 742.938 1299.9 745.233Z" fill="#FFD037"/>
<path d="M1302.03 747.961C1300.68 749.052 1299.54 749.71 1299.4 749.437C1299.27 749.164 1300.32 748.048 1301.66 746.956C1302.99 745.865 1302.49 746.659 1302.58 746.956C1302.67 747.254 1303.38 746.87 1302.03 747.961Z" fill="#FFD037"/>
<path d="M1276.12 736.948C1276.12 736.948 1272.79 743.447 1277.65 753.256C1282.52 763.066 1286.54 771.338 1284.91 777.452C1284.91 777.452 1277.56 759.246 1271.61 758.986C1265.65 758.725 1269.54 747.911 1276.12 736.948Z" fill="#FC6681"/>
<path opacity="0.1" d="M1276.12 736.948C1275.83 737.58 1275.6 738.268 1275.43 738.995C1269.61 749.213 1266.49 758.75 1272.11 758.986C1277.33 759.209 1283.6 773.136 1285.1 776.658C1285.05 776.918 1284.99 777.191 1284.92 777.452C1284.92 777.452 1277.57 759.246 1271.62 758.986C1265.66 758.725 1269.54 747.911 1276.12 736.948Z" fill="black"/>
<path d="M1269.92 745.233C1269.92 747.514 1270.1 749.375 1270.31 749.375C1270.53 749.375 1270.69 747.514 1270.69 745.233C1270.69 742.951 1270.48 743.992 1270.26 743.992C1270.05 743.992 1269.92 742.938 1269.92 745.233Z" fill="#FFD037"/>
<path d="M1267.8 747.961C1269.15 749.052 1270.29 749.71 1270.42 749.437C1270.54 749.164 1269.51 748.048 1268.17 746.956C1266.82 745.865 1267.33 746.659 1267.25 746.956C1267.17 747.254 1266.45 746.87 1267.8 747.961Z" fill="#FFD037"/>
<path d="M1270.99 776.609C1270.99 776.609 1280.3 776.174 1283.1 773.198C1285.9 770.222 1297.43 766.663 1298.13 771.437C1298.83 776.212 1312.12 795.211 1301.61 795.335C1291.09 795.459 1277.17 792.855 1274.38 790.374C1271.58 787.894 1270.99 776.609 1270.99 776.609Z" fill="#A8A8A8"/>
<path opacity="0.2" d="M1301.8 793.673C1291.28 793.797 1277.36 791.192 1274.56 788.712C1272.43 786.778 1271.58 779.82 1271.29 776.608H1270.99C1270.99 776.608 1271.58 787.77 1274.38 790.349C1277.18 792.929 1291.09 795.459 1301.61 795.31C1304.64 795.31 1305.69 793.66 1305.63 791.279C1305.22 792.743 1304.05 793.648 1301.8 793.673Z" fill="black"/>
<path opacity="0.1" d="M1366.1 545.209C1340.6 577.659 1350.48 625.098 1366.71 663.071C1372.11 675.789 1378.3 689.24 1375.98 702.876C1373.17 719.549 1358.29 731.749 1342.66 738.208C1314.18 749.99 1280.08 747.178 1253.92 730.899C1231.3 716.83 1215.1 693.945 1192.11 680.517C1153.61 658.042 1104.61 666.525 1062.81 682.008C1033.23 692.964 1000.9 707.203 971.507 695.761C950.824 687.702 936.531 668.101 928.743 647.318C924.98 637.274 922.253 626.457 915.075 618.469C910.803 613.74 905.232 610.387 899.531 607.552C847.418 581.723 781.599 595.553 730.977 566.897C696.789 547.543 674.909 511.029 665.213 472.962C655.516 434.896 656.652 394.975 659.109 355.765C660.855 327.904 663.992 298.159 681.801 276.649C700.637 253.904 732.955 245.444 762.152 249.762C791.349 254.081 817.842 269.51 841.167 287.651C870.287 310.335 897.282 338.582 933.031 347.776C957.376 354.034 982.988 350.612 1008.09 349.422C1050.07 347.436 1092.06 351.848 1133.8 356.677C1173.76 361.312 1214.01 366.381 1252.09 379.384C1279.03 388.585 1300.63 405.282 1326.07 416.948C1342.65 424.551 1360.73 426.652 1376.43 436.341C1395.75 448.27 1413.52 469.022 1408.55 493.313C1403.84 516.399 1379.65 527.98 1366.1 545.209Z" fill="#6C63FF"/>
<path d="M1248.11 660.259C1245.07 656.691 1241.63 653.491 1237.85 650.725C1238.64 650.153 1239.41 649.579 1240.17 649.002C1249.92 641.755 1258.27 634.322 1260.06 628.984C1264.85 614.822 1313.97 588.862 1313.97 588.862C1313.97 588.862 1263.66 598.303 1237.3 582.959C1221.58 573.804 1197.33 572.212 1180.32 572.421L1180.44 572.127L1180.68 571.617C1180.81 571.331 1180.94 571.053 1181.08 570.767C1181.22 570.481 1181.3 570.304 1181.43 570.072L1181.53 569.887C1181.7 569.547 1181.89 569.207 1182.08 568.867C1182.55 568.032 1183.06 567.198 1183.59 566.363V566.317C1184.96 564.206 1186.45 562.173 1188.05 560.229L1188.11 560.152C1189.38 558.606 1190.71 557.061 1192.05 555.647L1192.13 555.562L1193.07 554.566L1193.22 554.411C1194.5 553.075 1195.77 551.807 1197.01 550.625L1197.3 550.355L1198.07 549.652L1198.42 549.32L1199.11 548.678L1199.47 548.346L1200.5 547.419L1201.06 546.925L1201.48 546.561L1202.09 546.028L1202.39 545.766L1203.17 545.086L1203.24 545.024C1205.73 542.891 1207.38 541.648 1207.38 541.648H1207.34C1206.55 542.215 1205.72 542.731 1204.86 543.193L1204.74 543.247L1203.97 543.633L1203.75 543.734L1203.07 544.043L1202.68 544.197L1202.14 544.421L1201.61 544.614L1201.19 544.769L1200.53 544.993L1200.22 545.093L1199.37 545.348L1199.23 545.387L1198.22 545.657C1180.75 550.162 1155.91 543.502 1153.63 542.868L1153.48 542.83C1153.48 542.83 1143.5 540.767 1130.56 538.913C1136.56 526.643 1142.56 515.101 1148.13 504.825C1152.92 515.332 1161.08 523.947 1171.3 529.317C1171.69 528.884 1172.08 528.436 1172.4 527.988C1173.56 528.652 1174.25 528.969 1174.25 528.969C1177.49 525.257 1179.75 520.788 1180.82 515.974C1184.14 519.128 1187.9 521.792 1191.98 523.885C1192.31 523.509 1192.64 523.126 1192.95 522.734C1193.42 522.981 1193.67 523.105 1193.67 523.105C1200.14 515.819 1201.85 506.409 1201.13 496.836C1213.15 501.412 1226.42 501.47 1238.48 496.998C1238.48 496.952 1238.48 496.898 1238.48 496.852C1239.6 496.473 1240.21 496.21 1240.21 496.21C1239.23 489.048 1235.57 483.076 1230.6 478.116C1253.68 478.595 1266.14 464.286 1266.14 464.286L1266 464.108C1266.95 463.22 1267.43 462.671 1267.43 462.671C1264.38 458.371 1260.53 454.699 1256.09 451.855C1266.63 445.62 1271.2 437.546 1271.2 437.546C1270.93 437.299 1270.66 437.059 1270.42 436.82C1271 435.985 1271.29 435.483 1271.29 435.483C1270.71 434.934 1270.11 434.417 1269.5 433.938C1269.9 433.343 1270.09 433.003 1270.09 433.003C1260.82 424.28 1248.52 421.136 1236.32 420.772C1243.69 412.58 1248.23 402.231 1249.26 391.259C1239.99 388.238 1230.52 390.324 1221.9 394.666C1222.6 386.65 1221.44 378.58 1218.51 371.086C1220.88 372.907 1223.42 374.481 1226.11 375.783C1226.44 375.402 1226.75 375.013 1227.06 374.617C1227.53 374.856 1227.83 374.972 1227.83 374.972C1234.18 367.586 1235.74 358.152 1234.87 348.626C1246.96 353.015 1260.23 352.867 1272.22 348.209V348.062C1273.33 347.668 1273.93 347.397 1273.93 347.397C1272.84 340.251 1269.12 334.333 1264.03 329.45C1287.12 329.573 1299.35 315.071 1299.35 315.071L1299.21 314.894C1300.15 313.99 1300.62 313.433 1300.62 313.433C1297.49 309.195 1293.59 305.597 1289.11 302.833C1299.54 296.436 1303.98 288.293 1303.98 288.293C1303.71 288.045 1303.43 287.814 1303.16 287.574C1303.72 286.724 1304 286.222 1304 286.222C1303.41 285.681 1302.8 285.171 1302.19 284.677C1302.58 284.074 1302.77 283.734 1302.77 283.734C1293.37 275.158 1281.02 272.199 1268.78 272.029C1276.02 263.723 1280.39 253.306 1281.24 242.322C1271.89 239.44 1262.49 241.681 1253.94 246.185C1254.6 237.462 1253 228.716 1249.3 220.789C1248.67 220.921 1248.05 221.075 1247.44 221.238C1247.29 220.928 1247.21 220.774 1247.21 220.774C1246.96 220.233 1246.8 219.94 1246.8 219.94C1236.2 222.08 1228.59 229.721 1223.18 238.899C1222.78 239.579 1222.41 240.267 1222.01 240.962C1217.99 231.038 1211 222.598 1202 216.795C1194.1 224.251 1191.82 234.851 1192.25 245.575C1192.25 246.301 1192.33 247.027 1192.37 247.754C1183.33 240.687 1172.24 236.745 1160.76 236.52C1159.13 242.886 1159.9 249.152 1162.14 255.062C1154.4 253.872 1146.5 254.424 1139 256.677C1139 256.778 1139 256.878 1139 256.979C1137.9 257.272 1137.29 257.489 1137.29 257.489C1137.89 266.466 1142.7 273.891 1149.32 279.894C1139.14 281.403 1129.62 285.853 1121.94 292.696C1122.2 293.15 1122.46 293.59 1122.72 294.018C1122.17 294.489 1121.9 294.79 1121.9 294.79C1126.62 303.127 1134.88 307.871 1144.09 310.443C1134.71 316.046 1127.34 324.469 1123.02 334.51C1123.25 334.665 1123.47 334.812 1123.7 334.966C1123.23 335.986 1123.01 336.581 1123.01 336.581C1130.88 342.19 1140.43 343.048 1149.91 341.526C1148.38 346.978 1147.74 352.642 1148.01 358.299C1142.19 366.465 1136.29 375.011 1130.46 383.656C1129.41 383.594 1128.83 383.602 1128.83 383.602C1128.51 384.772 1128.27 385.962 1128.11 387.164C1124.89 391.954 1121.71 396.76 1118.58 401.527C1114.59 401.664 1110.63 402.305 1106.8 403.435C1106.8 403.535 1106.8 403.636 1106.8 403.736C1105.69 404.014 1105.08 404.215 1105.08 404.215C1105.08 404.339 1105.08 404.463 1105.08 404.586C1099.9 397.594 1092.65 392.363 1084.84 388.462C1095.04 384.14 1103.61 376.682 1109.29 367.169C1102.17 360.54 1092.72 358.477 1083.02 358.801C1087.5 351.283 1089.97 342.736 1090.19 333.985C1089.56 333.823 1088.94 333.699 1088.31 333.583C1088.31 333.243 1088.31 333.065 1088.31 333.065C1088.31 332.471 1088.31 332.146 1088.31 332.146C1077.83 329.473 1067.59 333.05 1058.63 338.953C1057.96 339.393 1057.31 339.841 1056.66 340.305C1057.48 329.678 1054.96 319.06 1049.46 309.933C1039.03 313.217 1032.26 321.747 1027.87 331.567C1027.57 332.231 1027.29 332.903 1027.01 333.583C1022.03 323.312 1013.81 314.961 1003.62 309.81C999.314 314.824 997.22 320.789 996.586 327.078C990.145 322.655 982.796 319.73 975.077 318.517L974.969 318.803C973.848 318.587 973.199 318.517 973.199 318.517C969.738 326.846 970.773 335.607 973.972 343.867C964.15 340.846 953.665 340.728 943.778 343.527C943.778 344.044 943.848 344.554 943.91 345.072C943.214 345.265 942.843 345.389 942.843 345.389C943.369 354.923 948.669 362.757 955.808 369.054C944.877 370.038 934.524 374.402 926.186 381.539C926.317 381.779 926.456 382.003 926.588 382.234C925.715 382.945 925.251 383.386 925.251 383.386C929.825 391.83 938.022 396.736 947.209 399.471C941.88 405.311 937.984 412.31 935.828 419.915C936.523 420.286 937.219 420.618 937.93 420.935C937.775 421.468 937.706 421.769 937.706 421.769C947.556 427.092 958.829 425.833 969.305 421.97C966.13 443.966 979.21 459.488 979.21 459.488C979.743 459.256 980.269 459.009 980.755 458.715C981.528 459.797 981.999 460.377 981.999 460.377C986.552 458.382 990.535 455.283 993.589 451.36C995.24 455.607 997.496 459.594 1000.29 463.197C1000.76 462.996 1001.21 462.782 1001.66 462.555C1001.98 462.972 1002.16 463.197 1002.16 463.197C1006.71 461.213 1010.7 458.128 1013.75 454.219C1014.78 476.748 1015.66 513.911 1013.11 552.24C1011.57 575.635 1008.73 599.47 1003.84 620.686C994.979 584.025 983.552 539.616 971.986 502.677C959.377 462.401 935.086 423.94 912.549 388.114C896.471 362.564 876.105 331.219 857.006 304.803C874.73 310.691 888.683 304.51 888.683 304.51C888.683 304.51 888.683 304.363 888.637 304.293C889.881 303.892 890.553 303.59 890.553 303.59C889.639 298.435 887.731 293.507 884.936 289.081C897.167 287.852 904.784 282.452 904.784 282.452C904.653 282.112 904.506 281.787 904.367 281.455C905.256 280.937 905.727 280.605 905.727 280.605C905.433 279.832 905.117 279.145 904.784 278.434C905.403 278.063 905.727 277.831 905.727 277.831C901.091 266.057 891.318 258.053 880.432 252.621C890.635 248.299 899.196 240.841 904.877 231.328C897.761 224.699 888.312 222.636 878.608 222.96C883.105 215.456 885.593 206.92 885.832 198.175C885.206 198.013 884.581 197.889 883.955 197.773C883.955 197.433 883.955 197.256 883.955 197.256C883.955 196.661 883.955 196.336 883.955 196.336C873.471 193.663 863.233 197.24 854.271 203.143C853.607 203.583 852.95 204.031 852.301 204.495C853.123 193.868 850.605 183.25 845.1 174.124C834.67 177.407 827.902 185.937 823.513 195.757C823.212 196.421 822.934 197.093 822.656 197.773C817.669 187.502 809.451 179.151 799.261 174C794.958 179.014 792.864 184.979 792.23 191.268C785.787 186.844 778.435 183.919 770.713 182.707L770.605 182.993C769.485 182.777 768.836 182.707 768.836 182.707C765.374 191.036 766.41 199.798 769.608 208.057C759.753 205.015 749.227 204.896 739.306 207.717C739.306 208.234 739.376 208.744 739.438 209.262C738.742 209.455 738.372 209.579 738.372 209.579C738.897 219.113 744.197 226.947 751.336 233.244C740.408 234.238 730.06 238.61 721.729 245.753C721.861 245.992 722 246.216 722.131 246.448C721.258 247.159 720.795 247.599 720.795 247.599C725.368 256.044 733.566 260.95 742.752 263.685C737.424 269.524 733.528 276.523 731.372 284.128C732.067 284.499 732.762 284.831 733.473 285.148C733.319 285.681 733.249 285.982 733.249 285.982C743.1 291.306 754.372 290.046 764.849 286.183C761.674 308.18 774.754 323.701 774.754 323.701C775.287 323.47 775.812 323.222 776.299 322.929C777.072 324.01 777.543 324.59 777.543 324.59C782.096 322.595 786.079 319.496 789.132 315.573C790.791 319.839 793.061 323.842 795.869 327.456C796.338 327.255 796.796 327.042 797.245 326.815C797.561 327.232 797.747 327.456 797.747 327.456C806.74 323.593 812.349 315.774 815.818 306.835C828.435 320.07 844.482 322.226 848.577 322.566C872.064 355.742 900.581 398.853 918.699 436.078C918.699 436.078 955.978 508.108 979.736 583.608C967.66 570.86 951.149 552.364 947.448 542.884C941.46 527.54 867.189 542.884 867.189 542.884L867.042 542.922C864.725 543.556 839.924 550.216 822.447 545.712L821.458 545.441L821.319 545.403L820.469 545.148L820.16 545.047L819.496 544.823L819.071 544.669L818.546 544.475L818.005 544.251L817.618 544.097L816.931 543.788L816.714 543.687L815.942 543.301L815.826 543.247C814.967 542.786 814.138 542.269 813.346 541.702H813.307C820.045 546.978 826.255 552.896 831.85 559.371L832.028 559.588L833.001 560.777L833.256 561.094C833.575 561.496 833.89 561.898 834.199 562.3L834.384 562.539C834.739 563.013 835.09 563.489 835.435 563.968L835.69 564.339C835.932 564.679 836.169 565.022 836.401 565.367L836.802 565.969L837.32 566.742L837.745 567.422L838.178 568.195C838.317 568.434 838.463 568.674 838.595 568.913L838.649 569.014C838.873 569.423 839.097 569.825 839.306 570.234L839.522 570.675C839.702 571.035 839.872 571.393 840.032 571.749L840.21 572.143L840.349 572.475C823.351 572.266 799.091 573.858 783.368 583.013C757.015 598.357 706.702 588.916 706.702 588.916C706.702 588.916 755.817 614.876 760.607 629.038C762.523 634.693 771.864 642.783 782.418 650.47L784.69 652.108C781.591 654.553 778.744 657.302 776.191 660.313C752.24 688.637 694.734 716.961 694.734 716.961H694.904L695.399 717.007L696.249 717.085L697.794 717.232H698.057C710.357 718.39 753.685 722.848 778.408 730.281C779.297 730.551 780.162 730.822 780.997 731.092C788.182 733.449 828.898 729.91 856.465 721.651C857.238 721.419 858.011 721.21 858.783 721.01L859.471 720.84C860.048 720.701 860.627 720.569 861.209 720.446L861.897 720.299C862.669 720.144 863.442 719.997 864.215 719.874H864.199C864.972 719.742 865.744 719.634 866.517 719.534L867.22 719.449L868.912 719.263L869.646 719.194C870.347 719.132 871.045 719.083 871.74 719.047H871.964C872.737 719.009 873.455 718.978 874.204 718.962H874.977H877.295H878.887L879.968 719.001L881.513 719.078L882.618 719.155L883.576 719.233L884.805 719.341L885.384 719.403L886.705 719.542L887.648 719.658L888.359 719.75L889.402 719.897L889.981 719.982C889.981 720.144 889.919 720.322 889.889 720.492C889.889 720.492 890.885 726.047 897.421 731.478C886.35 734.662 877.164 738.324 870.303 742.295C869.893 742.519 869.53 742.759 869.128 742.99C869.407 742.99 869.677 742.929 869.971 742.905C870.264 742.882 870.488 742.905 870.743 742.905H1152.46C1152.72 742.905 1152.98 742.905 1153.23 742.905C1153.49 742.905 1153.78 742.952 1154.06 742.99C1154.29 743.015 1154.52 743.051 1154.74 743.099C1154.98 743.132 1155.22 743.183 1155.46 743.253C1154.94 742.923 1154.43 742.604 1153.91 742.295C1145.34 737.289 1133.13 732.846 1118.18 729.161C1122.67 726.843 1125.17 724.216 1126.22 721.435C1127.1 721.234 1127.99 721.04 1128.93 720.855C1132.58 720.111 1136.28 719.567 1139.99 719.225L1141.54 719.101L1142.31 719.039C1150.89 718.381 1159.52 719.25 1167.8 721.604C1195.36 729.864 1236.08 733.402 1243.27 731.046C1244.11 730.768 1244.97 730.497 1245.86 730.235C1270.53 722.81 1313.85 718.344 1326.21 717.185H1326.48L1328.02 717.038L1328.87 716.961L1329.37 716.915H1329.54C1329.54 716.915 1272.07 688.583 1248.11 660.259ZM1215.08 368.366L1214.69 368.451C1214.69 368.327 1214.74 368.204 1214.76 368.08L1215.08 368.366ZM1098.5 432.763C1096.81 433.675 1095.32 434.587 1094.07 435.429C1093 431.727 1091.42 428.193 1089.37 424.929C1095.46 424.34 1101.38 422.58 1106.8 419.745C1103.93 424.195 1101.17 428.545 1098.5 432.763ZM1103.71 454.481C1106.08 455.6 1108.54 456.53 1111.06 457.263C1105.13 460.687 1099.94 465.248 1095.79 470.683C1098.22 465.329 1100.88 459.921 1103.71 454.481ZM1027.37 552.286C1029.55 516.29 1030.88 477.343 1029.03 449.923C1036.5 454.818 1045.09 457.742 1053.99 458.422L1054.03 458.275C1055.2 458.399 1055.86 458.422 1055.86 458.422C1058.06 451.53 1057.36 444.607 1054.96 438.017C1065.6 443.331 1077.79 444.618 1089.3 441.641C1089.85 442.627 1090.47 443.579 1091.14 444.492C1076.19 468.443 1066.01 485.633 1066.01 485.633C1055.65 501.217 1038.58 555.709 1023.06 610.441C1024.49 594.108 1026.08 573.711 1027.37 552.286ZM1073.21 542.845C1070.36 550.17 1059.86 562.864 1049.66 574.144C1063.04 540.45 1076.45 511.91 1083.94 496.558C1086.06 492.208 1088.1 487.82 1090.12 483.424C1097.81 488.832 1107.12 489.767 1116.39 488.43C1114.08 495.965 1113.58 503.935 1114.9 511.701C1115.68 511.747 1116.45 511.755 1117.22 511.74C1117.31 512.288 1117.38 512.582 1117.38 512.582C1120.91 512.8 1124.45 512.378 1127.84 511.338C1123.71 519.698 1119.58 528.336 1115.52 537.089C1096.22 535.173 1076.21 535.181 1073.22 542.837L1073.21 542.845ZM1215.74 369.656C1215.6 369.347 1215.51 369.185 1215.51 369.185C1215.36 368.837 1215.24 368.59 1215.18 368.459C1215.59 368.819 1215.99 369.164 1216.39 369.494L1215.74 369.656ZM1162.33 364.039C1168.92 361.783 1174.75 357.403 1179.79 352.164C1183.24 362.347 1189.8 371.186 1198.55 377.429C1195.74 380.301 1193.27 383.496 1191.21 386.947C1190.8 387.62 1190.43 388.307 1190.01 388.995C1186.14 379.017 1179.29 370.477 1170.39 364.542C1162.36 371.874 1159.92 382.435 1160.18 393.128C1160.18 393.855 1160.23 394.581 1160.27 395.315C1155.89 391.739 1150.95 388.912 1145.65 386.947C1151.36 378.866 1157.02 371.171 1162.36 364.039H1162.33Z" fill="url(#paint0_linear)"/>
<path d="M993.511 599.454C993.511 599.454 955.112 561.056 949.294 545.936C943.476 530.816 871.337 545.936 871.337 545.936C871.337 545.936 835.272 556.405 818.978 544.769C818.978 544.769 844.574 564.548 846.9 580.835C849.225 597.121 939.984 639.012 939.984 639.012L993.511 689.039L1012.13 678.57L993.511 599.454Z" fill="#6C63FF"/>
<path opacity="0.05" d="M1012.13 678.578L993.511 689.039L978.546 675.085L939.992 639.02C939.992 639.02 849.241 597.098 846.908 580.873C846.35 577.604 845.206 574.464 843.532 571.602C836.192 558.282 819.874 545.48 819.017 544.808C835.319 556.397 871.338 545.951 871.338 545.951C871.338 545.951 943.477 530.823 949.295 545.951C955.112 561.079 993.511 599.47 993.511 599.47L1012.13 678.578Z" fill="black"/>
<path opacity="0.1" d="M987.693 675.085H978.545L939.992 639.02C939.992 639.02 849.241 597.098 846.908 580.873C846.35 577.604 845.206 574.464 843.531 571.602C850.875 571.574 858.216 571.942 865.52 572.707C891.116 598.303 927.182 611.105 927.182 611.105C963.263 587.827 987.693 675.085 987.693 675.085Z" fill="black"/>
<path d="M986.535 678.578H942.318L822.478 673.942C822.478 673.942 804.407 663.434 788.978 652.023C778.725 644.451 769.662 636.47 767.793 630.892C763.157 616.931 715.433 591.334 715.433 591.334C715.433 591.334 764.3 600.606 789.897 585.517C815.494 570.427 864.361 576.245 864.361 576.245C889.958 601.842 926.024 614.644 926.024 614.644C946.027 601.741 962.444 622.826 973.114 644.165C978.542 655.241 983.031 666.752 986.535 678.578Z" fill="#6C63FF"/>
<path d="M1027.22 599.454C1027.22 599.454 1065.62 561.056 1071.44 545.936C1077.25 530.816 1149.39 545.936 1149.39 545.936C1149.39 545.936 1185.46 556.405 1201.75 544.769C1201.75 544.769 1176.16 564.548 1173.83 580.835C1171.5 597.121 1080.75 639.012 1080.75 639.012L1027.22 689.039L1008.6 678.57L1027.22 599.454Z" fill="#6C63FF"/>
<path opacity="0.05" d="M1201.74 544.8C1200.89 545.472 1184.57 558.282 1177.23 571.61C1175.55 574.47 1174.41 577.611 1173.85 580.881C1171.54 597.168 1080.77 639.059 1080.77 639.059L1042.19 675.124L1027.22 689.039L1008.6 678.57L1027.22 599.454C1027.22 599.454 1065.62 561.056 1071.44 545.936C1077.25 530.816 1149.39 545.936 1149.39 545.936C1149.39 545.936 1185.44 556.397 1201.74 544.8Z" fill="black"/>
<path opacity="0.1" d="M989.277 664.315C987.654 665.822 984.927 667.073 985.414 669.237C985.628 669.961 986.066 670.599 986.665 671.06C989.694 673.749 994.6 675.843 994.191 679.876C993.959 682.194 991.935 683.839 990.946 685.925C988.883 690.283 992.135 695.838 996.717 697.337C1001.3 698.836 1006.43 697.074 1010.21 694.069C1011.02 693.42 1011.88 692.686 1012.92 692.686C1013.71 692.795 1014.48 693.032 1015.19 693.389C1018.28 694.455 1021.77 692.091 1023.09 689.07C1024.41 686.049 1024.17 682.603 1023.9 679.319C1025.65 680.811 1028.53 679.999 1030.02 678.23C1031.52 676.461 1031.95 674.073 1032.34 671.802L1035.1 655.878C1037.31 655.237 1038.19 652.255 1037.18 650.192C1036.17 648.129 1033.81 647.001 1031.52 646.785C1029.24 646.568 1026.95 647.086 1024.69 647.519C1018.79 648.655 1012.79 649.172 1006.78 649.064C1001.79 648.963 995.396 642.813 992.645 648.291C990.134 653.19 993.835 660.089 989.277 664.315Z" fill="black"/>
<path opacity="0.1" d="M1177.23 571.602C1175.55 574.462 1174.41 577.604 1173.85 580.873C1171.54 597.16 1080.77 639.051 1080.77 639.051L1042.19 675.116H1031.91C1031.91 675.116 1056.34 587.827 1092.41 611.09C1092.41 611.09 1128.48 598.288 1154.08 572.691C1161.77 571.897 1169.5 571.533 1177.23 571.602Z" fill="black"/>
<path d="M1305.36 591.311C1305.36 591.311 1257.66 616.908 1253 630.869C1251.25 636.107 1243.14 643.455 1233.69 650.601C1217.89 662.538 1198.32 673.919 1198.32 673.919L1078.48 678.555H1034.24C1037.34 668.043 1041.21 657.776 1045.82 647.835C1056.4 625.36 1073.58 600.961 1094.74 614.582C1094.74 614.582 1130.8 601.78 1156.4 576.183C1156.4 576.183 1205.27 570.366 1230.87 585.455C1256.46 600.544 1305.36 591.311 1305.36 591.311Z" fill="#6C63FF"/>
<path d="M1194.8 323.122C1194.8 323.122 1122.58 407.027 1091.79 478.417C1088.62 485.764 1085.35 493.096 1081.89 500.274C1063.42 538.704 1007.87 660.977 1009.8 737.466L988.859 741.924C988.859 741.924 1042.38 523.182 1064.49 489.442C1064.49 489.442 1162.23 321.893 1194.81 305.607L1194.8 323.122Z" fill="#635151"/>
<path d="M1026.94 555.246C1025.67 576.384 1024.13 596.503 1022.76 612.55C1022.49 615.857 1022.21 618.986 1021.99 621.93C1020.54 638.047 1019.49 648.291 1019.49 648.291V648.353C1019.22 653.391 1017.65 661.047 1015.12 670.574C1014.29 673.726 1013.33 677.087 1012.29 680.617C1012.09 681.259 1011.91 681.908 1011.71 682.557C1010.83 685.534 1009.88 688.624 1008.86 691.828C1008.45 693.134 1008.03 694.455 1007.6 695.799C1005.28 703.046 1002.68 710.773 999.869 718.823C997.358 726.093 994.693 733.626 991.934 741.298L991.479 742.542C991.409 742.728 991.339 742.929 991.27 743.122H976.722C976.783 742.921 976.838 742.728 976.884 742.542C979.109 734.662 981.156 726.943 983.065 719.449C984.973 711.955 986.789 704.53 988.404 697.561C989.068 694.713 989.707 691.928 990.32 689.209C990.521 688.328 990.714 687.455 990.899 686.59C990.992 686.203 991.077 685.817 991.154 685.446C991.571 683.6 991.965 681.784 992.344 680.038C992.498 679.389 992.637 678.732 992.777 678.099L993.124 676.469C993.997 672.397 994.801 668.534 995.535 664.926C996.137 661.967 996.686 659.193 997.196 656.582C997.914 652.873 998.556 649.528 999.089 646.63C1000.63 638.371 1001.41 633.612 1001.41 633.612C1001.44 633.505 1001.47 633.397 1001.49 633.287C1002.43 629.857 1003.31 626.334 1004.11 622.733C1008.83 601.811 1011.59 578.308 1013.1 555.238C1017.07 494.665 1012.47 437.028 1012.47 437.028L1022.77 422.936C1031.49 439.941 1030.17 500.977 1026.94 555.246Z" fill="#635151"/>
<path d="M1169.53 463.876C1169.53 463.876 1148.26 498.25 1127.16 542.072C1125.1 546.379 1123.04 550.757 1120.98 555.207C1112.96 572.497 1105.82 590.179 1099.57 608.185C1098.97 609.916 1098.39 611.654 1097.84 613.377C1096.79 616.599 1095.79 619.813 1094.85 622.988C1094.48 624.232 1094.12 625.476 1093.78 626.712C1093.12 629.061 1092.49 631.392 1091.9 633.704C1091.04 637.088 1090.26 640.441 1089.58 643.748C1089.58 643.748 1085.2 657.199 1079.28 678.516C1078.91 679.891 1078.51 681.282 1078.13 682.719C1077.86 683.708 1077.58 684.72 1077.3 685.747C1075.18 693.628 1072.9 702.359 1070.6 711.738C1069.83 714.952 1069.06 718.228 1068.24 721.597C1066.65 728.334 1065.05 735.349 1063.5 742.55C1063.5 742.751 1063.42 742.936 1063.39 743.129H1048.79C1048.79 742.929 1048.85 742.735 1048.88 742.55C1049.88 734.87 1050.89 727.368 1051.97 720.144C1052.7 714.968 1053.46 709.915 1054.21 705.063C1055.54 696.525 1056.9 688.544 1058.26 681.351C1058.44 680.409 1058.62 679.482 1058.79 678.57C1058.79 678.57 1058.79 678.5 1058.79 678.462C1060.29 670.234 1062.25 662.096 1064.65 654.086C1065.25 652.196 1065.95 650.339 1066.75 648.523C1066.75 648.523 1068.72 643.47 1072.15 634.971L1073.9 630.606C1076.22 624.966 1078.94 618.206 1082.07 610.642C1082.5 609.583 1082.95 608.502 1083.4 607.405C1089.77 592.084 1097.52 573.85 1105.81 555.23C1108.03 550.239 1110.29 545.186 1112.58 540.234C1132.19 497.415 1153.58 456.088 1166.83 446.632L1169.53 463.876Z" fill="#635151"/>
<path d="M814.335 275.421C814.335 275.421 887.053 369.085 921.372 440.636C921.372 440.636 1001.65 598.095 999.329 689.819L1020.27 694.285C1020.27 694.285 996.996 583.709 973.138 506.378C960.892 466.666 937.296 428.754 915.408 393.43C883.901 342.592 835.435 268.529 814.319 257.975L814.335 275.421Z" fill="#635151"/>
<path d="M1151.36 743.508C1151.13 743.439 1150.9 743.387 1150.66 743.354C1150.44 743.306 1150.22 743.27 1150 743.245C1149.73 743.245 1149.46 743.176 1149.22 743.16C1148.98 743.145 1148.72 743.16 1148.45 743.16H874.861C874.606 743.16 874.351 743.16 874.089 743.16C873.826 743.16 873.54 743.207 873.277 743.245C873.648 743.014 874.05 742.782 874.421 742.558C881.088 738.61 890.012 735.009 900.759 731.865C922.153 725.607 950.778 721.149 983.058 719.464C986.851 719.256 990.699 719.101 994.585 718.978L999.878 718.839C1003.33 718.769 1006.83 718.723 1010.35 718.723C1010.94 718.723 1011.52 718.723 1012.12 718.723C1025.89 718.723 1039.23 719.225 1051.92 720.152C1057.48 720.559 1062.9 721.048 1068.18 721.62C1083.99 723.215 1099.66 725.889 1115.1 729.624C1129.61 733.256 1141.47 737.644 1149.8 742.573C1150.34 742.872 1150.86 743.184 1151.36 743.508Z" fill="#635151"/>
<path opacity="0.1" d="M986.535 678.578H942.318L822.478 673.942C822.478 673.942 804.407 663.435 788.978 652.023C813.469 630.344 853.576 630.776 863.195 636.13C873.671 641.91 893.45 639.592 893.45 639.592C907.983 606.717 947.641 626.604 973.137 644.104C978.56 655.2 983.041 666.732 986.535 678.578Z" fill="black"/>
<path d="M995.837 665.196C995.837 665.196 915.555 593.057 893.45 643.092C893.45 643.092 873.671 645.41 863.202 639.6C852.733 633.789 806.191 633.782 782.92 661.704C759.649 689.626 703.805 717.556 703.805 717.556C703.805 717.556 760.252 722.408 787.579 731.517C794.533 733.835 834.121 730.351 860.877 722.246C887.632 714.141 916.737 726.897 916.737 726.897L999.329 693.118L995.837 665.196Z" fill="#6C63FF"/>
<path opacity="0.05" d="M999.329 693.118L916.737 726.897C908.294 723.477 899.43 721.209 890.383 720.152C881.328 719.078 870.944 719.186 860.885 722.246C834.121 730.389 794.564 733.881 787.587 731.517C760.26 722.408 703.812 717.556 703.812 717.556C703.812 717.556 759.665 689.634 782.928 661.704C806.191 633.774 852.726 633.782 863.202 639.592C873.679 645.402 893.45 643.084 893.45 643.084C915.555 593.05 995.837 665.188 995.837 665.188L997.513 678.639L999.329 693.118Z" fill="black"/>
<path opacity="0.1" d="M1233.65 650.609C1217.85 662.546 1198.28 673.927 1198.28 673.927L1078.44 678.562H1034.24C1037.34 668.051 1041.21 657.784 1045.82 647.843C1070.73 629.749 1115.21 604.314 1130.81 639.584C1130.81 639.584 1150.59 641.902 1161.06 636.092C1170.47 630.869 1209.05 630.32 1233.65 650.609Z" fill="black"/>
<path d="M1028.42 665.196C1028.42 665.196 1108.7 593.057 1130.8 643.092C1130.8 643.092 1150.58 645.41 1161.05 639.6C1171.52 633.789 1218.06 633.782 1241.33 661.704C1264.61 689.626 1320.45 717.556 1320.45 717.556C1320.45 717.556 1264.02 722.408 1236.68 731.533C1229.73 733.85 1190.14 730.366 1163.39 722.261C1136.63 714.157 1107.57 726.897 1107.57 726.897L1024.9 693.118L1028.42 665.196Z" fill="#6C63FF"/>
<path opacity="0.05" d="M1320.46 717.556C1320.46 717.556 1264.02 722.408 1236.68 731.533C1229.73 733.85 1190.14 730.366 1163.39 722.261C1150.05 718.197 1136.15 719.341 1125.53 721.489C1119.38 722.712 1113.37 724.523 1107.57 726.897L1024.9 693.118L1027.01 676.283L1028.39 665.196C1028.39 665.196 1108.68 593.057 1130.78 643.092C1130.78 643.092 1150.56 645.41 1161.03 639.6C1171.5 633.789 1218.04 633.782 1241.31 661.704C1264.58 689.626 1320.46 717.556 1320.46 717.556Z" fill="black"/>
<path opacity="0.1" d="M1125.55 721.489C1119.4 722.71 1113.38 724.521 1107.57 726.897L1024.9 693.118L1027.01 676.283C1052.75 673.038 1101.7 689.626 1101.7 689.626C1101.7 689.626 1134.13 707.721 1125.55 721.489Z" fill="black"/>
<path opacity="0.1" d="M999.328 693.118L916.736 726.897C908.293 723.477 899.429 721.209 890.382 720.152C890.21 719.697 890.073 719.229 889.973 718.754C898.371 671.168 969.637 675.217 997.528 678.686L999.328 693.118Z" fill="black"/>
<path d="M1122.92 722.022C1121.9 724.734 1119.47 727.314 1115.11 729.609C1112.69 730.865 1110.15 731.899 1107.54 732.699C1097.58 735.828 1090.83 739.235 1086.31 742.589C1086.04 742.789 1085.8 742.975 1085.54 743.168H934.877C934.761 742.936 934.645 742.751 934.56 742.589C934.336 742.202 934.197 742.009 934.197 742.009C916.558 741.461 906.491 736.724 900.789 731.896C894.438 726.541 893.473 721.079 893.473 721.079C893.473 720.917 893.534 720.739 893.565 720.577C900.836 681.691 950.484 677.705 983.188 679.435C986.433 679.613 989.508 679.829 992.359 680.084L994.129 680.246L997.768 680.633L999.313 680.81C1001.13 681.019 1002.78 681.243 1004.26 681.452C1005.08 681.56 1005.8 681.676 1006.58 681.769C1009.18 682.163 1010.97 682.479 1011.74 682.618L1012.18 682.703C1012.71 682.277 1013.28 681.893 1013.88 681.552C1014.62 681.121 1015.39 680.747 1016.19 680.432C1016.53 680.293 1016.88 680.177 1017.23 680.061C1020.34 679.073 1023.56 678.506 1026.82 678.377C1027.88 678.307 1028.96 678.269 1030.08 678.261C1031.46 678.261 1032.89 678.261 1034.36 678.323C1035.83 678.384 1037.14 678.462 1038.57 678.578C1038.82 678.578 1039.08 678.578 1039.34 678.639C1045.69 679.23 1052.01 680.159 1058.26 681.421C1064.96 682.734 1071.51 684.303 1077.31 685.832C1089.45 689.031 1098.28 692.013 1098.28 692.013C1098.28 692.013 1127.97 708.547 1122.92 722.022Z" fill="#6C63FF"/>
<path d="M1017.78 412.361C1035.2 407.936 1047.02 395.26 1044.17 384.048C1041.32 372.836 1024.89 367.334 1007.47 371.759C990.043 376.184 978.226 388.86 981.074 400.072C983.921 411.284 1000.35 416.786 1017.78 412.361Z" fill="#6C63FF"/>
<path d="M1037.33 377.993C1037.33 377.993 1083.96 351.407 1106.52 372.739C1106.52 372.739 1086.15 412.05 1035.87 391.977L1037.33 377.993Z" fill="#6C63FF"/>
<path opacity="0.05" d="M1029.98 378.093C1029.98 378.093 1057.93 332.262 1087.99 340.019C1087.99 340.019 1089.18 384.274 1035.46 391.011L1029.98 378.093Z" fill="black"/>
<path d="M1028.16 377.182C1028.16 377.182 1056.12 331.319 1086.17 339.107C1086.17 339.107 1087.35 383.363 1033.63 390.1L1028.16 377.182Z" fill="#6C63FF"/>
<path opacity="0.05" d="M1033.64 389.219L1032.87 387.395L1028.16 376.278C1028.16 376.278 1040.35 356.244 1057.35 344.917C1066.05 339.099 1076 335.569 1086.18 338.203C1086.17 338.203 1087.36 382.458 1033.64 389.219Z" fill="black"/>
<path opacity="0.05" d="M1057.35 344.917C1056.69 357.472 1050.97 372.693 1032.96 387.457L1032.88 387.403L1028.16 376.285C1028.16 376.285 1040.35 356.244 1057.35 344.917Z" fill="black"/>
<path d="M1031.13 387.45L1028.53 385.634L1019.59 379.414C1019.59 379.414 1019.28 356.236 1027.47 337.632C1031.73 327.951 1038.28 319.529 1048.44 316.3C1048.44 316.3 1073.01 353.13 1031.13 387.45Z" fill="#6C63FF"/>
<path opacity="0.05" d="M1028.88 385.657H1028.53L1019.59 379.438C1019.59 379.438 1019.28 356.259 1027.47 337.655C1033.22 348.595 1036.07 364.233 1028.88 385.657Z" fill="black"/>
<path d="M1013.01 384.977C1013.01 384.977 983.868 339.895 1003.91 316.215C1003.91 316.215 1044.29 334.371 1027.09 385.688L1013.01 384.977Z" fill="#6C63FF"/>
<path opacity="0.05" d="M1006.06 387.411C1006.06 387.411 964.43 353.509 976.228 324.775C976.228 324.775 1020.27 329.596 1019.66 383.733L1006.06 387.411Z" fill="black"/>
<path d="M1004.23 387.411C1004.23 387.411 962.614 353.501 974.374 324.775C974.374 324.775 1018.41 329.596 1017.8 383.733L1004.23 387.411Z" fill="#6C63FF"/>
<path opacity="0.05" d="M999.545 393.244C999.545 393.244 947.409 380.434 945.732 349.437C945.732 349.437 987.569 334.943 1010.23 384.112L999.545 393.244Z" fill="black"/>
<path d="M998.634 395.06C998.634 395.06 946.498 382.25 944.821 351.253C944.821 351.253 986.658 336.758 1009.32 385.928L998.634 395.06Z" fill="#6C63FF"/>
<path opacity="0.05" d="M995.929 403.945C995.929 403.945 943.26 414.337 928.65 386.947C928.65 386.947 960.459 356.151 1001.75 391.15L995.929 403.945Z" fill="black"/>
<path d="M995.017 405.737C995.017 405.737 942.348 416.129 927.738 388.74C927.738 388.74 959.547 357.944 1000.84 392.943L995.017 405.737Z" fill="#6C63FF"/>
<path opacity="0.05" d="M1003.62 402.145C1003.62 402.145 965.242 439.678 938.015 424.751C938.015 424.751 947.773 381.562 1001.49 388.246L1003.62 402.145Z" fill="black"/>
<path d="M1005.45 403.945C1005.45 403.945 967.065 441.478 939.838 426.552C939.838 426.552 949.596 383.363 1003.32 390.046L1005.45 403.945Z" fill="#6C63FF"/>
<path opacity="0.05" d="M1002.25 397.98C1002.25 397.98 1008.58 451.291 980.153 463.761C980.153 463.761 951.875 429.688 989.942 391.189L1002.25 397.98Z" fill="black"/>
<path d="M1004.98 398.884C1004.98 398.884 1011.31 452.194 982.88 464.664C982.88 464.664 954.603 430.592 992.669 392.093L1004.98 398.884Z" fill="#6C63FF"/>
<path opacity="0.05" d="M1022.74 401.673C1022.74 401.673 1029.07 454.984 1000.64 467.454C1000.64 467.454 972.364 433.381 1010.43 394.882L1022.74 401.673Z" fill="black"/>
<path d="M1024.56 401.673C1024.56 401.673 1030.9 454.984 1002.47 467.454C1002.47 467.454 974.188 433.381 1012.25 394.882L1024.56 401.673Z" fill="#6C63FF"/>
<path opacity="0.05" d="M1017.83 402.747C1017.83 402.747 1062.13 433.072 1052.79 462.663C1052.79 462.663 1008.53 461.512 1004.61 407.514L1017.83 402.747Z" fill="black"/>
<path d="M1019.65 402.747C1019.65 402.747 1063.95 433.072 1054.62 462.663C1054.62 462.663 1010.35 461.512 1006.44 407.514L1019.65 402.747Z" fill="#6C63FF"/>
<path opacity="0.05" d="M1029.92 395.693C1029.92 395.693 1084.66 408.905 1090.79 444.893C1090.79 444.893 1050.4 463.088 1020.38 406.657L1029.92 395.693Z" fill="black"/>
<path d="M1031.75 394.782C1031.75 394.782 1086.49 407.993 1092.61 443.982C1092.61 443.982 1052.22 462.177 1022.21 405.745L1031.75 394.782Z" fill="#6C63FF"/>
<path d="M1013.01 384.977C1013.01 384.977 983.868 339.895 1003.91 316.215C1003.91 316.215 1044.29 334.371 1027.09 385.688L1013.01 384.977Z" fill="#6C63FF"/>
<path opacity="0.05" d="M1013.01 384.977C1013.01 384.977 983.868 339.895 1003.91 316.215C1003.91 316.215 1044.29 334.371 1027.09 385.688L1013.01 384.977Z" fill="black"/>
<path d="M998.634 395.06C998.634 395.06 946.498 382.25 944.821 351.253C944.821 351.253 986.658 336.758 1009.32 385.928L998.634 395.06Z" fill="#6C63FF"/>
<path opacity="0.05" d="M998.634 395.06C998.634 395.06 946.498 382.25 944.821 351.253C944.821 351.253 986.658 336.758 1009.32 385.928L998.634 395.06Z" fill="black"/>
<path d="M1005.45 403.945C1005.45 403.945 967.065 441.478 939.838 426.552C939.838 426.552 949.596 383.363 1003.32 390.046L1005.45 403.945Z" fill="#6C63FF"/>
<path opacity="0.05" d="M1005.45 403.945C1005.45 403.945 967.065 441.478 939.838 426.552C939.838 426.552 949.596 383.363 1003.32 390.046L1005.45 403.945Z" fill="black"/>
<path d="M1024.56 401.673C1024.56 401.673 1030.9 454.984 1002.47 467.454C1002.47 467.454 974.188 433.381 1012.25 394.882L1024.56 401.673Z" fill="#6C63FF"/>
<path opacity="0.05" d="M1024.56 401.673C1024.56 401.673 1030.9 454.984 1002.47 467.454C1002.47 467.454 974.188 433.381 1012.25 394.882L1024.56 401.673Z" fill="black"/>
<path d="M1031.75 394.782C1031.75 394.782 1086.49 407.993 1092.61 443.982C1092.61 443.982 1052.22 462.177 1022.21 405.745L1031.75 394.782Z" fill="#6C63FF"/>
<path opacity="0.05" d="M1031.75 394.782C1031.75 394.782 1086.49 407.993 1092.61 443.982C1092.61 443.982 1052.22 462.177 1022.21 405.745L1031.75 394.782Z" fill="black"/>
<path opacity="0.05" d="M1036.99 387.04C1036.99 387.04 1093.26 389.095 1106.44 423.144C1106.44 423.144 1070.48 449.019 1029.83 399.688L1036.99 387.04Z" fill="black"/>
<path opacity="0.05" d="M1037.91 382.49C1037.91 382.49 1094.17 384.545 1107.35 418.594C1107.35 418.594 1071.39 444.468 1030.74 395.137L1037.91 382.49Z" fill="black"/>
<path d="M1037.91 385.224C1037.91 385.224 1094.17 387.28 1107.35 421.329C1107.35 421.329 1071.39 447.203 1030.74 397.872L1037.91 385.224Z" fill="#6C63FF"/>
<path d="M1051.84 399.765C1050.25 406.119 1046.81 411.859 1041.96 416.26C1037.11 420.661 1031.06 423.525 1024.58 424.49C1018.11 425.455 1011.49 424.478 1005.56 421.682C999.641 418.886 994.68 414.397 991.308 408.783C987.936 403.168 986.305 396.68 986.619 390.138C986.934 383.596 989.181 377.294 993.077 372.029C996.973 366.764 1002.34 362.772 1008.51 360.558C1014.67 358.344 1021.35 358.007 1027.71 359.589C1031.93 360.642 1035.9 362.516 1039.4 365.105C1042.9 367.694 1045.85 370.947 1048.09 374.678C1050.34 378.409 1051.82 382.545 1052.46 386.849C1053.1 391.154 1052.89 395.543 1051.84 399.765Z" fill="#F7931A"/>
<path d="M1034.3 387.025C1034.96 382.613 1031.61 380.249 1027.02 378.665L1028.51 372.693L1024.9 371.789L1023.45 377.607C1022.49 377.367 1021.51 377.143 1020.54 376.919L1022 371.063L1018.37 370.159L1016.84 376.131C1016.07 375.953 1015.3 375.775 1014.53 375.582L1009.51 374.331L1008.55 378.194C1008.55 378.194 1011.24 378.812 1011.19 378.85C1011.69 378.911 1012.15 379.166 1012.47 379.562C1012.78 379.958 1012.93 380.463 1012.88 380.967L1011.18 387.774C1011.31 387.807 1011.44 387.848 1011.56 387.898L1011.17 387.805L1008.79 397.339C1008.74 397.506 1008.66 397.661 1008.54 397.795C1008.43 397.929 1008.29 398.04 1008.14 398.12C1007.98 398.201 1007.81 398.25 1007.64 398.264C1007.47 398.279 1007.29 398.258 1007.12 398.204C1007.12 398.258 1004.48 397.548 1004.48 397.548L1002.67 401.712L1007.4 402.894L1009.99 403.566L1008.48 409.608L1012.12 410.512L1013.61 404.532C1014.6 404.803 1015.56 405.05 1016.5 405.305L1015.02 411.254L1018.66 412.158L1020.17 406.131C1026.35 407.306 1031.03 406.834 1032.99 401.225C1034.54 396.713 1032.91 394.11 1029.65 392.41C1032.03 391.815 1033.83 390.254 1034.3 387.025ZM1026 398.676C1024.88 403.188 1017.28 400.746 1014.81 400.136L1016.8 392.132C1019.26 392.75 1027.17 393.97 1025.99 398.676H1026ZM1027.12 386.947C1026.09 391.058 1019.76 388.964 1017.72 388.493L1019.52 381.23C1021.58 381.725 1028.19 382.683 1027.12 386.947Z" fill="white"/>
<path d="M819.217 278.449C836.64 274.024 848.457 261.347 845.609 250.135C842.762 238.923 826.329 233.422 808.905 237.847C791.481 242.272 779.665 254.948 782.512 266.16C785.36 277.372 801.793 282.874 819.217 278.449Z" fill="#6C63FF"/>
<path d="M838.756 244.099C838.756 244.099 885.391 217.513 907.951 238.845C907.951 238.845 887.578 278.156 837.296 258.083L838.756 244.099Z" fill="#6C63FF"/>
<path opacity="0.05" d="M831.409 244.192C831.409 244.192 859.362 198.361 889.425 206.118C889.425 206.118 890.607 250.373 836.887 257.11L831.409 244.192Z" fill="black"/>
<path d="M829.586 243.28C829.586 243.28 857.539 197.449 887.601 205.206C887.601 205.206 888.783 249.461 835.064 256.198L829.586 243.28Z" fill="#6C63FF"/>
<path opacity="0.05" d="M835.071 255.318L834.299 253.494L829.586 242.376C829.586 242.376 841.793 222.381 858.791 211.016C867.49 205.198 877.434 201.667 887.617 204.302C887.601 204.302 888.791 248.565 835.071 255.318Z" fill="black"/>
<path opacity="0.05" d="M858.791 211.016C858.126 223.571 852.409 238.791 834.399 253.556L834.315 253.502L829.602 242.384C829.602 242.384 841.793 222.381 858.791 211.016Z" fill="black"/>
<path d="M832.522 253.556L829.964 251.74L821.025 245.521C821.025 245.521 820.708 222.342 828.898 203.738C833.163 194.057 839.715 185.636 849.867 182.406C849.867 182.406 874.436 219.229 832.522 253.556Z" fill="#6C63FF"/>
<path opacity="0.05" d="M830.312 251.74H829.964L821.025 245.521C821.025 245.521 820.708 222.342 828.898 203.738C834.654 214.693 837.505 230.339 830.312 251.74Z" fill="black"/>
<path d="M814.443 251.076C814.443 251.076 785.3 205.994 805.342 182.313C805.342 182.313 845.726 200.47 828.52 251.787L814.443 251.076Z" fill="#6C63FF"/>
<path opacity="0.05" d="M807.489 253.517C807.489 253.517 765.868 219.607 777.627 190.882C777.627 190.882 821.666 195.703 821.056 249.84L807.489 253.517Z" fill="black"/>
<path d="M805.666 253.517C805.666 253.517 764.045 219.607 775.804 190.882C775.804 190.882 819.843 195.703 819.233 249.84L805.666 253.517Z" fill="#6C63FF"/>
<path opacity="0.05" d="M800.977 259.343C800.977 259.343 748.841 246.533 747.164 215.536C747.164 215.536 789.001 201.041 811.662 250.211L800.977 259.343Z" fill="black"/>
<path d="M800.072 261.166C800.072 261.166 747.936 248.356 746.26 217.359C746.26 217.359 788.097 202.865 810.757 252.034L800.072 261.166Z" fill="#6C63FF"/>
<path opacity="0.05" d="M797.36 270.012C797.36 270.012 744.691 280.404 730.081 253.015C730.081 253.015 761.889 222.219 803.186 257.218L797.36 270.012Z" fill="black"/>
<path d="M796.448 271.828C796.448 271.828 743.779 282.22 729.169 254.831C729.169 254.831 760.977 224.034 802.274 259.034L796.448 271.828Z" fill="#6C63FF"/>
<path opacity="0.05" d="M805.056 268.243C805.056 268.243 766.672 305.777 739.445 290.85C739.445 290.85 749.203 247.661 802.923 254.344L805.056 268.243Z" fill="black"/>
<path d="M806.879 270.067C806.879 270.067 768.495 307.6 741.269 292.689C741.269 292.689 751.027 249.5 804.746 256.183L806.879 270.067Z" fill="#6C63FF"/>
<path opacity="0.05" d="M803.68 264.102C803.68 264.102 810.016 317.412 781.583 329.882C781.583 329.882 753.306 295.81 791.372 257.311L803.68 264.102Z" fill="black"/>
<path d="M806.408 264.99C806.408 264.99 812.743 318.301 784.311 330.771C784.311 330.771 756.033 296.698 794.1 258.199L806.408 264.99Z" fill="#6C63FF"/>
<path opacity="0.05" d="M824.169 267.772C824.169 267.772 830.505 321.082 802.073 333.552C802.073 333.552 773.795 299.48 811.862 260.981L824.169 267.772Z" fill="black"/>
<path d="M825.994 267.772C825.994 267.772 832.329 321.082 803.897 333.552C803.897 333.552 775.619 299.48 813.686 260.981L825.994 267.772Z" fill="#6C63FF"/>
<path opacity="0.05" d="M819.263 268.846C819.263 268.846 863.557 299.179 854.224 328.785C854.224 328.785 809.961 327.634 806.044 273.636L819.263 268.846Z" fill="black"/>
<path d="M821.08 268.846C821.08 268.846 865.374 299.179 856.04 328.785C856.04 328.785 811.777 327.634 807.86 273.636L821.08 268.846Z" fill="#6C63FF"/>
<path opacity="0.05" d="M831.355 261.784C831.355 261.784 886.095 274.996 892.222 310.984C892.222 310.984 851.829 329.179 821.813 272.748L831.355 261.784Z" fill="black"/>
<path d="M833.178 260.888C833.178 260.888 887.918 274.1 894.045 310.088C894.045 310.088 853.653 328.283 823.637 271.851L833.178 260.888Z" fill="#6C63FF"/>
<path d="M814.443 251.076C814.443 251.076 785.3 205.994 805.342 182.313C805.342 182.313 845.726 200.47 828.52 251.787L814.443 251.076Z" fill="#6C63FF"/>
<path opacity="0.05" d="M814.443 251.076C814.443 251.076 785.3 205.994 805.342 182.313C805.342 182.313 845.726 200.47 828.52 251.787L814.443 251.076Z" fill="black"/>
<path d="M800.072 261.166C800.072 261.166 747.936 248.356 746.26 217.359C746.26 217.359 788.097 202.865 810.757 252.034L800.072 261.166Z" fill="#6C63FF"/>
<path opacity="0.05" d="M800.072 261.166C800.072 261.166 747.936 248.356 746.26 217.359C746.26 217.359 788.097 202.865 810.757 252.034L800.072 261.166Z" fill="black"/>
<path d="M806.879 270.067C806.879 270.067 768.495 307.6 741.269 292.689C741.269 292.689 751.027 249.5 804.746 256.183L806.879 270.067Z" fill="#6C63FF"/>
<path opacity="0.05" d="M806.879 270.067C806.879 270.067 768.495 307.6 741.269 292.689C741.269 292.689 751.027 249.5 804.746 256.183L806.879 270.067Z" fill="black"/>
<path d="M825.994 267.772C825.994 267.772 832.329 321.082 803.897 333.552C803.897 333.552 775.619 299.48 813.686 260.981L825.994 267.772Z" fill="#6C63FF"/>
<path opacity="0.05" d="M825.994 267.772C825.994 267.772 832.329 321.082 803.897 333.552C803.897 333.552 775.619 299.48 813.686 260.981L825.994 267.772Z" fill="black"/>
<path d="M833.178 260.888C833.178 260.888 887.918 274.1 894.045 310.088C894.045 310.088 853.653 328.283 823.637 271.851L833.178 260.888Z" fill="#6C63FF"/>
<path opacity="0.05" d="M833.178 260.888C833.178 260.888 887.918 274.1 894.045 310.088C894.045 310.088 853.653 328.283 823.637 271.851L833.178 260.888Z" fill="black"/>
<path opacity="0.05" d="M838.425 253.146C838.425 253.146 894.694 255.202 907.867 289.251C907.867 289.251 871.91 315.125 831.263 265.794L838.425 253.146Z" fill="black"/>
<path opacity="0.05" d="M839.336 248.588C839.336 248.588 895.605 250.643 908.778 284.692C908.778 284.692 872.821 310.567 832.174 261.236L839.336 248.588Z" fill="black"/>
<path d="M839.336 251.323C839.336 251.323 895.605 253.378 908.778 287.427C908.778 287.427 872.821 313.302 832.174 263.971L839.336 251.323Z" fill="#6C63FF"/>
<path d="M853.266 265.864C851.677 272.217 848.24 277.958 843.389 282.358C838.539 286.759 832.492 289.623 826.014 290.588C819.536 291.554 812.918 290.576 806.995 287.781C801.072 284.985 796.111 280.496 792.739 274.881C789.367 269.266 787.735 262.778 788.05 256.236C788.365 249.694 790.612 243.392 794.508 238.127C798.403 232.862 803.772 228.871 809.936 226.656C816.1 224.442 822.782 224.105 829.137 225.688C833.36 226.74 837.334 228.615 840.833 231.204C844.331 233.793 847.285 237.046 849.525 240.777C851.766 244.508 853.25 248.643 853.892 252.948C854.533 257.252 854.321 261.641 853.266 265.864Z" fill="#F7931A"/>
<path d="M835.736 253.131C836.393 248.719 833.04 246.355 828.45 244.771L829.942 238.799L826.303 237.895L824.85 243.713C823.892 243.473 822.911 243.249 821.937 243.025L823.398 237.169L819.766 236.265L818.275 242.237C817.503 242.059 816.73 241.882 815.957 241.689L810.943 240.437L809.977 244.3C809.977 244.3 812.674 244.918 812.62 244.957C813.123 245.017 813.583 245.273 813.899 245.669C814.216 246.065 814.364 246.569 814.312 247.074L812.612 253.88C812.741 253.913 812.867 253.954 812.991 254.004L812.604 253.911L810.225 263.445C810.173 263.612 810.088 263.767 809.976 263.902C809.864 264.036 809.726 264.146 809.571 264.227C809.416 264.307 809.246 264.356 809.072 264.37C808.897 264.385 808.722 264.365 808.556 264.311C808.556 264.365 805.913 263.654 805.913 263.654L804.105 267.818L808.834 269L811.422 269.673L809.931 275.691L813.562 276.595L815.053 270.615C816.042 270.886 817.008 271.133 817.951 271.388L816.467 277.337L820.106 278.241L821.613 272.214C827.794 273.389 832.476 272.918 834.438 267.308C835.983 262.796 834.361 260.193 831.101 258.493C833.465 257.921 835.257 256.376 835.736 253.131ZM827.423 264.782C826.303 269.294 818.7 266.853 816.235 266.242L818.229 258.238C820.693 258.856 828.597 260.069 827.423 264.782ZM828.551 253.069C827.523 257.179 821.196 255.086 819.148 254.614L820.956 247.352C823.011 247.823 829.617 248.781 828.551 253.061V253.069Z" fill="white"/>
<path d="M1211.08 324.178C1224.79 312.549 1229.84 295.97 1222.36 287.149C1214.87 278.328 1197.69 280.604 1183.98 292.234C1170.28 303.864 1165.23 320.443 1172.71 329.264C1180.2 338.085 1197.38 335.808 1211.08 324.178Z" fill="#6C63FF"/>
<path d="M1213.57 284.793C1213.57 284.793 1243.8 240.421 1273.43 249.685C1273.43 249.685 1272.39 293.948 1218.4 297.997L1213.57 284.793Z" fill="#6C63FF"/>
<path opacity="0.05" d="M1207.02 288.107C1207.02 288.107 1212.01 234.65 1242.42 228.423C1242.42 228.423 1262.92 267.664 1217.64 297.324L1207.02 288.107Z" fill="black"/>
<path d="M1204.98 288.053C1204.98 288.053 1209.97 234.596 1240.38 228.369C1240.38 228.369 1260.88 267.61 1215.6 297.27L1204.98 288.053Z" fill="#6C63FF"/>
<path opacity="0.05" d="M1215.2 296.498L1213.71 295.2L1204.59 287.28C1204.59 287.28 1206.78 263.917 1217.04 246.286C1222.3 237.238 1229.68 229.698 1239.99 227.596C1239.99 227.588 1260.49 266.829 1215.2 296.498Z" fill="black"/>
<path opacity="0.05" d="M1217.04 246.286C1221.95 257.875 1223.49 274.038 1213.81 295.215H1213.71L1204.59 287.28C1204.59 287.28 1206.78 263.909 1217.04 246.286Z" fill="black"/>
<path d="M1212.17 296.011L1209.08 295.524L1198.32 293.863C1198.32 293.863 1187.84 273.149 1187.04 252.868C1186.61 242.299 1188.83 231.845 1196.51 224.498C1196.47 224.49 1234.71 246.788 1212.17 296.011Z" fill="#6C63FF"/>
<path opacity="0.05" d="M1209.36 295.385L1209.04 295.524L1198.28 293.863C1198.28 293.863 1187.8 273.149 1187 252.868C1196.98 260.185 1206.41 272.979 1209.36 295.385Z" fill="black"/>
<path d="M1194.81 301.744C1194.81 301.744 1148.82 274.038 1156.42 243.937C1156.42 243.937 1200.67 242.508 1207.72 296.189L1194.81 301.744Z" fill="#6C63FF"/>
<path opacity="0.05" d="M1189.62 306.99C1189.62 306.99 1137.34 294.813 1135.29 263.832C1135.29 263.832 1176.94 248.835 1200.18 297.726L1189.62 306.99Z" fill="black"/>
<path d="M1187.99 307.786C1187.99 307.786 1135.7 295.609 1133.65 264.627C1133.65 264.627 1175.31 249.631 1198.55 298.522L1187.99 307.786Z" fill="#6C63FF"/>
<path opacity="0.05" d="M1186.33 315.094C1186.33 315.094 1133.87 326.483 1118.74 299.372C1118.74 299.372 1149.97 267.981 1191.92 302.192L1186.33 315.094Z" fill="black"/>
<path d="M1186.32 317.119C1186.32 317.119 1133.86 328.507 1118.73 301.396C1118.73 301.396 1149.95 270.005 1191.9 304.216L1186.32 317.119Z" fill="#6C63FF"/>
<path opacity="0.05" d="M1187.77 326.259C1187.77 326.259 1145.02 358.708 1119.86 340.537C1119.86 340.537 1134.91 298.901 1187.39 312.205L1187.77 326.259Z" fill="black"/>
<path d="M1187.75 328.298C1187.75 328.298 1145 360.748 1119.85 342.576C1119.85 342.576 1134.9 300.94 1187.37 314.245L1187.75 328.298Z" fill="#6C63FF"/>
<path opacity="0.05" d="M1193.91 321.276C1193.91 321.276 1175.91 371.851 1144.9 370.398C1144.9 370.398 1134.7 327.317 1185.9 309.725L1193.91 321.276Z" fill="black"/>
<path d="M1196.35 322.125C1196.35 322.125 1178.34 372.7 1147.33 371.248C1147.33 371.248 1137.13 328.167 1188.33 310.575L1196.35 322.125Z" fill="#6C63FF"/>
<path opacity="0.05" d="M1190.84 318.185C1190.84 318.185 1219.95 363.298 1199.88 386.947C1199.88 386.947 1159.51 368.76 1176.81 317.451L1190.84 318.185Z" fill="black"/>
<path d="M1193.69 317.768C1193.69 317.768 1222.8 362.881 1202.73 386.53C1202.73 386.53 1162.37 368.343 1179.66 317.034L1193.69 317.768Z" fill="#6C63FF"/>
<path opacity="0.05" d="M1210.88 312.468C1210.88 312.468 1239.98 357.58 1219.92 381.23C1219.92 381.23 1179.55 363.043 1196.84 311.734L1210.88 312.468Z" fill="black"/>
<path d="M1212.51 311.672C1212.51 311.672 1241.61 356.785 1221.55 380.434C1221.55 380.434 1181.18 362.247 1198.47 310.938L1212.51 311.672Z" fill="#6C63FF"/>
<path opacity="0.05" d="M1206.94 315.589C1206.94 315.589 1260.05 323.385 1264.68 354.08C1264.68 354.08 1224.41 372.484 1197.17 325.695L1206.94 315.589Z" fill="black"/>
<path d="M1208.57 314.793C1208.57 314.793 1261.68 322.589 1266.3 353.285C1266.3 353.285 1226.04 371.688 1198.8 324.899L1208.57 314.793Z" fill="#6C63FF"/>
<path opacity="0.05" d="M1214.7 303.946C1214.7 303.946 1269.68 291.777 1290.99 321.414C1290.99 321.414 1262.7 355.502 1210.95 317.984L1214.7 303.946Z" fill="black"/>
<path d="M1215.94 302.331C1215.94 302.331 1270.92 290.162 1292.23 319.8C1292.23 319.8 1263.93 353.887 1212.18 316.369L1215.94 302.331Z" fill="#6C63FF"/>
<path d="M1194.81 301.744C1194.81 301.744 1148.82 274.038 1156.42 243.937C1156.42 243.937 1200.67 242.508 1207.72 296.189L1194.81 301.744Z" fill="#6C63FF"/>
<path opacity="0.05" d="M1194.81 301.744C1194.81 301.744 1148.82 274.038 1156.42 243.937C1156.42 243.937 1200.67 242.508 1207.72 296.189L1194.81 301.744Z" fill="black"/>
<path d="M1186.32 317.119C1186.32 317.119 1133.86 328.507 1118.73 301.396C1118.73 301.396 1149.95 270.005 1191.9 304.216L1186.32 317.119Z" fill="#6C63FF"/>
<path opacity="0.05" d="M1186.32 317.119C1186.32 317.119 1133.86 328.507 1118.73 301.396C1118.73 301.396 1149.95 270.005 1191.9 304.216L1186.32 317.119Z" fill="black"/>
<path d="M1196.35 322.125C1196.35 322.125 1178.34 372.7 1147.33 371.248C1147.33 371.248 1137.13 328.167 1188.33 310.575L1196.35 322.125Z" fill="#6C63FF"/>
<path opacity="0.05" d="M1196.35 322.125C1196.35 322.125 1178.34 372.7 1147.33 371.248C1147.33 371.248 1137.13 328.167 1188.33 310.575L1196.35 322.125Z" fill="black"/>
<path d="M1212.51 311.672C1212.51 311.672 1241.61 356.785 1221.55 380.434C1221.55 380.434 1181.18 362.247 1198.47 310.938L1212.51 311.672Z" fill="#6C63FF"/>
<path opacity="0.05" d="M1212.51 311.672C1212.51 311.672 1241.61 356.785 1221.55 380.434C1221.55 380.434 1181.18 362.247 1198.47 310.938L1212.51 311.672Z" fill="black"/>
<path d="M1215.94 302.331C1215.94 302.331 1270.92 290.162 1292.23 319.8C1292.23 319.8 1263.93 353.887 1212.18 316.369L1215.94 302.331Z" fill="#6C63FF"/>
<path opacity="0.05" d="M1215.94 302.331C1215.94 302.331 1270.92 290.162 1292.23 319.8C1292.23 319.8 1263.93 353.887 1212.18 316.369L1215.94 302.331Z" fill="black"/>
<path opacity="0.05" d="M1217.28 293.067C1217.28 293.067 1268.74 270.198 1295.53 295.006C1295.53 295.006 1274.58 334.039 1216.4 307.577L1217.28 293.067Z" fill="black"/>
<path opacity="0.05" d="M1216.07 288.578C1216.07 288.578 1267.53 265.709 1294.31 290.518C1294.31 290.518 1273.37 329.55 1215.19 303.088L1216.07 288.578Z" fill="black"/>
<path d="M1217.28 291.035C1217.28 291.035 1268.74 268.166 1295.53 292.974C1295.53 292.974 1274.58 332.007 1216.4 305.545L1217.28 291.035Z" fill="#6C63FF"/>
<path d="M1236.17 297.981C1237.54 304.387 1236.97 311.054 1234.54 317.138C1232.12 323.223 1227.95 328.451 1222.55 332.164C1217.15 335.876 1210.78 337.905 1204.23 337.994C1197.68 338.084 1191.25 336.23 1185.76 332.666C1180.26 329.102 1175.94 323.99 1173.35 317.974C1170.76 311.958 1170.02 305.309 1171.2 298.868C1172.39 292.427 1175.46 286.483 1180.03 281.787C1184.59 277.091 1190.45 273.854 1196.85 272.485C1201.11 271.577 1205.5 271.516 1209.78 272.305C1214.06 273.095 1218.14 274.72 1221.8 277.088C1225.45 279.456 1228.6 282.519 1231.06 286.104C1233.53 289.689 1235.27 293.725 1236.17 297.981Z" fill="#F7931A"/>
<path d="M1214.83 294.234C1213.49 289.985 1209.42 289.328 1204.61 289.923L1203.33 283.904L1199.67 284.677L1200.92 290.541C1199.95 290.75 1198.97 290.974 1198 291.205L1196.74 285.303L1193.08 286.075L1194.36 292.094C1193.59 292.279 1192.81 292.457 1192.04 292.627L1186.99 293.701L1187.82 297.618C1187.82 297.618 1190.52 296.992 1190.48 297.046C1190.96 296.879 1191.48 296.907 1191.94 297.124C1192.4 297.341 1192.76 297.729 1192.93 298.205L1194.4 305.066C1194.53 305.039 1194.66 305.021 1194.79 305.012L1194.41 305.097L1196.42 314.693C1196.45 314.868 1196.45 315.048 1196.41 315.222C1196.37 315.396 1196.3 315.56 1196.19 315.705C1196.09 315.849 1195.95 315.971 1195.8 316.062C1195.65 316.154 1195.48 316.214 1195.3 316.238C1195.36 316.238 1192.64 316.81 1192.64 316.81L1192.84 321.345L1197.61 320.325L1200.28 319.73L1201.58 325.818L1205.25 325.046L1203.96 319.019C1204.97 318.826 1205.95 318.625 1206.9 318.424L1208.18 324.42L1211.84 323.647L1210.55 317.567C1216.63 315.898 1220.59 313.426 1219.91 307.523C1219.35 302.771 1216.71 301.164 1213.03 301.072C1214.9 299.534 1215.82 297.324 1214.83 294.234ZM1212.52 308.35C1213.49 312.9 1205.56 314.044 1203.11 314.577L1201.38 306.511C1203.83 305.985 1211.47 303.606 1212.48 308.35H1212.52ZM1208.35 297.324C1209.23 301.466 1202.63 302.37 1200.56 302.81L1199.02 295.493C1201.06 295.061 1207.42 293.013 1208.35 297.324Z" fill="white"/>
<path d="M1178.92 470.115C1192.81 458.704 1198.12 442.208 1190.78 433.269C1183.43 424.33 1166.22 426.333 1152.33 437.744C1138.44 449.155 1133.13 465.651 1140.47 474.59C1147.81 483.529 1165.03 481.525 1178.92 470.115Z" fill="#6C63FF"/>
<path d="M1182 430.685C1182 430.685 1212.91 386.793 1242.41 396.52C1242.41 396.52 1240.67 440.76 1186.63 443.958L1182 430.685Z" fill="#6C63FF"/>
<path opacity="0.05" d="M1175.4 433.899C1175.4 433.899 1181.22 380.527 1211.71 374.779C1211.71 374.779 1231.59 414.337 1185.85 443.286L1175.4 433.899Z" fill="black"/>
<path d="M1173.36 433.845C1173.36 433.845 1179.18 380.473 1209.67 374.725C1209.67 374.725 1229.55 414.283 1183.81 443.232L1173.36 433.845Z" fill="#6C63FF"/>
<path opacity="0.05" d="M1183.44 442.413L1181.97 441.092L1172.97 433.026C1172.97 433.026 1175.52 409.701 1186.06 392.232C1191.47 383.27 1198.96 375.845 1209.3 373.906C1209.31 373.906 1229.19 413.463 1183.44 442.413Z" fill="black"/>
<path opacity="0.05" d="M1186.07 392.232C1190.81 403.875 1192.1 420.085 1182.07 441.108H1181.97L1172.97 433.042C1172.97 433.042 1175.56 409.701 1186.07 392.232Z" fill="black"/>
<path d="M1180.41 441.88L1177.32 441.339L1166.56 439.485C1166.56 439.485 1156.41 418.625 1155.93 398.32C1155.67 387.743 1158.05 377.328 1165.84 370.097C1165.84 370.12 1203.73 393.02 1180.41 441.88Z" fill="#6C63FF"/>
<path opacity="0.05" d="M1177.62 441.216L1177.29 441.347L1166.56 439.485C1166.56 439.485 1156.41 418.625 1155.93 398.32C1165.8 405.815 1175.03 418.764 1177.62 441.216Z" fill="black"/>
<path d="M1162.97 447.343C1162.97 447.343 1117.42 418.918 1125.49 388.941C1125.49 388.941 1169.76 388.215 1175.96 441.988L1162.97 447.343Z" fill="#6C63FF"/>
<path opacity="0.05" d="M1157.71 452.503C1157.71 452.503 1105.62 439.5 1104.06 408.465C1104.06 408.465 1145.95 394.125 1168.42 443.379L1157.71 452.503Z" fill="black"/>
<path d="M1156.05 453.276C1156.05 453.276 1103.96 440.273 1102.4 409.237C1102.4 409.237 1144.29 394.898 1166.77 444.152L1156.05 453.276Z" fill="#6C63FF"/>
<path opacity="0.05" d="M1154.28 460.546C1154.28 460.546 1101.65 471.108 1086.95 443.758C1086.95 443.758 1118.63 412.853 1160.07 447.737L1154.28 460.546Z" fill="black"/>
<path d="M1154.23 462.578C1154.23 462.578 1101.59 473.14 1086.9 445.79C1086.9 445.79 1118.57 414.885 1160.02 449.769L1154.23 462.578Z" fill="#6C63FF"/>
<path opacity="0.05" d="M1155.55 471.742C1155.55 471.742 1112.28 503.535 1087.43 484.946C1087.43 484.946 1103.13 443.549 1155.42 457.68L1155.55 471.742Z" fill="black"/>
<path d="M1155.47 473.781C1155.47 473.781 1112.21 505.574 1087.35 486.985C1087.35 486.985 1103.05 445.589 1155.34 459.72L1155.47 473.781Z" fill="#6C63FF"/>
<path opacity="0.05" d="M1161.76 466.867C1161.76 466.867 1142.96 517.156 1111.98 515.201C1111.98 515.201 1102.46 471.935 1153.94 455.177L1161.76 466.867Z" fill="black"/>
<path d="M1164.18 467.739C1164.18 467.739 1145.38 518.029 1114.4 516.082C1114.4 516.082 1104.88 472.815 1156.35 456.057L1164.18 467.739Z" fill="#6C63FF"/>
<path opacity="0.05" d="M1158.74 463.683C1158.74 463.683 1187.14 509.267 1166.7 532.616C1166.7 532.616 1126.62 513.795 1144.72 462.764L1158.74 463.683Z" fill="black"/>
<path d="M1161.61 463.343C1161.61 463.343 1190 508.927 1169.57 532.276C1169.57 532.276 1129.49 513.455 1147.59 462.424L1161.61 463.343Z" fill="#6C63FF"/>
<path opacity="0.05" d="M1178.87 458.314C1178.87 458.314 1207.26 503.898 1186.83 527.246C1186.83 527.246 1146.75 508.425 1164.85 457.394L1178.87 458.314Z" fill="black"/>
<path d="M1180.51 457.541C1180.51 457.541 1208.91 503.125 1188.47 526.474C1188.47 526.474 1148.4 507.653 1166.49 456.622L1180.51 457.541Z" fill="#6C63FF"/>
<path opacity="0.05" d="M1174.87 461.373C1174.87 461.373 1227.86 470.003 1231.99 500.776C1231.99 500.776 1191.44 518.546 1164.95 471.332L1174.87 461.373Z" fill="black"/>
<path d="M1176.53 460.601C1176.53 460.601 1229.51 469.231 1233.65 500.004C1233.65 500.004 1193.09 517.774 1166.6 470.56L1176.53 460.601Z" fill="#6C63FF"/>
<path opacity="0.05" d="M1182.82 449.853C1182.82 449.853 1237.99 438.55 1258.83 468.52C1258.83 468.52 1230.01 502.159 1178.85 463.83L1182.82 449.853Z" fill="black"/>
<path d="M1184.06 448.254C1184.06 448.254 1239.22 436.951 1260.07 466.921C1260.07 466.921 1231.24 500.56 1180.09 462.231L1184.06 448.254Z" fill="#6C63FF"/>
<path d="M1162.97 447.343C1162.97 447.343 1117.42 418.918 1125.49 388.941C1125.49 388.941 1169.76 388.215 1175.96 441.988L1162.97 447.343Z" fill="#6C63FF"/>
<path opacity="0.05" d="M1162.97 447.343C1162.97 447.343 1117.42 418.918 1125.49 388.941C1125.49 388.941 1169.76 388.215 1175.96 441.988L1162.97 447.343Z" fill="black"/>
<path d="M1154.23 462.578C1154.23 462.578 1101.59 473.14 1086.9 445.79C1086.9 445.79 1118.57 414.885 1160.02 449.769L1154.23 462.578Z" fill="#6C63FF"/>
<path opacity="0.05" d="M1154.23 462.578C1154.23 462.578 1101.59 473.14 1086.9 445.79C1086.9 445.79 1118.57 414.885 1160.02 449.769L1154.23 462.578Z" fill="black"/>
<path d="M1164.18 467.739C1164.18 467.739 1145.38 518.029 1114.4 516.082C1114.4 516.082 1104.88 472.815 1156.35 456.057L1164.18 467.739Z" fill="#6C63FF"/>
<path opacity="0.05" d="M1164.18 467.739C1164.18 467.739 1145.38 518.029 1114.4 516.082C1114.4 516.082 1104.88 472.815 1156.35 456.057L1164.18 467.739Z" fill="black"/>
<path d="M1180.51 457.541C1180.51 457.541 1208.91 503.125 1188.47 526.474C1188.47 526.474 1148.4 507.653 1166.49 456.622L1180.51 457.541Z" fill="#6C63FF"/>
<path opacity="0.05" d="M1180.51 457.541C1180.51 457.541 1208.91 503.125 1188.47 526.474C1188.47 526.474 1148.4 507.653 1166.49 456.622L1180.51 457.541Z" fill="black"/>
<path d="M1184.06 448.254C1184.06 448.254 1239.22 436.951 1260.07 466.921C1260.07 466.921 1231.24 500.56 1180.09 462.231L1184.06 448.254Z" fill="#6C63FF"/>
<path opacity="0.05" d="M1184.06 448.254C1184.06 448.254 1239.22 436.951 1260.07 466.921C1260.07 466.921 1231.24 500.56 1180.09 462.231L1184.06 448.254Z" fill="black"/>
<path opacity="0.05" d="M1185.55 439.021C1185.55 439.021 1237.37 416.963 1263.75 442.189C1263.75 442.189 1242.19 480.889 1184.44 453.508L1185.55 439.021Z" fill="black"/>
<path opacity="0.05" d="M1184.44 434.509C1184.44 434.509 1236.25 412.444 1262.63 437.677C1262.63 437.677 1241.08 476.377 1183.33 448.996L1184.44 434.509Z" fill="black"/>
<path d="M1185.61 436.982C1185.61 436.982 1237.42 414.931 1263.81 440.157C1263.81 440.157 1242.25 478.857 1184.5 451.476L1185.61 436.982Z" fill="#6C63FF"/>
<path d="M1204.39 444.229C1205.65 450.656 1204.98 457.314 1202.47 463.361C1199.95 469.407 1195.69 474.572 1190.24 478.2C1184.79 481.829 1178.38 483.76 1171.83 483.748C1165.28 483.736 1158.88 481.782 1153.44 478.133C1148 474.484 1143.76 469.304 1141.27 463.248C1138.77 457.192 1138.13 450.532 1139.41 444.109C1140.7 437.687 1143.87 431.791 1148.51 427.167C1153.15 422.543 1159.05 419.398 1165.48 418.13C1174.1 416.432 1183.04 418.227 1190.34 423.122C1197.64 428.016 1202.69 435.609 1204.39 444.229Z" fill="#F7931A"/>
<path d="M1183.11 440.15C1181.83 435.877 1177.79 435.159 1172.96 435.676L1171.77 429.634L1168.09 430.361L1169.25 436.24C1168.28 436.433 1167.3 436.642 1166.32 436.858L1165.15 430.94L1161.48 431.666L1162.67 437.708C1161.89 437.878 1161.12 438.048 1160.35 438.203L1155.28 439.199L1156.05 443.124C1156.05 443.124 1158.76 442.537 1158.72 442.599C1159.2 442.439 1159.73 442.474 1160.18 442.698C1160.64 442.923 1160.99 443.317 1161.15 443.796L1162.51 450.68C1162.64 450.654 1162.77 450.636 1162.91 450.626L1162.52 450.703L1164.4 460.346C1164.42 460.519 1164.41 460.695 1164.37 460.864C1164.32 461.033 1164.24 461.191 1164.14 461.33C1164.03 461.469 1163.9 461.585 1163.75 461.672C1163.59 461.759 1163.43 461.815 1163.25 461.837C1163.31 461.837 1160.58 462.362 1160.58 462.362L1160.71 466.897L1165.49 465.955L1168.12 465.46L1169.33 471.572L1173 470.845L1171.81 464.804C1172.82 464.626 1173.8 464.441 1174.75 464.255L1175.93 470.274L1179.61 469.547L1178.42 463.436C1184.53 461.891 1188.55 459.457 1187.95 453.547C1187.46 448.787 1184.86 447.134 1181.18 446.987C1183.09 445.45 1184.06 443.271 1183.11 440.15ZM1180.54 454.227C1181.45 458.793 1173.53 459.813 1171.03 460.307L1169.44 452.21C1171.93 451.716 1179.6 449.46 1180.54 454.227H1180.54ZM1176.58 443.147C1177.4 447.304 1170.79 448.1 1168.71 448.509L1167.26 441.169C1169.33 440.752 1175.72 438.813 1176.58 443.14V443.147Z" fill="white"/>
<path opacity="0.05" d="M767.213 611.778L768.681 633.65C784.326 635.025 787.88 630.312 787.88 630.312C785.431 623.467 783.515 608.95 782.317 597.724C782.147 596.109 781.993 594.564 781.846 593.088L767.213 611.778Z" fill="black"/>
<path opacity="0.1" d="M776.453 548.423C774.972 549.073 773.356 549.356 771.743 549.25C770.129 549.143 768.565 548.651 767.182 547.813" fill="black"/>
<path d="M820.499 427.123C823.157 436.758 832.374 442.614 832.374 442.614C832.374 442.614 837.296 432.856 834.638 423.222C831.98 413.587 822.763 407.731 822.763 407.731C822.763 407.731 817.842 417.52 820.499 427.123Z" fill="#6C63FF"/>
<path d="M870.187 480.797C867.328 490.369 872.041 500.228 872.041 500.228C872.041 500.228 881.382 494.565 884.241 484.992C887.1 475.419 882.387 465.561 882.387 465.561C882.387 465.561 873.046 471.224 870.187 480.797Z" fill="#6C63FF"/>
<path d="M1228.57 542.382C1221.56 549.497 1221.1 560.414 1221.1 560.414C1221.1 560.414 1232.01 559.796 1239.02 552.688C1246.04 545.58 1246.5 534.656 1246.5 534.656C1246.5 534.656 1235.59 535.289 1228.57 542.382Z" fill="#6C63FF"/>
<defs>
<linearGradient id="paint0_linear" x1="1012.13" y1="743.238" x2="1012.13" y2="174" gradientUnits="userSpaceOnUse">
<stop stop-color="#808080" stop-opacity="0.25"/>
<stop offset="0.54" stop-color="#808080" stop-opacity="0.12"/>
<stop offset="1" stop-color="#808080" stop-opacity="0.1"/>
</linearGradient>
</defs>
</svg>
